<?xml version="1.0" standalone="no"?><svg xmlns:xlink="http://www.w3.org/1999/xlink" xmlns="http://www.w3.org/2000/svg" viewBox="0 0 1900 1425" preserveAspectRatio="xMaxYMax slice"><g transform="scale(2.0474137931034484)"><rect x="0" y="0" width="928" height="696" fill="#ffffff"/><circle cx="29" cy="29" r="5.8" fill="#ffd0ea"/><circle cx="87" cy="29" r="5.8" fill="#a1ffff"/><rect x="139.2" y="23.200000000000003" width="11.599999999999994" height="11.599999999999994" fill="#ffffff"/><circle cx="142.1" cy="26.099999999999998" r="2.9" fill="#ffffeb"/><circle cx="147.9" cy="26.099999999999998" r="2.9" fill="#f4ffff"/><circle cx="142.1" cy="31.9" r="2.9" fill="#aaffff"/><circle cx="147.9" cy="31.9" r="2.9" fill="#ffffd6"/><circle cx="203" cy="29" r="5.8" fill="#88ffff"/><rect x="313.2" y="23.200000000000003" width="11.599999999999994" height="11.599999999999994" fill="#ffffff"/><circle cx="316.09999999999997" cy="26.099999999999998" r="2.9" fill="#ff60b6"/><circle cx="316.09999999999997" cy="31.9" r="2.9" fill="#c1ffff"/><circle cx="321.9" cy="31.9" r="2.9" fill="#ffffd5"/><circle cx="435" cy="29" r="5.8" fill="#ffff99"/><circle cx="551" cy="29" r="5.8" fill="#13ffff"/><circle cx="667" cy="29" r="5.8" fill="#ff48ab"/><rect x="719.2" y="23.200000000000003" width="11.599999999999994" height="11.599999999999994" fill="#ffffff"/><circle cx="722.1" cy="26.099999999999998" r="2.9" fill="#ffff75"/><circle cx="727.9" cy="26.099999999999998" r="2.9" fill="#ffdcef"/><circle cx="722.1" cy="31.9" r="2.9" fill="#3cffff"/><circle cx="783" cy="29" r="5.8" fill="#5dffff"/><circle cx="841" cy="29" r="5.8" fill="#f3ffff"/><circle cx="899" cy="29" r="5.8" fill="#ffa9d7"/><circle cx="87" cy="87" r="8.12" fill="#ffff68"/><circle cx="145" cy="87" r="8.12" fill="#ff9ad1"/><circle cx="203" cy="87" r="8.12" fill="#f0ffff"/><circle cx="319" cy="87" r="8.12" fill="#ffe2f2"/><circle cx="377" cy="87" r="8.12" fill="#fffcfe"/><circle cx="435" cy="87" r="8.12" fill="#94ffff"/><circle cx="551" cy="87" r="8.12" fill="#ff97cf"/><circle cx="725" cy="87" r="8.12" fill="#ff4eae"/><circle cx="783" cy="87" r="8.12" fill="#39ffff"/><circle cx="841" cy="87" r="8.12" fill="#ffb1db"/><circle cx="87" cy="145" r="10.44" fill="#31ffff"/><circle cx="145" cy="145" r="10.44" fill="#ff57b2"/><circle cx="203" cy="145" r="10.44" fill="#ffffb5"/><rect x="250.56" y="134.56" width="20.880000000000003" height="20.880000000000003" fill="#ffffff"/><circle cx="266.22" cy="139.78" r="5.22" fill="#ffff72"/><circle cx="266.22" cy="150.22" r="5.22" fill="#19ffff"/><circle cx="319" cy="145" r="10.44" fill="#ffffa3"/><circle cx="377" cy="145" r="10.44" fill="#f1ffff"/><circle cx="435" cy="145" r="10.44" fill="#ffffe9"/><circle cx="493" cy="145" r="10.44" fill="#1cffff"/><circle cx="551" cy="145" r="10.44" fill="#ffffdc"/><circle cx="609" cy="145" r="10.44" fill="#ff1694"/><circle cx="783" cy="145" r="10.44" fill="#24ffff"/><circle cx="841" cy="145" r="10.44" fill="#dbffff"/><circle cx="899" cy="145" r="10.44" fill="#28ffff"/><circle cx="29" cy="203" r="12.76" fill="#b3ffff"/><rect x="74.24000000000001" y="190.24" width="25.519999999999996" height="25.519999999999996" fill="#ffffff"/><circle cx="80.61999999999999" cy="196.62" r="6.38" fill="#c8ffff"/><circle cx="93.38" cy="196.62" r="6.38" fill="#fcffff"/><circle cx="80.61999999999999" cy="209.38" r="6.38" fill="#a1ffff"/><circle cx="93.38" cy="209.38" r="6.38" fill="#ffffa1"/><rect x="132.24" y="190.24" width="25.519999999999996" height="25.519999999999996" fill="#ffffff"/><circle cx="138.62" cy="196.62" r="6.38" fill="#ff2d9e"/><circle cx="151.38" cy="209.38" r="6.38" fill="#8effff"/><circle cx="203" cy="203" r="12.76" fill="#ffd2ea"/><circle cx="377" cy="203" r="12.76" fill="#10ffff"/><circle cx="435" cy="203" r="12.76" fill="#cbffff"/><rect x="538.24" y="190.24" width="25.519999999999996" height="25.519999999999996" fill="#ffffff"/><circle cx="544.62" cy="196.62" r="6.38" fill="#f0ffff"/><circle cx="557.38" cy="196.62" r="6.38" fill="#ffd4eb"/><circle cx="544.62" cy="209.38" r="6.38" fill="#24ffff"/><circle cx="557.38" cy="209.38" r="6.38" fill="#ff42a8"/><circle cx="609" cy="203" r="12.76" fill="#ffd1ea"/><circle cx="725" cy="203" r="12.76" fill="#31ffff"/><rect x="828.24" y="190.24" width="25.519999999999996" height="25.519999999999996" fill="#ffffff"/><circle cx="834.62" cy="196.62" r="6.38" fill="#ffcce8"/><circle cx="834.62" cy="209.38" r="6.38" fill="#ffff75"/><circle cx="847.38" cy="209.38" r="6.38" fill="#ffdaee"/><circle cx="899" cy="203" r="12.76" fill="#6effff"/><circle cx="145" cy="261" r="15.08" fill="#ffdbee"/><circle cx="203" cy="261" r="15.08" fill="#a0ffff"/><circle cx="261" cy="261" r="15.08" fill="#ffffd9"/><circle cx="377" cy="261" r="15.08" fill="#16ffff"/><rect x="419.92" y="245.92" width="30.16" height="30.16" fill="#ffffff"/><circle cx="442.54" cy="253.45999999999998" r="7.54" fill="#ff78c1"/><circle cx="427.46000000000004" cy="268.54" r="7.54" fill="#f0ffff"/><circle cx="442.54" cy="268.54" r="7.54" fill="#ff75c0"/><circle cx="551" cy="261" r="15.08" fill="#ff4cad"/><circle cx="609" cy="261" r="15.08" fill="#11ffff"/><circle cx="725" cy="261" r="15.08" fill="#ffff34"/><circle cx="783" cy="261" r="15.08" fill="#ff6fbd"/><circle cx="841" cy="261" r="15.08" fill="#ffff98"/><rect x="883.92" y="245.92" width="30.16" height="30.16" fill="#ffffff"/><circle cx="891.4599999999999" cy="268.54" r="7.54" fill="#ffffc3"/><circle cx="906.54" cy="268.54" r="7.54" fill="#e0ffff"/><circle cx="29" cy="319" r="17.4" fill="#ff1b96"/><rect x="69.6" y="301.6" width="34.8" height="34.8" fill="#ffffff"/><circle cx="95.7" cy="310.3" r="8.7" fill="#ffffcd"/><circle cx="145" cy="319" r="17.4" fill="#fffff3"/><circle cx="203" cy="319" r="17.4" fill="#ffff91"/><circle cx="319" cy="319" r="17.4" fill="#ffff5a"/><rect x="475.6" y="301.6" width="34.8" height="34.8" fill="#ffffff"/><circle cx="501.7" cy="327.7" r="8.7" fill="#ff79c1"/><circle cx="551" cy="319" r="17.4" fill="#ffa9d8"/><circle cx="667" cy="319" r="17.4" fill="#ff47aa"/><circle cx="725" cy="319" r="17.4" fill="#ff38a4"/><circle cx="783" cy="319" r="17.4" fill="#ffffa6"/><circle cx="841" cy="319" r="17.4" fill="#ffcae7"/><circle cx="899" cy="319" r="17.4" fill="#ff52af"/><circle cx="29" cy="377" r="19.72" fill="#ff93ce"/><circle cx="87" cy="377" r="19.72" fill="#1cffff"/><rect x="125.28" y="357.28" width="39.44" height="39.44" fill="#ffffff"/><circle cx="135.14" cy="367.14" r="9.86" fill="#fffffc"/><circle cx="154.86" cy="367.14" r="9.86" fill="#70ffff"/><circle cx="203" cy="377" r="19.72" fill="#8fffff"/><rect x="241.28" y="357.28" width="39.44" height="39.44" fill="#ffffff"/><circle cx="270.86" cy="367.14" r="9.86" fill="#ffffd4"/><circle cx="270.86" cy="386.86" r="9.86" fill="#ffbfe1"/><circle cx="319" cy="377" r="19.72" fill="#fffffc"/><rect x="357.28" y="357.28" width="39.44" height="39.44" fill="#ffffff"/><circle cx="367.14" cy="367.14" r="9.86" fill="#ffa5d6"/><circle cx="386.86" cy="386.86" r="9.86" fill="#ffffe4"/><circle cx="493" cy="377" r="19.72" fill="#ffffaa"/><circle cx="551" cy="377" r="19.72" fill="#ff50af"/><circle cx="667" cy="377" r="19.72" fill="#ff9fd3"/><circle cx="783" cy="377" r="19.72" fill="#ffff3c"/><rect x="879.28" y="357.28" width="39.44" height="39.44" fill="#ffffff"/><circle cx="908.86" cy="386.86" r="9.86" fill="#1effff"/><circle cx="29" cy="435" r="22.04" fill="#ff7bc2"/><circle cx="319" cy="435" r="22.04" fill="#ff43a9"/><circle cx="377" cy="435" r="22.04" fill="#afffff"/><circle cx="435" cy="435" r="22.04" fill="#ffff5f"/><circle cx="493" cy="435" r="22.04" fill="#c8ffff"/><circle cx="609" cy="435" r="22.04" fill="#ffff71"/><circle cx="667" cy="435" r="22.04" fill="#25ffff"/><circle cx="841" cy="435" r="22.04" fill="#92ffff"/><circle cx="29" cy="493" r="24.36" fill="#ffa3d5"/><circle cx="203" cy="493" r="24.36" fill="#ffff7d"/><rect x="236.64" y="468.64" width="48.72" height="48.72" fill="#ffffff"/><circle cx="248.82" cy="480.82" r="12.18" fill="#ffffc7"/><circle cx="273.18" cy="505.18" r="12.18" fill="#ffffad"/><circle cx="493" cy="493" r="24.36" fill="#ffffba"/><circle cx="551" cy="493" r="24.36" fill="#ffbbe0"/><circle cx="609" cy="493" r="24.36" fill="#ffff55"/><circle cx="29" cy="551" r="26.68" fill="#ffaad8"/><circle cx="87" cy="551" r="26.68" fill="#ffffd5"/><rect x="176.32" y="524.32" width="53.36" height="53.36" fill="#ffffff"/><circle cx="189.66" cy="537.6600000000001" r="13.34" fill="#c6ffff"/><circle cx="216.34" cy="564.34" r="13.34" fill="#ffff50"/><circle cx="261" cy="551" r="26.68" fill="#ffffbb"/><circle cx="319" cy="551" r="26.68" fill="#ffff4f"/><circle cx="435" cy="551" r="26.68" fill="#ffffa8"/><circle cx="493" cy="551" r="26.68" fill="#3affff"/><circle cx="551" cy="551" r="26.68" fill="#ff39a4"/><rect x="698.32" y="524.32" width="53.36" height="53.36" fill="#ffffff"/><circle cx="711.6600000000001" cy="537.6600000000001" r="13.34" fill="#ffffb2"/><circle cx="738.34" cy="537.6600000000001" r="13.34" fill="#ff30a0"/><circle cx="783" cy="551" r="26.68" fill="#80ffff"/><circle cx="841" cy="551" r="26.68" fill="#ffe0f1"/><circle cx="899" cy="551" r="26.68" fill="#d2ffff"/><rect x="0" y="580" width="58" height="58" fill="#ffffff"/><circle cx="14.5" cy="594.5" r="14.5" fill="#ffff64"/><circle cx="43.5" cy="594.5" r="14.5" fill="#ffff3d"/><circle cx="87" cy="609" r="29" fill="#fffffc"/><circle cx="145" cy="609" r="29" fill="#3cffff"/><circle cx="203" cy="609" r="29" fill="#b6ffff"/><circle cx="261" cy="609" r="29" fill="#0cffff"/><circle cx="377" cy="609" r="29" fill="#ff88c8"/><rect x="406" y="580" width="58" height="58" fill="#ffffff"/><circle cx="449.5" cy="594.5" r="14.5" fill="#ffffe8"/><circle cx="420.5" cy="623.5" r="14.5" fill="#b5ffff"/><circle cx="449.5" cy="623.5" r="14.5" fill="#ff1c97"/><circle cx="493" cy="609" r="29" fill="#ffb3dc"/><rect x="638" y="580" width="58" height="58" fill="#ffffff"/><circle cx="681.5" cy="594.5" r="14.5" fill="#ffa1d4"/><circle cx="681.5" cy="623.5" r="14.5" fill="#ffdcef"/><circle cx="725" cy="609" r="29" fill="#64ffff"/><circle cx="783" cy="609" r="29" fill="#e5ffff"/><circle cx="841" cy="609" r="29" fill="#ffffe1"/><circle cx="29" cy="667" r="29" fill="#ff4bac"/><rect x="116" y="638" width="58" height="58" fill="#ffffff"/><circle cx="130.5" cy="681.5" r="14.5" fill="#ffff3b"/><circle cx="159.5" cy="681.5" r="14.5" fill="#b9ffff"/><circle cx="203" cy="667" r="29" fill="#ff3fa7"/><circle cx="261" cy="667" r="29" fill="#ffffe0"/><circle cx="319" cy="667" r="29" fill="#cbffff"/><circle cx="493" cy="667" r="29" fill="#ff5bb4"/><circle cx="609" cy="667" r="29" fill="#b8ffff"/><rect x="638" y="638" width="58" height="58" fill="#ffffff"/><circle cx="652.5" cy="652.5" r="14.5" fill="#83ffff"/><circle cx="681.5" cy="652.5" r="14.5" fill="#ffdef0"/><circle cx="652.5" cy="681.5" r="14.5" fill="#ffb1db"/><circle cx="681.5" cy="681.5" r="14.5" fill="#ffff9d"/><circle cx="725" cy="667" r="29" fill="#ffff45"/><circle cx="783" cy="667" r="29" fill="#ffa6d6"/><circle cx="841" cy="667" r="29" fill="#e2ffff"/></g></svg>