<?xml version="1.0" standalone="no"?><svg xmlns:xlink="http://www.w3.org/1999/xlink" xmlns="http://www.w3.org/2000/svg" viewBox="0 0 1900 1425" preserveAspectRatio="xMaxYMax slice"><g transform="scale(2.0474137931034484)"><rect x="0" y="0" width="928" height="696" fill="#ffffff"/><rect x="81.2" y="23.2" width="11.6" height="11.6" fill="#ff41a7"/><g transform="translate(81.2,23.2) scale(0.58) rotate(0)"><rect width="2" height="20" fill="#ffffdb"/><rect x="4" width="2" height="20" fill="#ffffdb"/><rect x="8" width="2" height="20" fill="#ffffdb"/><rect x="12" width="2" height="20" fill="#ffffdb"/><rect x="16" width="2" height="20" fill="#ffffdb"/></g><rect x="255.2" y="23.2" width="11.6" height="11.6" fill="#ffffd3"/><g transform="translate(255.2,23.2) scale(0.58) rotate(0)"><rect width="2" height="20" fill="#ffff5f"/><rect x="4" width="2" height="20" fill="#ffff5f"/><rect x="8" width="2" height="20" fill="#ffff5f"/><rect x="12" width="2" height="20" fill="#ffff5f"/><rect x="16" width="2" height="20" fill="#ffff5f"/></g><rect x="545.2" y="23.2" width="11.6" height="11.6" fill="#6affff"/><g transform="translate(545.2,23.2) scale(0.58) rotate(0)"><rect width="20" height="2" fill="#a2ffff"/><rect y="4" width="20" height="2" fill="#a2ffff"/><rect y="8" width="20" height="2" fill="#a2ffff"/><rect y="12" width="20" height="2" fill="#a2ffff"/><rect y="16" width="20" height="2" fill="#a2ffff"/></g><rect x="23.2" y="81.2" width="11.6" height="11.6" fill="#ffbbe0"/><g transform="translate(23.2,81.2) scale(0.58) rotate(0)"><rect width="20" height="2" fill="#c7ffff"/><rect y="4" width="20" height="2" fill="#c7ffff"/><rect y="8" width="20" height="2" fill="#c7ffff"/><rect y="12" width="20" height="2" fill="#c7ffff"/><rect y="16" width="20" height="2" fill="#c7ffff"/></g><rect x="139.2" y="81.2" width="11.6" height="11.6" fill="#ff38a4"/><g transform="translate(139.2,81.2) scale(0.58) rotate(0)"><rect width="2" height="20" fill="#ff6aba"/><rect x="4" width="2" height="20" fill="#ff6aba"/><rect x="8" width="2" height="20" fill="#ff6aba"/><rect x="12" width="2" height="20" fill="#ff6aba"/><rect x="16" width="2" height="20" fill="#ff6aba"/></g><rect x="197.2" y="81.2" width="11.6" height="11.6" fill="#14ffff"/><g transform="translate(197.2,81.2) scale(0.58) rotate(0)"><rect width="2" height="20" fill="#14ffff"/><rect x="4" width="2" height="20" fill="#14ffff"/><rect x="8" width="2" height="20" fill="#14ffff"/><rect x="12" width="2" height="20" fill="#14ffff"/><rect x="16" width="2" height="20" fill="#14ffff"/></g><rect x="371.2" y="81.2" width="11.6" height="11.6" fill="#ff239a"/><g transform="translate(371.2,81.2) scale(0.58) rotate(0)"><rect width="2" height="20" fill="#fffff3"/><rect x="4" width="2" height="20" fill="#fffff3"/><rect x="8" width="2" height="20" fill="#fffff3"/><rect x="12" width="2" height="20" fill="#fffff3"/><rect x="16" width="2" height="20" fill="#fffff3"/></g><rect x="429.2" y="81.2" width="11.6" height="11.6" fill="#fffbfd"/><g transform="translate(429.2,81.2) scale(0.58) rotate(0)"><rect width="20" height="2" fill="#ffffa2"/><rect y="4" width="20" height="2" fill="#ffffa2"/><rect y="8" width="20" height="2" fill="#ffffa2"/><rect y="12" width="20" height="2" fill="#ffffa2"/><rect y="16" width="20" height="2" fill="#ffffa2"/></g><rect x="487.2" y="81.2" width="11.6" height="11.6" fill="#ffffd9"/><g transform="translate(487.2,81.2) scale(0.58) rotate(0)"><rect width="20" height="2" fill="#ffe6f3"/><rect y="4" width="20" height="2" fill="#ffe6f3"/><rect y="8" width="20" height="2" fill="#ffe6f3"/><rect y="12" width="20" height="2" fill="#ffe6f3"/><rect y="16" width="20" height="2" fill="#ffe6f3"/></g><rect x="661.2" y="81.2" width="11.6" height="11.6" fill="#aaffff"/><g transform="translate(661.2,81.2) scale(0.58) rotate(0)"><rect width="2" height="20" fill="#f8ffff"/><rect x="4" width="2" height="20" fill="#f8ffff"/><rect x="8" width="2" height="20" fill="#f8ffff"/><rect x="12" width="2" height="20" fill="#f8ffff"/><rect x="16" width="2" height="20" fill="#f8ffff"/></g><rect x="719.2" y="81.2" width="11.6" height="11.6" fill="#66ffff"/><g transform="translate(719.2,81.2) scale(0.58) rotate(0)"><rect width="2" height="20" fill="#ff91cd"/><rect x="4" width="2" height="20" fill="#ff91cd"/><rect x="8" width="2" height="20" fill="#ff91cd"/><rect x="12" width="2" height="20" fill="#ff91cd"/><rect x="16" width="2" height="20" fill="#ff91cd"/></g><rect x="23.2" y="139.2" width="11.6" height="11.6" fill="#ff88c8"/><g transform="translate(23.2,139.2) scale(0.58) rotate(0)"><rect width="20" height="2" fill="#ffffd7"/><rect y="4" width="20" height="2" fill="#ffffd7"/><rect y="8" width="20" height="2" fill="#ffffd7"/><rect y="12" width="20" height="2" fill="#ffffd7"/><rect y="16" width="20" height="2" fill="#ffffd7"/></g><rect x="81.2" y="139.2" width="11.6" height="11.6" fill="#ff9ad0"/><g transform="translate(81.2,139.2) scale(0.58) rotate(0)"><rect width="20" height="2" fill="#ffffed"/><rect y="4" width="20" height="2" fill="#ffffed"/><rect y="8" width="20" height="2" fill="#ffffed"/><rect y="12" width="20" height="2" fill="#ffffed"/><rect y="16" width="20" height="2" fill="#ffffed"/></g><rect x="197.2" y="139.2" width="11.6" height="11.6" fill="#ffe2f2"/><g transform="translate(197.2,139.2) scale(0.58) rotate(0)"><rect width="2" height="20" fill="#ffffb8"/><rect x="4" width="2" height="20" fill="#ffffb8"/><rect x="8" width="2" height="20" fill="#ffffb8"/><rect x="12" width="2" height="20" fill="#ffffb8"/><rect x="16" width="2" height="20" fill="#ffffb8"/></g><rect x="371.2" y="139.2" width="11.6" height="11.6" fill="#ffff9c"/><g transform="translate(371.2,139.2) scale(0.58) rotate(0)"><rect width="2" height="20" fill="#61ffff"/><rect x="4" width="2" height="20" fill="#61ffff"/><rect x="8" width="2" height="20" fill="#61ffff"/><rect x="12" width="2" height="20" fill="#61ffff"/><rect x="16" width="2" height="20" fill="#61ffff"/></g><rect x="487.2" y="139.2" width="11.6" height="11.6" fill="#ffff70"/><g transform="translate(487.2,139.2) scale(0.58) rotate(0)"><rect width="2" height="20" fill="#ffff81"/><rect x="4" width="2" height="20" fill="#ffff81"/><rect x="8" width="2" height="20" fill="#ffff81"/><rect x="12" width="2" height="20" fill="#ffff81"/><rect x="16" width="2" height="20" fill="#ffff81"/></g><rect x="835.2" y="139.2" width="11.6" height="11.6" fill="#ffffe1"/><g transform="translate(835.2,139.2) scale(0.58) rotate(0)"><rect width="20" height="2" fill="#ffff97"/><rect y="4" width="20" height="2" fill="#ffff97"/><rect y="8" width="20" height="2" fill="#ffff97"/><rect y="12" width="20" height="2" fill="#ffff97"/><rect y="16" width="20" height="2" fill="#ffff97"/></g><rect x="197.2" y="197.2" width="11.6" height="11.6" fill="#ffffd4"/><g transform="translate(197.2,197.2) scale(0.58) rotate(0)"><rect width="2" height="20" fill="#fffff2"/><rect x="4" width="2" height="20" fill="#fffff2"/><rect x="8" width="2" height="20" fill="#fffff2"/><rect x="12" width="2" height="20" fill="#fffff2"/><rect x="16" width="2" height="20" fill="#fffff2"/></g><rect x="429.2" y="197.2" width="11.6" height="11.6" fill="#ff32a1"/><g transform="translate(429.2,197.2) scale(0.58) rotate(0)"><rect width="2" height="20" fill="#ffa9d8"/><rect x="4" width="2" height="20" fill="#ffa9d8"/><rect x="8" width="2" height="20" fill="#ffa9d8"/><rect x="12" width="2" height="20" fill="#ffa9d8"/><rect x="16" width="2" height="20" fill="#ffa9d8"/></g><rect x="545.2" y="197.2" width="11.6" height="11.6" fill="#ff73bf"/><g transform="translate(545.2,197.2) scale(0.58) rotate(0)"><rect width="2" height="20" fill="#ffffb7"/><rect x="4" width="2" height="20" fill="#ffffb7"/><rect x="8" width="2" height="20" fill="#ffffb7"/><rect x="12" width="2" height="20" fill="#ffffb7"/><rect x="16" width="2" height="20" fill="#ffffb7"/></g><rect x="603.2" y="197.2" width="11.6" height="11.6" fill="#ff299d"/><g transform="translate(603.2,197.2) scale(0.58) rotate(0)"><rect width="2" height="20" fill="#ffff94"/><rect x="4" width="2" height="20" fill="#ffff94"/><rect x="8" width="2" height="20" fill="#ffff94"/><rect x="12" width="2" height="20" fill="#ffff94"/><rect x="16" width="2" height="20" fill="#ffff94"/></g><rect x="719.2" y="197.2" width="11.6" height="11.6" fill="#ffcde8"/><g transform="translate(719.2,197.2) scale(0.58) rotate(0)"><rect width="2" height="20" fill="#53ffff"/><rect x="4" width="2" height="20" fill="#53ffff"/><rect x="8" width="2" height="20" fill="#53ffff"/><rect x="12" width="2" height="20" fill="#53ffff"/><rect x="16" width="2" height="20" fill="#53ffff"/></g><rect x="893.2" y="197.2" width="11.6" height="11.6" fill="#ffff5c"/><g transform="translate(893.2,197.2) scale(0.58) rotate(0)"><rect width="2" height="20" fill="#ffff71"/><rect x="4" width="2" height="20" fill="#ffff71"/><rect x="8" width="2" height="20" fill="#ffff71"/><rect x="12" width="2" height="20" fill="#ffff71"/><rect x="16" width="2" height="20" fill="#ffff71"/></g><rect x="197.2" y="255.2" width="11.6" height="11.6" fill="#75ffff"/><g transform="translate(197.2,255.2) scale(0.58) rotate(0)"><rect width="2" height="20" fill="#ffff6a"/><rect x="4" width="2" height="20" fill="#ffff6a"/><rect x="8" width="2" height="20" fill="#ffff6a"/><rect x="12" width="2" height="20" fill="#ffff6a"/><rect x="16" width="2" height="20" fill="#ffff6a"/></g><rect x="429.2" y="255.2" width="11.6" height="11.6" fill="#4bffff"/><g transform="translate(429.2,255.2) scale(0.58) rotate(0)"><rect width="20" height="2" fill="#ffffae"/><rect y="4" width="20" height="2" fill="#ffffae"/><rect y="8" width="20" height="2" fill="#ffffae"/><rect y="12" width="20" height="2" fill="#ffffae"/><rect y="16" width="20" height="2" fill="#ffffae"/></g><rect x="487.2" y="255.2" width="11.6" height="11.6" fill="#ffd4eb"/><g transform="translate(487.2,255.2) scale(0.58) rotate(0)"><rect width="2" height="20" fill="#ffff4b"/><rect x="4" width="2" height="20" fill="#ffff4b"/><rect x="8" width="2" height="20" fill="#ffff4b"/><rect x="12" width="2" height="20" fill="#ffff4b"/><rect x="16" width="2" height="20" fill="#ffff4b"/></g><rect x="545.2" y="255.2" width="11.6" height="11.6" fill="#ffffe7"/><g transform="translate(545.2,255.2) scale(0.58) rotate(0)"><rect width="2" height="20" fill="#21ffff"/><rect x="4" width="2" height="20" fill="#21ffff"/><rect x="8" width="2" height="20" fill="#21ffff"/><rect x="12" width="2" height="20" fill="#21ffff"/><rect x="16" width="2" height="20" fill="#21ffff"/></g><rect x="719.2" y="255.2" width="11.6" height="11.6" fill="#ffff89"/><g transform="translate(719.2,255.2) scale(0.58) rotate(0)"><rect width="20" height="2" fill="#ffff41"/><rect y="4" width="20" height="2" fill="#ffff41"/><rect y="8" width="20" height="2" fill="#ffff41"/><rect y="12" width="20" height="2" fill="#ffff41"/><rect y="16" width="20" height="2" fill="#ffff41"/></g><rect x="255.2" y="313.2" width="11.6" height="11.6" fill="#ff3aa4"/><g transform="translate(255.2,313.2) scale(0.58) rotate(0)"><rect width="20" height="2" fill="#ffffd0"/><rect y="4" width="20" height="2" fill="#ffffd0"/><rect y="8" width="20" height="2" fill="#ffffd0"/><rect y="12" width="20" height="2" fill="#ffffd0"/><rect y="16" width="20" height="2" fill="#ffffd0"/></g><rect x="371.2" y="313.2" width="11.6" height="11.6" fill="#b7ffff"/><g transform="translate(371.2,313.2) scale(0.58) rotate(0)"><rect width="2" height="20" fill="#83ffff"/><rect x="4" width="2" height="20" fill="#83ffff"/><rect x="8" width="2" height="20" fill="#83ffff"/><rect x="12" width="2" height="20" fill="#83ffff"/><rect x="16" width="2" height="20" fill="#83ffff"/></g><rect x="429.2" y="313.2" width="11.6" height="11.6" fill="#ffffe0"/><g transform="translate(429.2,313.2) scale(0.58) rotate(0)"><rect width="20" height="2" fill="#daffff"/><rect y="4" width="20" height="2" fill="#daffff"/><rect y="8" width="20" height="2" fill="#daffff"/><rect y="12" width="20" height="2" fill="#daffff"/><rect y="16" width="20" height="2" fill="#daffff"/></g><rect x="81.2" y="371.2" width="11.6" height="11.6" fill="#ff7cc3"/><g transform="translate(81.2,371.2) scale(0.58) rotate(0)"><rect width="2" height="20" fill="#ffff46"/><rect x="4" width="2" height="20" fill="#ffff46"/><rect x="8" width="2" height="20" fill="#ffff46"/><rect x="12" width="2" height="20" fill="#ffff46"/><rect x="16" width="2" height="20" fill="#ffff46"/></g><rect x="429.2" y="371.2" width="11.6" height="11.6" fill="#ffe2f2"/><g transform="translate(429.2,371.2) scale(0.58) rotate(0)"><rect width="2" height="20" fill="#ffff62"/><rect x="4" width="2" height="20" fill="#ffff62"/><rect x="8" width="2" height="20" fill="#ffff62"/><rect x="12" width="2" height="20" fill="#ffff62"/><rect x="16" width="2" height="20" fill="#ffff62"/></g><rect x="661.2" y="371.2" width="11.6" height="11.6" fill="#ff47ab"/><g transform="translate(661.2,371.2) scale(0.58) rotate(0)"><rect width="20" height="2" fill="#ffffd4"/><rect y="4" width="20" height="2" fill="#ffffd4"/><rect y="8" width="20" height="2" fill="#ffffd4"/><rect y="12" width="20" height="2" fill="#ffffd4"/><rect y="16" width="20" height="2" fill="#ffffd4"/></g><rect x="23.2" y="429.2" width="11.6" height="11.6" fill="#c2ffff"/><g transform="translate(23.2,429.2) scale(0.58) rotate(0)"><rect width="20" height="2" fill="#64ffff"/><rect y="4" width="20" height="2" fill="#64ffff"/><rect y="8" width="20" height="2" fill="#64ffff"/><rect y="12" width="20" height="2" fill="#64ffff"/><rect y="16" width="20" height="2" fill="#64ffff"/></g><rect x="197.2" y="429.2" width="11.6" height="11.6" fill="#ffffc1"/><g transform="translate(197.2,429.2) scale(0.58) rotate(0)"><rect width="2" height="20" fill="#ffffd4"/><rect x="4" width="2" height="20" fill="#ffffd4"/><rect x="8" width="2" height="20" fill="#ffffd4"/><rect x="12" width="2" height="20" fill="#ffffd4"/><rect x="16" width="2" height="20" fill="#ffffd4"/></g><rect x="429.2" y="429.2" width="11.6" height="11.6" fill="#ff1c97"/><g transform="translate(429.2,429.2) scale(0.58) rotate(0)"><rect width="20" height="2" fill="#84ffff"/><rect y="4" width="20" height="2" fill="#84ffff"/><rect y="8" width="20" height="2" fill="#84ffff"/><rect y="12" width="20" height="2" fill="#84ffff"/><rect y="16" width="20" height="2" fill="#84ffff"/></g><rect x="23.2" y="487.2" width="11.6" height="11.6" fill="#deffff"/><g transform="translate(23.2,487.2) scale(0.58) rotate(0)"><rect width="20" height="2" fill="#6dffff"/><rect y="4" width="20" height="2" fill="#6dffff"/><rect y="8" width="20" height="2" fill="#6dffff"/><rect y="12" width="20" height="2" fill="#6dffff"/><rect y="16" width="20" height="2" fill="#6dffff"/></g><rect x="139.2" y="487.2" width="11.6" height="11.6" fill="#ffff97"/><g transform="translate(139.2,487.2) scale(0.58) rotate(0)"><rect width="20" height="2" fill="#ffffd7"/><rect y="4" width="20" height="2" fill="#ffffd7"/><rect y="8" width="20" height="2" fill="#ffffd7"/><rect y="12" width="20" height="2" fill="#ffffd7"/><rect y="16" width="20" height="2" fill="#ffffd7"/></g><rect x="487.2" y="487.2" width="11.6" height="11.6" fill="#ffe4f3"/><g transform="translate(487.2,487.2) scale(0.58) rotate(0)"><rect width="20" height="2" fill="#ff4eae"/><rect y="4" width="20" height="2" fill="#ff4eae"/><rect y="8" width="20" height="2" fill="#ff4eae"/><rect y="12" width="20" height="2" fill="#ff4eae"/><rect y="16" width="20" height="2" fill="#ff4eae"/></g><rect x="603.2" y="487.2" width="11.6" height="11.6" fill="#ff39a4"/><g transform="translate(603.2,487.2) scale(0.58) rotate(0)"><rect width="2" height="20" fill="#fff1f9"/><rect x="4" width="2" height="20" fill="#fff1f9"/><rect x="8" width="2" height="20" fill="#fff1f9"/><rect x="12" width="2" height="20" fill="#fff1f9"/><rect x="16" width="2" height="20" fill="#fff1f9"/></g><rect x="719.2" y="487.2" width="11.6" height="11.6" fill="#fff2f9"/><g transform="translate(719.2,487.2) scale(0.58) rotate(0)"><rect width="20" height="2" fill="#abffff"/><rect y="4" width="20" height="2" fill="#abffff"/><rect y="8" width="20" height="2" fill="#abffff"/><rect y="12" width="20" height="2" fill="#abffff"/><rect y="16" width="20" height="2" fill="#abffff"/></g><rect x="777.2" y="487.2" width="11.6" height="11.6" fill="#ff299d"/><g transform="translate(777.2,487.2) scale(0.58) rotate(0)"><rect width="20" height="2" fill="#acffff"/><rect y="4" width="20" height="2" fill="#acffff"/><rect y="8" width="20" height="2" fill="#acffff"/><rect y="12" width="20" height="2" fill="#acffff"/><rect y="16" width="20" height="2" fill="#acffff"/></g><rect x="835.2" y="487.2" width="11.6" height="11.6" fill="#ffffe0"/><g transform="translate(835.2,487.2) scale(0.58) rotate(0)"><rect width="20" height="2" fill="#ffffcb"/><rect y="4" width="20" height="2" fill="#ffffcb"/><rect y="8" width="20" height="2" fill="#ffffcb"/><rect y="12" width="20" height="2" fill="#ffffcb"/><rect y="16" width="20" height="2" fill="#ffffcb"/></g><rect x="23.2" y="545.2" width="11.6" height="11.6" fill="#fffffa"/><g transform="translate(23.2,545.2) scale(0.58) rotate(0)"><rect width="2" height="20" fill="#ffff87"/><rect x="4" width="2" height="20" fill="#ffff87"/><rect x="8" width="2" height="20" fill="#ffff87"/><rect x="12" width="2" height="20" fill="#ffff87"/><rect x="16" width="2" height="20" fill="#ffff87"/></g><rect x="81.2" y="545.2" width="11.6" height="11.6" fill="#ff7cc3"/><g transform="translate(81.2,545.2) scale(0.58) rotate(0)"><rect width="20" height="2" fill="#ff2c9e"/><rect y="4" width="20" height="2" fill="#ff2c9e"/><rect y="8" width="20" height="2" fill="#ff2c9e"/><rect y="12" width="20" height="2" fill="#ff2c9e"/><rect y="16" width="20" height="2" fill="#ff2c9e"/></g><rect x="139.2" y="545.2" width="11.6" height="11.6" fill="#ff9dd2"/><g transform="translate(139.2,545.2) scale(0.58) rotate(0)"><rect width="20" height="2" fill="#ffffe9"/><rect y="4" width="20" height="2" fill="#ffffe9"/><rect y="8" width="20" height="2" fill="#ffffe9"/><rect y="12" width="20" height="2" fill="#ffffe9"/><rect y="16" width="20" height="2" fill="#ffffe9"/></g><rect x="197.2" y="545.2" width="11.6" height="11.6" fill="#ffa5d6"/><g transform="translate(197.2,545.2) scale(0.58) rotate(0)"><rect width="2" height="20" fill="#27ffff"/><rect x="4" width="2" height="20" fill="#27ffff"/><rect x="8" width="2" height="20" fill="#27ffff"/><rect x="12" width="2" height="20" fill="#27ffff"/><rect x="16" width="2" height="20" fill="#27ffff"/></g><rect x="429.2" y="545.2" width="11.6" height="11.6" fill="#b7ffff"/><g transform="translate(429.2,545.2) scale(0.58) rotate(0)"><rect width="2" height="20" fill="#6bffff"/><rect x="4" width="2" height="20" fill="#6bffff"/><rect x="8" width="2" height="20" fill="#6bffff"/><rect x="12" width="2" height="20" fill="#6bffff"/><rect x="16" width="2" height="20" fill="#6bffff"/></g><rect x="719.2" y="545.2" width="11.6" height="11.6" fill="#a8ffff"/><g transform="translate(719.2,545.2) scale(0.58) rotate(0)"><rect width="20" height="2" fill="#ffb3dc"/><rect y="4" width="20" height="2" fill="#ffb3dc"/><rect y="8" width="20" height="2" fill="#ffb3dc"/><rect y="12" width="20" height="2" fill="#ffb3dc"/><rect y="16" width="20" height="2" fill="#ffb3dc"/></g><rect x="23.2" y="603.2" width="11.6" height="11.6" fill="#ffff90"/><g transform="translate(23.2,603.2) scale(0.58) rotate(0)"><rect width="2" height="20" fill="#ffe3f2"/><rect x="4" width="2" height="20" fill="#ffe3f2"/><rect x="8" width="2" height="20" fill="#ffe3f2"/><rect x="12" width="2" height="20" fill="#ffe3f2"/><rect x="16" width="2" height="20" fill="#ffe3f2"/></g><rect x="139.2" y="603.2" width="11.6" height="11.6" fill="#5dffff"/><g transform="translate(139.2,603.2) scale(0.58) rotate(0)"><rect width="2" height="20" fill="#ffff48"/><rect x="4" width="2" height="20" fill="#ffff48"/><rect x="8" width="2" height="20" fill="#ffff48"/><rect x="12" width="2" height="20" fill="#ffff48"/><rect x="16" width="2" height="20" fill="#ffff48"/></g><rect x="545.2" y="603.2" width="11.6" height="11.6" fill="#fff3f9"/><g transform="translate(545.2,603.2) scale(0.58) rotate(0)"><rect width="20" height="2" fill="#acffff"/><rect y="4" width="20" height="2" fill="#acffff"/><rect y="8" width="20" height="2" fill="#acffff"/><rect y="12" width="20" height="2" fill="#acffff"/><rect y="16" width="20" height="2" fill="#acffff"/></g><rect x="603.2" y="603.2" width="11.6" height="11.6" fill="#ffffe3"/><g transform="translate(603.2,603.2) scale(0.58) rotate(0)"><rect width="2" height="20" fill="#ffd4eb"/><rect x="4" width="2" height="20" fill="#ffd4eb"/><rect x="8" width="2" height="20" fill="#ffd4eb"/><rect x="12" width="2" height="20" fill="#ffd4eb"/><rect x="16" width="2" height="20" fill="#ffd4eb"/></g><rect x="661.2" y="603.2" width="11.6" height="11.6" fill="#bbffff"/><g transform="translate(661.2,603.2) scale(0.58) rotate(0)"><rect width="20" height="2" fill="#c9ffff"/><rect y="4" width="20" height="2" fill="#c9ffff"/><rect y="8" width="20" height="2" fill="#c9ffff"/><rect y="12" width="20" height="2" fill="#c9ffff"/><rect y="16" width="20" height="2" fill="#c9ffff"/></g><rect x="777.2" y="603.2" width="11.6" height="11.6" fill="#ffffb4"/><g transform="translate(777.2,603.2) scale(0.58) rotate(0)"><rect width="2" height="20" fill="#4affff"/><rect x="4" width="2" height="20" fill="#4affff"/><rect x="8" width="2" height="20" fill="#4affff"/><rect x="12" width="2" height="20" fill="#4affff"/><rect x="16" width="2" height="20" fill="#4affff"/></g><rect x="81.2" y="661.2" width="11.6" height="11.6" fill="#ffff81"/><g transform="translate(81.2,661.2) scale(0.58) rotate(0)"><rect width="20" height="2" fill="#ffedf7"/><rect y="4" width="20" height="2" fill="#ffedf7"/><rect y="8" width="20" height="2" fill="#ffedf7"/><rect y="12" width="20" height="2" fill="#ffedf7"/><rect y="16" width="20" height="2" fill="#ffedf7"/></g><rect x="255.2" y="661.2" width="11.6" height="11.6" fill="#88ffff"/><g transform="translate(255.2,661.2) scale(0.58) rotate(0)"><rect width="20" height="2" fill="#ff59b3"/><rect y="4" width="20" height="2" fill="#ff59b3"/><rect y="8" width="20" height="2" fill="#ff59b3"/><rect y="12" width="20" height="2" fill="#ff59b3"/><rect y="16" width="20" height="2" fill="#ff59b3"/></g><rect x="545.2" y="661.2" width="11.6" height="11.6" fill="#ffff99"/><g transform="translate(545.2,661.2) scale(0.58) rotate(0)"><rect width="20" height="2" fill="#ffa5d6"/><rect y="4" width="20" height="2" fill="#ffa5d6"/><rect y="8" width="20" height="2" fill="#ffa5d6"/><rect y="12" width="20" height="2" fill="#ffa5d6"/><rect y="16" width="20" height="2" fill="#ffa5d6"/></g></g></svg>