<?xml version="1.0" standalone="no"?><svg xmlns:xlink="http://www.w3.org/1999/xlink" xmlns="http://www.w3.org/2000/svg" viewBox="0 0 1900 1900" preserveAspectRatio="xMaxYMax slice"><g transform="scale(2.7298850574712645)"><rect x="0" y="0" width="696" height="696" fill="#ffffff"/><rect x="83.52" y="13.92" width="6.959999999999997" height="6.959999999999997" fill="#ffffff"/><rect x="118.32" y="13.92" width="6.959999999999997" height="6.959999999999997" fill="#ffffff"/><g transform="translate(118.32,13.92) scale(0.174) rotate(0)"><path d="M10 5L5 0L0 5L5 10L0 15L5 20L10 15L15 20L20 15L15 10L20 5L15 0L10 5Z" fill="#ff2098"/></g><rect x="187.92" y="13.92" width="6.959999999999997" height="6.959999999999997" fill="#ffffff"/><rect x="292.32" y="13.92" width="6.959999999999997" height="6.959999999999997" fill="#ffffff"/><g transform="translate(292.32,13.92) scale(0.174) rotate(0)"><path d="M10 5L5 0L0 5L5 10L0 15L5 20L10 15L15 20L20 15L15 10L20 5L15 0L10 5Z" fill="#ffff95"/></g><g transform="translate(295.8,13.92) scale(0.174) rotate(0)"><path d="M10 5L5 0L0 5L5 10L0 15L5 20L10 15L15 20L20 15L15 10L20 5L15 0L10 5Z" fill="#ffff86"/></g><g transform="translate(292.32,17.4) scale(0.174) rotate(0)"><path d="M10 5L5 0L0 5L5 10L0 15L5 20L10 15L15 20L20 15L15 10L20 5L15 0L10 5Z" fill="#ff39a4"/></g><rect x="361.92" y="13.92" width="6.959999999999997" height="6.959999999999997" fill="#ffffff"/><g transform="translate(361.92,13.92) scale(0.174) rotate(0)"><path d="M10 5L5 0L0 5L5 10L0 15L5 20L10 15L15 20L20 15L15 10L20 5L15 0L10 5Z" fill="#ffeff8"/></g><g transform="translate(361.92,17.4) scale(0.174) rotate(0)"><path d="M10 5L5 0L0 5L5 10L0 15L5 20L10 15L15 20L20 15L15 10L20 5L15 0L10 5Z" fill="#ff9fd3"/></g><rect x="396.71999999999997" y="13.92" width="6.959999999999997" height="6.959999999999997" fill="#ffffff"/><g transform="translate(396.72,17.4) scale(0.174) rotate(0)"><path d="M10 5L5 0L0 5L5 10L0 15L5 20L10 15L15 20L20 15L15 10L20 5L15 0L10 5Z" fill="#ffc4e4"/></g><rect x="431.52" y="13.92" width="6.959999999999997" height="6.959999999999997" fill="#ffffff"/><g transform="translate(435,13.92) scale(0.174) rotate(0)"><path d="M10 5L5 0L0 5L5 10L0 15L5 20L10 15L15 20L20 15L15 10L20 5L15 0L10 5Z" fill="#1bffff"/></g><rect x="640.3199999999999" y="13.92" width="6.959999999999997" height="6.959999999999997" fill="#ffffff"/><g transform="translate(643.8,17.4) scale(0.174) rotate(0)"><path d="M10 5L5 0L0 5L5 10L0 15L5 20L10 15L15 20L20 15L15 10L20 5L15 0L10 5Z" fill="#ffff79"/></g><rect x="48.519552" y="48.519552" width="7.360895999999997" height="7.360895999999997" fill="#ffffff"/><rect x="117.718656" y="48.118655999999994" width="8.162688" height="8.162688" fill="#ffffff"/><g transform="translate(117.72,48.12) scale(0.20400000000000001) rotate(0)"><path d="M10 5L5 0L0 5L5 10L0 15L5 20L10 15L15 20L20 15L15 10L20 5L15 0L10 5Z" fill="#ff6cbc"/></g><rect x="152.318208" y="47.91820799999999" width="8.563583999999999" height="8.563583999999999" fill="#ffffff"/><g transform="translate(152.32,47.92) scale(0.21400000000000002) rotate(0)"><path d="M10 5L5 0L0 5L5 10L0 15L5 20L10 15L15 20L20 15L15 10L20 5L15 0L10 5Z" fill="#1effff"/></g><g transform="translate(152.32,52.2) scale(0.21400000000000002) rotate(0)"><path d="M10 5L5 0L0 5L5 10L0 15L5 20L10 15L15 20L20 15L15 10L20 5L15 0L10 5Z" fill="#ff1e98"/></g><rect x="221.51731199999998" y="47.517312" width="9.365375999999998" height="9.365375999999998" fill="#ffffff"/><g transform="translate(221.52,47.52) scale(0.23399999999999999) rotate(0)"><path d="M10 5L5 0L0 5L5 10L0 15L5 20L10 15L15 20L20 15L15 10L20 5L15 0L10 5Z" fill="#ff68ba"/></g><g transform="translate(226.2,52.2) scale(0.23399999999999999) rotate(0)"><path d="M10 5L5 0L0 5L5 10L0 15L5 20L10 15L15 20L20 15L15 10L20 5L15 0L10 5Z" fill="#ff95ce"/></g><rect x="325.4496" y="47.0496" width="10.300799999999995" height="10.300799999999995" fill="#ffffff"/><rect x="395.04959999999994" y="47.0496" width="10.300799999999995" height="10.300799999999995" fill="#ffffff"/><rect x="499.9173119999999" y="47.517312" width="9.365375999999998" height="9.365375999999998" fill="#ffffff"/><g transform="translate(499.92,52.2) scale(0.23399999999999999) rotate(0)"><path d="M10 5L5 0L0 5L5 10L0 15L5 20L10 15L15 20L20 15L15 10L20 5L15 0L10 5Z" fill="#e2ffff"/></g><rect x="604.9186559999999" y="48.118655999999994" width="8.162688" height="8.162688" fill="#ffffff"/><g transform="translate(604.92,48.12) scale(0.20400000000000001) rotate(0)"><path d="M10 5L5 0L0 5L5 10L0 15L5 20L10 15L15 20L20 15L15 10L20 5L15 0L10 5Z" fill="#eeffff"/></g><g transform="translate(609,48.12) scale(0.20400000000000001) rotate(0)"><path d="M10 5L5 0L0 5L5 10L0 15L5 20L10 15L15 20L20 15L15 10L20 5L15 0L10 5Z" fill="#17ffff"/></g><rect x="674.919552" y="48.519552" width="7.360895999999997" height="7.360895999999997" fill="#ffffff"/><rect x="13.92" y="83.52" width="6.959999999999997" height="6.959999999999997" fill="#ffffff"/><g transform="translate(17.4,83.52) scale(0.174) rotate(0)"><path d="M10 5L5 0L0 5L5 10L0 15L5 20L10 15L15 20L20 15L15 10L20 5L15 0L10 5Z" fill="#ff249a"/></g><rect x="82.71820799999999" y="82.71820799999999" width="8.563583999999999" height="8.563583999999999" fill="#ffffff"/><g transform="translate(87,82.72) scale(0.21400000000000002) rotate(0)"><path d="M10 5L5 0L0 5L5 10L0 15L5 20L10 15L15 20L20 15L15 10L20 5L15 0L10 5Z" fill="#ffc0e2"/></g><g transform="translate(82.72,87) scale(0.21400000000000002) rotate(0)"><path d="M10 5L5 0L0 5L5 10L0 15L5 20L10 15L15 20L20 15L15 10L20 5L15 0L10 5Z" fill="#ffafda"/></g><g transform="translate(87,87) scale(0.21400000000000002) rotate(0)"><path d="M10 5L5 0L0 5L5 10L0 15L5 20L10 15L15 20L20 15L15 10L20 5L15 0L10 5Z" fill="#ffffd6"/></g><rect x="117.117312" y="82.31731199999999" width="9.365375999999998" height="9.365375999999998" fill="#ffffff"/><g transform="translate(117.12,82.32) scale(0.23399999999999999) rotate(0)"><path d="M10 5L5 0L0 5L5 10L0 15L5 20L10 15L15 20L20 15L15 10L20 5L15 0L10 5Z" fill="#0affff"/></g><g transform="translate(121.8,82.32) scale(0.23399999999999999) rotate(0)"><path d="M10 5L5 0L0 5L5 10L0 15L5 20L10 15L15 20L20 15L15 10L20 5L15 0L10 5Z" fill="#28ffff"/></g><g transform="translate(117.12,87) scale(0.23399999999999999) rotate(0)"><path d="M10 5L5 0L0 5L5 10L0 15L5 20L10 15L15 20L20 15L15 10L20 5L15 0L10 5Z" fill="#ecffff"/></g><g transform="translate(121.8,87) scale(0.23399999999999999) rotate(0)"><path d="M10 5L5 0L0 5L5 10L0 15L5 20L10 15L15 20L20 15L15 10L20 5L15 0L10 5Z" fill="#5bffff"/></g><rect x="185.91552000000001" y="81.51552" width="10.968959999999996" height="10.968959999999996" fill="#ffffff"/><g transform="translate(191.4,81.52) scale(0.274) rotate(0)"><path d="M10 5L5 0L0 5L5 10L0 15L5 20L10 15L15 20L20 15L15 10L20 5L15 0L10 5Z" fill="#fff3f9"/></g><rect x="220.31462399999998" y="81.11462399999999" width="11.770751999999995" height="11.770751999999995" fill="#ffffff"/><g transform="translate(226.2,81.11) scale(0.2945) rotate(0)"><path d="M10 5L5 0L0 5L5 10L0 15L5 20L10 15L15 20L20 15L15 10L20 5L15 0L10 5Z" fill="#ff47aa"/></g><rect x="289.11283199999997" y="80.312832" width="13.374335999999996" height="13.374335999999996" fill="#ffffff"/><g transform="translate(295.8,87) scale(0.3345) rotate(0)"><path d="M10 5L5 0L0 5L5 10L0 15L5 20L10 15L15 20L20 15L15 10L20 5L15 0L10 5Z" fill="#fffff4"/></g><rect x="463.51372799999996" y="80.713728" width="12.572543999999994" height="12.572543999999994" fill="#ffffff"/><g transform="translate(463.51,80.71) scale(0.3145) rotate(0)"><path d="M10 5L5 0L0 5L5 10L0 15L5 20L10 15L15 20L20 15L15 10L20 5L15 0L10 5Z" fill="#ffa3d5"/></g><rect x="569.116416" y="81.916416" width="10.167167999999997" height="10.167167999999997" fill="#ffffff"/><g transform="translate(569.12,87) scale(0.254) rotate(0)"><path d="M10 5L5 0L0 5L5 10L0 15L5 20L10 15L15 20L20 15L15 10L20 5L15 0L10 5Z" fill="#ffff52"/></g><rect x="604.3173119999999" y="82.31731199999999" width="9.365375999999998" height="9.365375999999998" fill="#ffffff"/><g transform="translate(604.32,82.32) scale(0.23399999999999999) rotate(0)"><path d="M10 5L5 0L0 5L5 10L0 15L5 20L10 15L15 20L20 15L15 10L20 5L15 0L10 5Z" fill="#ff249a"/></g><rect x="639.518208" y="82.71820799999999" width="8.563583999999999" height="8.563583999999999" fill="#ffffff"/><rect x="674.7191039999999" y="83.119104" width="7.761792" height="7.761792" fill="#ffffff"/><g transform="translate(674.72,83.12) scale(0.194) rotate(0)"><path d="M10 5L5 0L0 5L5 10L0 15L5 20L10 15L15 20L20 15L15 10L20 5L15 0L10 5Z" fill="#7dffff"/></g><g transform="translate(678.6,83.12) scale(0.194) rotate(0)"><path d="M10 5L5 0L0 5L5 10L0 15L5 20L10 15L15 20L20 15L15 10L20 5L15 0L10 5Z" fill="#ff5db5"/></g><rect x="48.118655999999994" y="117.718656" width="8.162688" height="8.162688" fill="#ffffff"/><g transform="translate(52.2,117.72) scale(0.20400000000000001) rotate(0)"><path d="M10 5L5 0L0 5L5 10L0 15L5 20L10 15L15 20L20 15L15 10L20 5L15 0L10 5Z" fill="#0affff"/></g><rect x="219.111936" y="114.711936" width="14.176127999999999" height="14.176127999999999" fill="#ffffff"/><rect x="253.31059199999996" y="114.110592" width="15.378815999999997" height="15.378815999999997" fill="#ffffff"/><g transform="translate(253.31,114.11) scale(0.3845) rotate(0)"><path d="M10 5L5 0L0 5L5 10L0 15L5 20L10 15L15 20L20 15L15 10L20 5L15 0L10 5Z" fill="#ffff8a"/></g><rect x="287.50924799999996" y="113.50924799999999" width="16.581504" height="16.581504" fill="#ffffff"/><g transform="translate(295.8,113.51) scale(0.4145) rotate(0)"><path d="M10 5L5 0L0 5L5 10L0 15L5 20L10 15L15 20L20 15L15 10L20 5L15 0L10 5Z" fill="#6effff"/></g><rect x="322.1088" y="113.30879999999999" width="16.9824" height="16.9824" fill="#ffffff"/><rect x="391.70879999999994" y="113.30879999999999" width="16.9824" height="16.9824" fill="#ffffff"/><g transform="translate(400.2,113.31) scale(0.4245) rotate(0)"><path d="M10 5L5 0L0 5L5 10L0 15L5 20L10 15L15 20L20 15L15 10L20 5L15 0L10 5Z" fill="#ff1694"/></g><g transform="translate(391.71,121.8) scale(0.4245) rotate(0)"><path d="M10 5L5 0L0 5L5 10L0 15L5 20L10 15L15 20L20 15L15 10L20 5L15 0L10 5Z" fill="#fcffff"/></g><rect x="674.518656" y="117.718656" width="8.162688" height="8.162688" fill="#ffffff"/><g transform="translate(674.52,117.72) scale(0.20400000000000001) rotate(0)"><path d="M10 5L5 0L0 5L5 10L0 15L5 20L10 15L15 20L20 15L15 10L20 5L15 0L10 5Z" fill="#ffaeda"/></g><g transform="translate(674.52,121.8) scale(0.20400000000000001) rotate(0)"><path d="M10 5L5 0L0 5L5 10L0 15L5 20L10 15L15 20L20 15L15 10L20 5L15 0L10 5Z" fill="#eaffff"/></g><rect x="81.916416" y="151.516416" width="10.167167999999997" height="10.167167999999997" fill="#ffffff"/><g transform="translate(81.92,156.6) scale(0.254) rotate(0)"><path d="M10 5L5 0L0 5L5 10L0 15L5 20L10 15L15 20L20 15L15 10L20 5L15 0L10 5Z" fill="#ff40a7"/></g><rect x="251.90745599999997" y="147.507456" width="18.185087999999997" height="18.185087999999997" fill="#ffffff"/><rect x="285.905664" y="146.70566399999998" width="19.788672" height="19.788672" fill="#ffffff"/><g transform="translate(285.91,146.71) scale(0.49450000000000005) rotate(0)"><path d="M10 5L5 0L0 5L5 10L0 15L5 20L10 15L15 20L20 15L15 10L20 5L15 0L10 5Z" fill="#92ffff"/></g><rect x="320.4384" y="146.4384" width="20.323199999999996" height="20.323199999999996" fill="#ffffff"/><g transform="translate(320.44,156.6) scale(0.508) rotate(0)"><path d="M10 5L5 0L0 5L5 10L0 15L5 20L10 15L15 20L20 15L15 10L20 5L15 0L10 5Z" fill="#ff5eb5"/></g><rect x="355.2384" y="146.4384" width="20.323199999999996" height="20.323199999999996" fill="#ffffff"/><g transform="translate(355.24,146.44) scale(0.508) rotate(0)"><path d="M10 5L5 0L0 5L5 10L0 15L5 20L10 15L15 20L20 15L15 10L20 5L15 0L10 5Z" fill="#ffff7f"/></g><rect x="390.03839999999997" y="146.4384" width="20.323199999999996" height="20.323199999999996" fill="#ffffff"/><rect x="603.1146239999999" y="150.714624" width="11.770751999999998" height="11.770751999999998" fill="#ffffff"/><g transform="translate(609,150.71) scale(0.2945) rotate(0)"><path d="M10 5L5 0L0 5L5 10L0 15L5 20L10 15L15 20L20 15L15 10L20 5L15 0L10 5Z" fill="#ffff4b"/></g><rect x="47.71776" y="186.91776" width="8.964479999999998" height="8.964479999999998" fill="#ffffff"/><g transform="translate(47.72,191.4) scale(0.22400000000000003) rotate(0)"><path d="M10 5L5 0L0 5L5 10L0 15L5 20L10 15L15 20L20 15L15 10L20 5L15 0L10 5Z" fill="#b4ffff"/></g><rect x="81.51552" y="185.91552000000001" width="10.968959999999996" height="10.968959999999996" fill="#ffffff"/><g transform="translate(81.52,185.92) scale(0.274) rotate(0)"><path d="M10 5L5 0L0 5L5 10L0 15L5 20L10 15L15 20L20 15L15 10L20 5L15 0L10 5Z" fill="#ffff7c"/></g><rect x="115.31327999999999" y="184.91328" width="12.973439999999997" height="12.973439999999997" fill="#ffffff"/><g transform="translate(115.31,184.91) scale(0.3245) rotate(0)"><path d="M10 5L5 0L0 5L5 10L0 15L5 20L10 15L15 20L20 15L15 10L20 5L15 0L10 5Z" fill="#ffff8f"/></g><g transform="translate(121.8,184.91) scale(0.3245) rotate(0)"><path d="M10 5L5 0L0 5L5 10L0 15L5 20L10 15L15 20L20 15L15 10L20 5L15 0L10 5Z" fill="#ffffa4"/></g><rect x="182.90879999999999" y="182.90879999999999" width="16.9824" height="16.9824" fill="#ffffff"/><rect x="216.70655999999997" y="181.90656" width="18.98688" height="18.98688" fill="#ffffff"/><g transform="translate(216.71,191.4) scale(0.47450000000000003) rotate(0)"><path d="M10 5L5 0L0 5L5 10L0 15L5 20L10 15L15 20L20 15L15 10L20 5L15 0L10 5Z" fill="#ffaeda"/></g><g transform="translate(226.2,191.4) scale(0.47450000000000003) rotate(0)"><path d="M10 5L5 0L0 5L5 10L0 15L5 20L10 15L15 20L20 15L15 10L20 5L15 0L10 5Z" fill="#e9ffff"/></g><rect x="318.768" y="179.568" width="23.663999999999998" height="23.663999999999998" fill="#ffffff"/><rect x="459.30431999999996" y="180.90432" width="20.991359999999997" height="20.991359999999997" fill="#ffffff"/><g transform="translate(459.3,180.9) scale(0.525) rotate(0)"><path d="M10 5L5 0L0 5L5 10L0 15L5 20L10 15L15 20L20 15L15 10L20 5L15 0L10 5Z" fill="#56ffff"/></g><g transform="translate(459.3,191.4) scale(0.525) rotate(0)"><path d="M10 5L5 0L0 5L5 10L0 15L5 20L10 15L15 20L20 15L15 10L20 5L15 0L10 5Z" fill="#97ffff"/></g><g transform="translate(469.8,191.4) scale(0.525) rotate(0)"><path d="M10 5L5 0L0 5L5 10L0 15L5 20L10 15L15 20L20 15L15 10L20 5L15 0L10 5Z" fill="#73ffff"/></g><rect x="530.9088" y="182.90879999999999" width="16.9824" height="16.9824" fill="#ffffff"/><g transform="translate(530.91,182.91) scale(0.4245) rotate(0)"><path d="M10 5L5 0L0 5L5 10L0 15L5 20L10 15L15 20L20 15L15 10L20 5L15 0L10 5Z" fill="#15ffff"/></g><rect x="674.11776" y="186.91776" width="8.964479999999998" height="8.964479999999998" fill="#ffffff"/><rect x="13.92" y="222.71999999999997" width="6.959999999999997" height="6.959999999999997" fill="#ffffff"/><g transform="translate(13.92,222.72) scale(0.174) rotate(0)"><path d="M10 5L5 0L0 5L5 10L0 15L5 20L10 15L15 20L20 15L15 10L20 5L15 0L10 5Z" fill="#ffffd3"/></g><g transform="translate(17.4,222.72) scale(0.174) rotate(0)"><path d="M10 5L5 0L0 5L5 10L0 15L5 20L10 15L15 20L20 15L15 10L20 5L15 0L10 5Z" fill="#ff3ea6"/></g><g transform="translate(13.92,226.2) scale(0.174) rotate(0)"><path d="M10 5L5 0L0 5L5 10L0 15L5 20L10 15L15 20L20 15L15 10L20 5L15 0L10 5Z" fill="#eaffff"/></g><rect x="47.517312" y="221.51731199999998" width="9.365375999999998" height="9.365375999999998" fill="#ffffff"/><g transform="translate(52.2,221.52) scale(0.23399999999999999) rotate(0)"><path d="M10 5L5 0L0 5L5 10L0 15L5 20L10 15L15 20L20 15L15 10L20 5L15 0L10 5Z" fill="#ffc7e5"/></g><rect x="249.10118399999996" y="214.30118399999998" width="23.797632" height="23.797632" fill="#ffffff"/><g transform="translate(261,214.3) scale(0.595) rotate(0)"><path d="M10 5L5 0L0 5L5 10L0 15L5 20L10 15L15 20L20 15L15 10L20 5L15 0L10 5Z" fill="#65ffff"/></g><rect x="637.914624" y="220.31462399999998" width="11.770751999999995" height="11.770751999999995" fill="#ffffff"/><g transform="translate(643.8,220.31) scale(0.2945) rotate(0)"><path d="M10 5L5 0L0 5L5 10L0 15L5 20L10 15L15 20L20 15L15 10L20 5L15 0L10 5Z" fill="#fff0f8"/></g><g transform="translate(637.91,226.2) scale(0.2945) rotate(0)"><path d="M10 5L5 0L0 5L5 10L0 15L5 20L10 15L15 20L20 15L15 10L20 5L15 0L10 5Z" fill="#ffff61"/></g><rect x="13.92" y="257.52" width="6.959999999999997" height="6.959999999999997" fill="#ffffff"/><g transform="translate(13.92,257.52) scale(0.174) rotate(0)"><path d="M10 5L5 0L0 5L5 10L0 15L5 20L10 15L15 20L20 15L15 10L20 5L15 0L10 5Z" fill="#ff5bb4"/></g><rect x="80.713728" y="254.71372799999997" width="12.572543999999994" height="12.572543999999994" fill="#ffffff"/><g transform="translate(87,261) scale(0.3145) rotate(0)"><path d="M10 5L5 0L0 5L5 10L0 15L5 20L10 15L15 20L20 15L15 10L20 5L15 0L10 5Z" fill="#ff1593"/></g><rect x="114.110592" y="253.31059199999996" width="15.378815999999997" height="15.378815999999997" fill="#ffffff"/><g transform="translate(114.11,253.31) scale(0.3845) rotate(0)"><path d="M10 5L5 0L0 5L5 10L0 15L5 20L10 15L15 20L20 15L15 10L20 5L15 0L10 5Z" fill="#ff62b7"/></g><g transform="translate(121.8,253.31) scale(0.3845) rotate(0)"><path d="M10 5L5 0L0 5L5 10L0 15L5 20L10 15L15 20L20 15L15 10L20 5L15 0L10 5Z" fill="#32ffff"/></g><g transform="translate(121.8,261) scale(0.3845) rotate(0)"><path d="M10 5L5 0L0 5L5 10L0 15L5 20L10 15L15 20L20 15L15 10L20 5L15 0L10 5Z" fill="#ff6fbd"/></g><rect x="180.90432" y="250.50431999999998" width="20.991359999999997" height="20.991359999999997" fill="#ffffff"/><g transform="translate(180.9,250.5) scale(0.525) rotate(0)"><path d="M10 5L5 0L0 5L5 10L0 15L5 20L10 15L15 20L20 15L15 10L20 5L15 0L10 5Z" fill="#ff9bd1"/></g><g transform="translate(191.4,250.5) scale(0.525) rotate(0)"><path d="M10 5L5 0L0 5L5 10L0 15L5 20L10 15L15 20L20 15L15 10L20 5L15 0L10 5Z" fill="#02ffff"/></g><rect x="247.69804799999997" y="247.69804799999997" width="26.603903999999993" height="26.603903999999993" fill="#ffffff"/><g transform="translate(247.7,247.7) scale(0.665) rotate(0)"><path d="M10 5L5 0L0 5L5 10L0 15L5 20L10 15L15 20L20 15L15 10L20 5L15 0L10 5Z" fill="#ff2b9e"/></g><g transform="translate(247.7,261) scale(0.665) rotate(0)"><path d="M10 5L5 0L0 5L5 10L0 15L5 20L10 15L15 20L20 15L15 10L20 5L15 0L10 5Z" fill="#07ffff"/></g><rect x="315.42719999999997" y="245.82719999999998" width="30.345599999999997" height="30.345599999999997" fill="#ffffff"/><rect x="456.498048" y="247.69804799999997" width="26.603903999999993" height="26.603903999999993" fill="#ffffff"/><g transform="translate(456.5,247.7) scale(0.665) rotate(0)"><path d="M10 5L5 0L0 5L5 10L0 15L5 20L10 15L15 20L20 15L15 10L20 5L15 0L10 5Z" fill="#ffff34"/></g><rect x="528.90432" y="250.50431999999998" width="20.991359999999997" height="20.991359999999997" fill="#ffffff"/><g transform="translate(528.9,250.5) scale(0.525) rotate(0)"><path d="M10 5L5 0L0 5L5 10L0 15L5 20L10 15L15 20L20 15L15 10L20 5L15 0L10 5Z" fill="#ffff77"/></g><g transform="translate(539.4,250.5) scale(0.525) rotate(0)"><path d="M10 5L5 0L0 5L5 10L0 15L5 20L10 15L15 20L20 15L15 10L20 5L15 0L10 5Z" fill="#ff2a9d"/></g><g transform="translate(528.9,261) scale(0.525) rotate(0)"><path d="M10 5L5 0L0 5L5 10L0 15L5 20L10 15L15 20L20 15L15 10L20 5L15 0L10 5Z" fill="#fffffe"/></g><rect x="565.107456" y="251.90745599999997" width="18.185087999999997" height="18.185087999999997" fill="#ffffff"/><g transform="translate(565.11,251.91) scale(0.4545) rotate(0)"><path d="M10 5L5 0L0 5L5 10L0 15L5 20L10 15L15 20L20 15L15 10L20 5L15 0L10 5Z" fill="#ff99d0"/></g><g transform="translate(574.2,251.91) scale(0.4545) rotate(0)"><path d="M10 5L5 0L0 5L5 10L0 15L5 20L10 15L15 20L20 15L15 10L20 5L15 0L10 5Z" fill="#ffabd9"/></g><g transform="translate(565.11,261) scale(0.4545) rotate(0)"><path d="M10 5L5 0L0 5L5 10L0 15L5 20L10 15L15 20L20 15L15 10L20 5L15 0L10 5Z" fill="#ff4eae"/></g><rect x="601.3105919999999" y="253.31059199999996" width="15.378815999999997" height="15.378815999999997" fill="#ffffff"/><g transform="translate(609,261) scale(0.3845) rotate(0)"><path d="M10 5L5 0L0 5L5 10L0 15L5 20L10 15L15 20L20 15L15 10L20 5L15 0L10 5Z" fill="#edffff"/></g><rect x="673.716864" y="256.11686399999996" width="9.766271999999997" height="9.766271999999997" fill="#ffffff"/><g transform="translate(678.6,256.12) scale(0.244) rotate(0)"><path d="M10 5L5 0L0 5L5 10L0 15L5 20L10 15L15 20L20 15L15 10L20 5L15 0L10 5Z" fill="#d2ffff"/></g><rect x="13.92" y="292.32" width="6.959999999999997" height="6.959999999999997" fill="#ffffff"/><g transform="translate(13.92,292.32) scale(0.174) rotate(0)"><path d="M10 5L5 0L0 5L5 10L0 15L5 20L10 15L15 20L20 15L15 10L20 5L15 0L10 5Z" fill="#ff6bbb"/></g><rect x="47.116416" y="290.716416" width="10.167167999999997" height="10.167167999999997" fill="#ffffff"/><g transform="translate(52.2,290.72) scale(0.254) rotate(0)"><path d="M10 5L5 0L0 5L5 10L0 15L5 20L10 15L15 20L20 15L15 10L20 5L15 0L10 5Z" fill="#ff36a3"/></g><rect x="146.70566399999998" y="285.905664" width="19.788672" height="19.788672" fill="#ffffff"/><g transform="translate(146.71,295.8) scale(0.49450000000000005) rotate(0)"><path d="M10 5L5 0L0 5L5 10L0 15L5 20L10 15L15 20L20 15L15 10L20 5L15 0L10 5Z" fill="#ff67b9"/></g><g transform="translate(156.6,295.8) scale(0.49450000000000005) rotate(0)"><path d="M10 5L5 0L0 5L5 10L0 15L5 20L10 15L15 20L20 15L15 10L20 5L15 0L10 5Z" fill="#acffff"/></g><rect x="213.09849599999998" y="282.698496" width="26.203007999999997" height="26.203007999999997" fill="#ffffff"/><g transform="translate(226.2,295.8) scale(0.655) rotate(0)"><path d="M10 5L5 0L0 5L5 10L0 15L5 20L10 15L15 20L20 15L15 10L20 5L15 0L10 5Z" fill="#ffbadf"/></g><rect x="279.49132799999995" y="279.49132799999995" width="32.617343999999996" height="32.617343999999996" fill="#ffffff"/><rect x="313.7568" y="278.9568" width="33.68639999999999" height="33.68639999999999" fill="#ffffff"/><g transform="translate(313.76,278.96) scale(0.842) rotate(0)"><path d="M10 5L5 0L0 5L5 10L0 15L5 20L10 15L15 20L20 15L15 10L20 5L15 0L10 5Z" fill="#b5ffff"/></g><g transform="translate(313.76,295.8) scale(0.842) rotate(0)"><path d="M10 5L5 0L0 5L5 10L0 15L5 20L10 15L15 20L20 15L15 10L20 5L15 0L10 5Z" fill="#ffffc6"/></g><g transform="translate(330.6,295.8) scale(0.842) rotate(0)"><path d="M10 5L5 0L0 5L5 10L0 15L5 20L10 15L15 20L20 15L15 10L20 5L15 0L10 5Z" fill="#b3ffff"/></g><rect x="527.90208" y="284.30208" width="22.995839999999998" height="22.995839999999998" fill="#ffffff"/><g transform="translate(527.9,295.8) scale(0.575) rotate(0)"><path d="M10 5L5 0L0 5L5 10L0 15L5 20L10 15L15 20L20 15L15 10L20 5L15 0L10 5Z" fill="#ffffb6"/></g><g transform="translate(539.4,295.8) scale(0.575) rotate(0)"><path d="M10 5L5 0L0 5L5 10L0 15L5 20L10 15L15 20L20 15L15 10L20 5L15 0L10 5Z" fill="#ff2199"/></g><rect x="564.305664" y="285.905664" width="19.788672" height="19.788672" fill="#ffffff"/><g transform="translate(564.31,295.8) scale(0.49450000000000005) rotate(0)"><path d="M10 5L5 0L0 5L5 10L0 15L5 20L10 15L15 20L20 15L15 10L20 5L15 0L10 5Z" fill="#2fffff"/></g><g transform="translate(574.2,295.8) scale(0.49450000000000005) rotate(0)"><path d="M10 5L5 0L0 5L5 10L0 15L5 20L10 15L15 20L20 15L15 10L20 5L15 0L10 5Z" fill="#ff42a8"/></g><rect x="637.112832" y="289.11283199999997" width="13.374335999999996" height="13.374335999999996" fill="#ffffff"/><g transform="translate(643.8,289.11) scale(0.3345) rotate(0)"><path d="M10 5L5 0L0 5L5 10L0 15L5 20L10 15L15 20L20 15L15 10L20 5L15 0L10 5Z" fill="#ffffdb"/></g><g transform="translate(637.11,295.8) scale(0.3345) rotate(0)"><path d="M10 5L5 0L0 5L5 10L0 15L5 20L10 15L15 20L20 15L15 10L20 5L15 0L10 5Z" fill="#14ffff"/></g><g transform="translate(643.8,295.8) scale(0.3345) rotate(0)"><path d="M10 5L5 0L0 5L5 10L0 15L5 20L10 15L15 20L20 15L15 10L20 5L15 0L10 5Z" fill="#ffff88"/></g><rect x="146.4384" y="320.4384" width="20.323199999999996" height="20.323199999999996" fill="#ffffff"/><g transform="translate(156.6,320.44) scale(0.508) rotate(0)"><path d="M10 5L5 0L0 5L5 10L0 15L5 20L10 15L15 20L20 15L15 10L20 5L15 0L10 5Z" fill="#fffff3"/></g><rect x="418.1568" y="313.7568" width="33.68639999999999" height="33.68639999999999" fill="#ffffff"/><rect x="491.09759999999994" y="317.0976" width="27.004799999999996" height="27.004799999999996" fill="#ffffff"/><g transform="translate(491.1,330.6) scale(0.675) rotate(0)"><path d="M10 5L5 0L0 5L5 10L0 15L5 20L10 15L15 20L20 15L15 10L20 5L15 0L10 5Z" fill="#ffff7c"/></g><rect x="527.568" y="318.768" width="23.663999999999998" height="23.663999999999998" fill="#ffffff"/><g transform="translate(527.57,318.77) scale(0.5915) rotate(0)"><path d="M10 5L5 0L0 5L5 10L0 15L5 20L10 15L15 20L20 15L15 10L20 5L15 0L10 5Z" fill="#ffffe4"/></g><g transform="translate(539.4,318.77) scale(0.5915) rotate(0)"><path d="M10 5L5 0L0 5L5 10L0 15L5 20L10 15L15 20L20 15L15 10L20 5L15 0L10 5Z" fill="#22ffff"/></g><rect x="564.0383999999999" y="320.4384" width="20.323199999999996" height="20.323199999999996" fill="#ffffff"/><g transform="translate(574.2,330.6) scale(0.508) rotate(0)"><path d="M10 5L5 0L0 5L5 10L0 15L5 20L10 15L15 20L20 15L15 10L20 5L15 0L10 5Z" fill="#ffff6e"/></g><rect x="600.5088" y="322.1088" width="16.9824" height="16.9824" fill="#ffffff"/><g transform="translate(600.51,330.6) scale(0.4245) rotate(0)"><path d="M10 5L5 0L0 5L5 10L0 15L5 20L10 15L15 20L20 15L15 10L20 5L15 0L10 5Z" fill="#fffff1"/></g><rect x="673.4495999999999" y="325.4496" width="10.300799999999995" height="10.300799999999995" fill="#ffffff"/><g transform="translate(678.6,330.6) scale(0.2575) rotate(0)"><path d="M10 5L5 0L0 5L5 10L0 15L5 20L10 15L15 20L20 15L15 10L20 5L15 0L10 5Z" fill="#ffffa9"/></g><rect x="13.92" y="361.92" width="6.959999999999997" height="6.959999999999997" fill="#ffffff"/><g transform="translate(17.4,361.92) scale(0.174) rotate(0)"><path d="M10 5L5 0L0 5L5 10L0 15L5 20L10 15L15 20L20 15L15 10L20 5L15 0L10 5Z" fill="#fff5fa"/></g><rect x="80.1792" y="358.5792" width="13.641599999999997" height="13.641599999999997" fill="#ffffff"/><rect x="179.568" y="353.568" width="23.663999999999998" height="23.663999999999998" fill="#ffffff"/><rect x="212.6976" y="351.8976" width="27.004799999999996" height="27.004799999999996" fill="#ffffff"/><g transform="translate(212.7,351.9) scale(0.675) rotate(0)"><path d="M10 5L5 0L0 5L5 10L0 15L5 20L10 15L15 20L20 15L15 10L20 5L15 0L10 5Z" fill="#a4ffff"/></g><g transform="translate(212.7,365.4) scale(0.675) rotate(0)"><path d="M10 5L5 0L0 5L5 10L0 15L5 20L10 15L15 20L20 15L15 10L20 5L15 0L10 5Z" fill="#f4ffff"/></g><g transform="translate(226.2,365.4) scale(0.675) rotate(0)"><path d="M10 5L5 0L0 5L5 10L0 15L5 20L10 15L15 20L20 15L15 10L20 5L15 0L10 5Z" fill="#ffeff8"/></g><rect x="348" y="348" width="34.8" height="34.8" fill="#ffffff"/><g transform="translate(348,365.4) scale(0.8699999999999999) rotate(0)"><path d="M10 5L5 0L0 5L5 10L0 15L5 20L10 15L15 20L20 15L15 10L20 5L15 0L10 5Z" fill="#ffc9e6"/></g><rect x="527.568" y="353.568" width="23.663999999999998" height="23.663999999999998" fill="#ffffff"/><rect x="636.9792" y="358.5792" width="13.641599999999997" height="13.641599999999997" fill="#ffffff"/><g transform="translate(636.98,358.58) scale(0.341) rotate(0)"><path d="M10 5L5 0L0 5L5 10L0 15L5 20L10 15L15 20L20 15L15 10L20 5L15 0L10 5Z" fill="#ff7ac2"/></g><g transform="translate(636.98,365.4) scale(0.341) rotate(0)"><path d="M10 5L5 0L0 5L5 10L0 15L5 20L10 15L15 20L20 15L15 10L20 5L15 0L10 5Z" fill="#ff2b9e"/></g><g transform="translate(643.8,365.4) scale(0.341) rotate(0)"><path d="M10 5L5 0L0 5L5 10L0 15L5 20L10 15L15 20L20 15L15 10L20 5L15 0L10 5Z" fill="#fff2f9"/></g><rect x="80.1792" y="393.37919999999997" width="13.641599999999997" height="13.641599999999997" fill="#ffffff"/><g transform="translate(80.18,393.38) scale(0.341) rotate(0)"><path d="M10 5L5 0L0 5L5 10L0 15L5 20L10 15L15 20L20 15L15 10L20 5L15 0L10 5Z" fill="#80ffff"/></g><g transform="translate(87,393.38) scale(0.341) rotate(0)"><path d="M10 5L5 0L0 5L5 10L0 15L5 20L10 15L15 20L20 15L15 10L20 5L15 0L10 5Z" fill="#ffffbe"/></g><g transform="translate(87,400.2) scale(0.341) rotate(0)"><path d="M10 5L5 0L0 5L5 10L0 15L5 20L10 15L15 20L20 15L15 10L20 5L15 0L10 5Z" fill="#ffffa4"/></g><rect x="212.6976" y="386.69759999999997" width="27.004799999999996" height="27.004799999999996" fill="#ffffff"/><g transform="translate(226.2,400.2) scale(0.675) rotate(0)"><path d="M10 5L5 0L0 5L5 10L0 15L5 20L10 15L15 20L20 15L15 10L20 5L15 0L10 5Z" fill="#ffff3f"/></g><rect x="418.1568" y="383.35679999999996" width="33.68639999999999" height="33.68639999999999" fill="#ffffff"/><rect x="13.92" y="431.52" width="6.959999999999997" height="6.959999999999997" fill="#ffffff"/><g transform="translate(17.4,431.52) scale(0.174) rotate(0)"><path d="M10 5L5 0L0 5L5 10L0 15L5 20L10 15L15 20L20 15L15 10L20 5L15 0L10 5Z" fill="#e2ffff"/></g><g transform="translate(13.92,435) scale(0.174) rotate(0)"><path d="M10 5L5 0L0 5L5 10L0 15L5 20L10 15L15 20L20 15L15 10L20 5L15 0L10 5Z" fill="#ff49ab"/></g><rect x="146.70566399999998" y="425.105664" width="19.788672" height="19.788672" fill="#ffffff"/><g transform="translate(146.71,435) scale(0.49450000000000005) rotate(0)"><path d="M10 5L5 0L0 5L5 10L0 15L5 20L10 15L15 20L20 15L15 10L20 5L15 0L10 5Z" fill="#ffffa7"/></g><rect x="179.90208" y="423.50208" width="22.995839999999998" height="22.995839999999998" fill="#ffffff"/><g transform="translate(179.9,435) scale(0.575) rotate(0)"><path d="M10 5L5 0L0 5L5 10L0 15L5 20L10 15L15 20L20 15L15 10L20 5L15 0L10 5Z" fill="#caffff"/></g><rect x="213.09849599999998" y="421.89849599999997" width="26.203007999999997" height="26.203007999999997" fill="#ffffff"/><g transform="translate(213.1,421.9) scale(0.655) rotate(0)"><path d="M10 5L5 0L0 5L5 10L0 15L5 20L10 15L15 20L20 15L15 10L20 5L15 0L10 5Z" fill="#6effff"/></g><g transform="translate(226.2,421.9) scale(0.655) rotate(0)"><path d="M10 5L5 0L0 5L5 10L0 15L5 20L10 15L15 20L20 15L15 10L20 5L15 0L10 5Z" fill="#ffff4c"/></g><rect x="418.69132799999994" y="418.69132799999994" width="32.617343999999996" height="32.617343999999996" fill="#ffffff"/><rect x="455.09491199999997" y="420.29491199999995" width="29.410175999999996" height="29.410175999999996" fill="#ffffff"/><rect x="491.49849599999993" y="421.89849599999997" width="26.203007999999997" height="26.203007999999997" fill="#ffffff"/><g transform="translate(491.5,421.9) scale(0.655) rotate(0)"><path d="M10 5L5 0L0 5L5 10L0 15L5 20L10 15L15 20L20 15L15 10L20 5L15 0L10 5Z" fill="#ffffb1"/></g><g transform="translate(504.6,421.9) scale(0.655) rotate(0)"><path d="M10 5L5 0L0 5L5 10L0 15L5 20L10 15L15 20L20 15L15 10L20 5L15 0L10 5Z" fill="#ffffaa"/></g><g transform="translate(491.5,435) scale(0.655) rotate(0)"><path d="M10 5L5 0L0 5L5 10L0 15L5 20L10 15L15 20L20 15L15 10L20 5L15 0L10 5Z" fill="#ffffdf"/></g><rect x="527.90208" y="423.50208" width="22.995839999999998" height="22.995839999999998" fill="#ffffff"/><g transform="translate(527.9,435) scale(0.575) rotate(0)"><path d="M10 5L5 0L0 5L5 10L0 15L5 20L10 15L15 20L20 15L15 10L20 5L15 0L10 5Z" fill="#74ffff"/></g><rect x="600.7092479999999" y="426.70924799999995" width="16.581504" height="16.581504" fill="#ffffff"/><g transform="translate(600.71,426.71) scale(0.4145) rotate(0)"><path d="M10 5L5 0L0 5L5 10L0 15L5 20L10 15L15 20L20 15L15 10L20 5L15 0L10 5Z" fill="#ff3da6"/></g><g transform="translate(609,435) scale(0.4145) rotate(0)"><path d="M10 5L5 0L0 5L5 10L0 15L5 20L10 15L15 20L20 15L15 10L20 5L15 0L10 5Z" fill="#ff55b1"/></g><rect x="147.507456" y="460.707456" width="18.185087999999997" height="18.185087999999997" fill="#ffffff"/><g transform="translate(156.6,460.71) scale(0.4545) rotate(0)"><path d="M10 5L5 0L0 5L5 10L0 15L5 20L10 15L15 20L20 15L15 10L20 5L15 0L10 5Z" fill="#ff9ad1"/></g><g transform="translate(156.6,469.8) scale(0.4545) rotate(0)"><path d="M10 5L5 0L0 5L5 10L0 15L5 20L10 15L15 20L20 15L15 10L20 5L15 0L10 5Z" fill="#ffe0f1"/></g><rect x="214.30118399999998" y="457.901184" width="23.797632" height="23.797632" fill="#ffffff"/><g transform="translate(214.3,469.8) scale(0.595) rotate(0)"><path d="M10 5L5 0L0 5L5 10L0 15L5 20L10 15L15 20L20 15L15 10L20 5L15 0L10 5Z" fill="#ffff4f"/></g><g transform="translate(226.2,469.8) scale(0.595) rotate(0)"><path d="M10 5L5 0L0 5L5 10L0 15L5 20L10 15L15 20L20 15L15 10L20 5L15 0L10 5Z" fill="#ffffcc"/></g><rect x="420.29491199999995" y="455.09491199999997" width="29.410175999999996" height="29.410175999999996" fill="#ffffff"/><g transform="translate(420.29,469.8) scale(0.7355) rotate(0)"><path d="M10 5L5 0L0 5L5 10L0 15L5 20L10 15L15 20L20 15L15 10L20 5L15 0L10 5Z" fill="#ff5bb4"/></g><g transform="translate(435,469.8) scale(0.7355) rotate(0)"><path d="M10 5L5 0L0 5L5 10L0 15L5 20L10 15L15 20L20 15L15 10L20 5L15 0L10 5Z" fill="#ff7fc4"/></g><rect x="456.498048" y="456.498048" width="26.603903999999993" height="26.603903999999993" fill="#ffffff"/><g transform="translate(456.5,456.5) scale(0.665) rotate(0)"><path d="M10 5L5 0L0 5L5 10L0 15L5 20L10 15L15 20L20 15L15 10L20 5L15 0L10 5Z" fill="#ffff63"/></g><g transform="translate(469.8,456.5) scale(0.665) rotate(0)"><path d="M10 5L5 0L0 5L5 10L0 15L5 20L10 15L15 20L20 15L15 10L20 5L15 0L10 5Z" fill="#ffff54"/></g><rect x="673.716864" y="464.916864" width="9.766271999999997" height="9.766271999999997" fill="#ffffff"/><g transform="translate(673.72,469.8) scale(0.244) rotate(0)"><path d="M10 5L5 0L0 5L5 10L0 15L5 20L10 15L15 20L20 15L15 10L20 5L15 0L10 5Z" fill="#a3ffff"/></g><rect x="81.11462399999999" y="498.71462399999996" width="11.770751999999995" height="11.770751999999995" fill="#ffffff"/><g transform="translate(87,498.71) scale(0.2945) rotate(0)"><path d="M10 5L5 0L0 5L5 10L0 15L5 20L10 15L15 20L20 15L15 10L20 5L15 0L10 5Z" fill="#ffff69"/></g><rect x="215.50387199999997" y="493.9038719999999" width="21.392255999999996" height="21.392255999999996" fill="#ffffff"/><g transform="translate(215.5,493.9) scale(0.5349999999999999) rotate(0)"><path d="M10 5L5 0L0 5L5 10L0 15L5 20L10 15L15 20L20 15L15 10L20 5L15 0L10 5Z" fill="#fffffa"/></g><g transform="translate(226.2,504.6) scale(0.5349999999999999) rotate(0)"><path d="M10 5L5 0L0 5L5 10L0 15L5 20L10 15L15 20L20 15L15 10L20 5L15 0L10 5Z" fill="#ffffdf"/></g><rect x="317.0976" y="491.09759999999994" width="27.004799999999996" height="27.004799999999996" fill="#ffffff"/><g transform="translate(317.1,491.1) scale(0.675) rotate(0)"><path d="M10 5L5 0L0 5L5 10L0 15L5 20L10 15L15 20L20 15L15 10L20 5L15 0L10 5Z" fill="#ff44a9"/></g><rect x="386.69759999999997" y="491.09759999999994" width="27.004799999999996" height="27.004799999999996" fill="#ffffff"/><g transform="translate(386.7,491.1) scale(0.675) rotate(0)"><path d="M10 5L5 0L0 5L5 10L0 15L5 20L10 15L15 20L20 15L15 10L20 5L15 0L10 5Z" fill="#ffebf6"/></g><g transform="translate(400.2,504.6) scale(0.675) rotate(0)"><path d="M10 5L5 0L0 5L5 10L0 15L5 20L10 15L15 20L20 15L15 10L20 5L15 0L10 5Z" fill="#ffffd2"/></g><rect x="457.901184" y="492.70118399999996" width="23.797632" height="23.797632" fill="#ffffff"/><g transform="translate(457.9,492.7) scale(0.595) rotate(0)"><path d="M10 5L5 0L0 5L5 10L0 15L5 20L10 15L15 20L20 15L15 10L20 5L15 0L10 5Z" fill="#ff1694"/></g><g transform="translate(457.9,504.6) scale(0.595) rotate(0)"><path d="M10 5L5 0L0 5L5 10L0 15L5 20L10 15L15 20L20 15L15 10L20 5L15 0L10 5Z" fill="#ffc6e5"/></g><rect x="565.9092479999999" y="496.3092479999999" width="16.581504" height="16.581504" fill="#ffffff"/><g transform="translate(565.91,504.6) scale(0.4145) rotate(0)"><path d="M10 5L5 0L0 5L5 10L0 15L5 20L10 15L15 20L20 15L15 10L20 5L15 0L10 5Z" fill="#c5ffff"/></g><rect x="673.9173119999999" y="499.9173119999999" width="9.365375999999998" height="9.365375999999998" fill="#ffffff"/><g transform="translate(673.92,504.6) scale(0.23399999999999999) rotate(0)"><path d="M10 5L5 0L0 5L5 10L0 15L5 20L10 15L15 20L20 15L15 10L20 5L15 0L10 5Z" fill="#ffecf6"/></g><g transform="translate(678.6,504.6) scale(0.23399999999999999) rotate(0)"><path d="M10 5L5 0L0 5L5 10L0 15L5 20L10 15L15 20L20 15L15 10L20 5L15 0L10 5Z" fill="#ff86c8"/></g><rect x="47.71776" y="534.91776" width="8.964479999999998" height="8.964479999999998" fill="#ffffff"/><g transform="translate(52.2,534.92) scale(0.22400000000000003) rotate(0)"><path d="M10 5L5 0L0 5L5 10L0 15L5 20L10 15L15 20L20 15L15 10L20 5L15 0L10 5Z" fill="#ff2b9d"/></g><rect x="81.51552" y="533.91552" width="10.968959999999996" height="10.968959999999996" fill="#ffffff"/><rect x="115.31327999999999" y="532.91328" width="12.973439999999997" height="12.973439999999997" fill="#ffffff"/><g transform="translate(115.31,532.91) scale(0.3245) rotate(0)"><path d="M10 5L5 0L0 5L5 10L0 15L5 20L10 15L15 20L20 15L15 10L20 5L15 0L10 5Z" fill="#76ffff"/></g><g transform="translate(115.31,539.4) scale(0.3245) rotate(0)"><path d="M10 5L5 0L0 5L5 10L0 15L5 20L10 15L15 20L20 15L15 10L20 5L15 0L10 5Z" fill="#ffffb8"/></g><g transform="translate(121.8,539.4) scale(0.3245) rotate(0)"><path d="M10 5L5 0L0 5L5 10L0 15L5 20L10 15L15 20L20 15L15 10L20 5L15 0L10 5Z" fill="#ffff9e"/></g><rect x="250.50431999999998" y="528.90432" width="20.991359999999997" height="20.991359999999997" fill="#ffffff"/><rect x="318.768" y="527.568" width="23.663999999999998" height="23.663999999999998" fill="#ffffff"/><g transform="translate(330.6,527.57) scale(0.5915) rotate(0)"><path d="M10 5L5 0L0 5L5 10L0 15L5 20L10 15L15 20L20 15L15 10L20 5L15 0L10 5Z" fill="#ffff3c"/></g><rect x="353.568" y="527.568" width="23.663999999999998" height="23.663999999999998" fill="#ffffff"/><g transform="translate(353.57,527.57) scale(0.5915) rotate(0)"><path d="M10 5L5 0L0 5L5 10L0 15L5 20L10 15L15 20L20 15L15 10L20 5L15 0L10 5Z" fill="#1effff"/></g><g transform="translate(365.4,539.4) scale(0.5915) rotate(0)"><path d="M10 5L5 0L0 5L5 10L0 15L5 20L10 15L15 20L20 15L15 10L20 5L15 0L10 5Z" fill="#17ffff"/></g><rect x="566.7110399999999" y="531.91104" width="14.977919999999997" height="14.977919999999997" fill="#ffffff"/><g transform="translate(566.71,531.91) scale(0.3745) rotate(0)"><path d="M10 5L5 0L0 5L5 10L0 15L5 20L10 15L15 20L20 15L15 10L20 5L15 0L10 5Z" fill="#ff58b2"/></g><g transform="translate(574.2,531.91) scale(0.3745) rotate(0)"><path d="M10 5L5 0L0 5L5 10L0 15L5 20L10 15L15 20L20 15L15 10L20 5L15 0L10 5Z" fill="#d7ffff"/></g><rect x="602.5132799999999" y="532.91328" width="12.973439999999997" height="12.973439999999997" fill="#ffffff"/><g transform="translate(602.51,532.91) scale(0.3245) rotate(0)"><path d="M10 5L5 0L0 5L5 10L0 15L5 20L10 15L15 20L20 15L15 10L20 5L15 0L10 5Z" fill="#ffa9d7"/></g><rect x="674.11776" y="534.91776" width="8.964479999999998" height="8.964479999999998" fill="#ffffff"/><g transform="translate(678.6,534.92) scale(0.22400000000000003) rotate(0)"><path d="M10 5L5 0L0 5L5 10L0 15L5 20L10 15L15 20L20 15L15 10L20 5L15 0L10 5Z" fill="#ffffa6"/></g><rect x="13.92" y="570.7199999999999" width="6.959999999999997" height="6.959999999999997" fill="#ffffff"/><g transform="translate(13.92,570.72) scale(0.174) rotate(0)"><path d="M10 5L5 0L0 5L5 10L0 15L5 20L10 15L15 20L20 15L15 10L20 5L15 0L10 5Z" fill="#ff75bf"/></g><g transform="translate(17.4,570.72) scale(0.174) rotate(0)"><path d="M10 5L5 0L0 5L5 10L0 15L5 20L10 15L15 20L20 15L15 10L20 5L15 0L10 5Z" fill="#02ffff"/></g><rect x="47.91820799999999" y="569.9182079999999" width="8.563583999999999" height="8.563583999999999" fill="#ffffff"/><g transform="translate(52.2,569.92) scale(0.21400000000000002) rotate(0)"><path d="M10 5L5 0L0 5L5 10L0 15L5 20L10 15L15 20L20 15L15 10L20 5L15 0L10 5Z" fill="#ffdcef"/></g><rect x="285.905664" y="564.305664" width="19.788672" height="19.788672" fill="#ffffff"/><g transform="translate(285.91,564.31) scale(0.49450000000000005) rotate(0)"><path d="M10 5L5 0L0 5L5 10L0 15L5 20L10 15L15 20L20 15L15 10L20 5L15 0L10 5Z" fill="#d3ffff"/></g><g transform="translate(295.8,564.31) scale(0.49450000000000005) rotate(0)"><path d="M10 5L5 0L0 5L5 10L0 15L5 20L10 15L15 20L20 15L15 10L20 5L15 0L10 5Z" fill="#ffbce0"/></g><g transform="translate(295.8,574.2) scale(0.49450000000000005) rotate(0)"><path d="M10 5L5 0L0 5L5 10L0 15L5 20L10 15L15 20L20 15L15 10L20 5L15 0L10 5Z" fill="#ffffe3"/></g><rect x="425.105664" y="564.305664" width="19.788672" height="19.788672" fill="#ffffff"/><g transform="translate(435,564.31) scale(0.49450000000000005) rotate(0)"><path d="M10 5L5 0L0 5L5 10L0 15L5 20L10 15L15 20L20 15L15 10L20 5L15 0L10 5Z" fill="#ffff71"/></g><g transform="translate(425.11,574.2) scale(0.49450000000000005) rotate(0)"><path d="M10 5L5 0L0 5L5 10L0 15L5 20L10 15L15 20L20 15L15 10L20 5L15 0L10 5Z" fill="#ffff9b"/></g><rect x="460.707456" y="565.107456" width="18.185087999999997" height="18.185087999999997" fill="#ffffff"/><g transform="translate(460.71,565.11) scale(0.4545) rotate(0)"><path d="M10 5L5 0L0 5L5 10L0 15L5 20L10 15L15 20L20 15L15 10L20 5L15 0L10 5Z" fill="#ff8bca"/></g><rect x="531.91104" y="566.7110399999999" width="14.977919999999997" height="14.977919999999997" fill="#ffffff"/><g transform="translate(539.4,566.71) scale(0.3745) rotate(0)"><path d="M10 5L5 0L0 5L5 10L0 15L5 20L10 15L15 20L20 15L15 10L20 5L15 0L10 5Z" fill="#76ffff"/></g><rect x="674.3182079999999" y="569.9182079999999" width="8.563583999999999" height="8.563583999999999" fill="#ffffff"/><g transform="translate(674.32,569.92) scale(0.21400000000000002) rotate(0)"><path d="M10 5L5 0L0 5L5 10L0 15L5 20L10 15L15 20L20 15L15 10L20 5L15 0L10 5Z" fill="#64ffff"/></g><g transform="translate(674.32,574.2) scale(0.21400000000000002) rotate(0)"><path d="M10 5L5 0L0 5L5 10L0 15L5 20L10 15L15 20L20 15L15 10L20 5L15 0L10 5Z" fill="#ffffad"/></g><g transform="translate(678.6,574.2) scale(0.21400000000000002) rotate(0)"><path d="M10 5L5 0L0 5L5 10L0 15L5 20L10 15L15 20L20 15L15 10L20 5L15 0L10 5Z" fill="#cdffff"/></g><rect x="82.31731199999999" y="604.3173119999999" width="9.365375999999998" height="9.365375999999998" fill="#ffffff"/><g transform="translate(87,609) scale(0.23399999999999999) rotate(0)"><path d="M10 5L5 0L0 5L5 10L0 15L5 20L10 15L15 20L20 15L15 10L20 5L15 0L10 5Z" fill="#43ffff"/></g><rect x="253.31059199999996" y="601.3105919999999" width="15.378815999999997" height="15.378815999999997" fill="#ffffff"/><g transform="translate(253.31,601.31) scale(0.3845) rotate(0)"><path d="M10 5L5 0L0 5L5 10L0 15L5 20L10 15L15 20L20 15L15 10L20 5L15 0L10 5Z" fill="#ff47ab"/></g><g transform="translate(253.31,609) scale(0.3845) rotate(0)"><path d="M10 5L5 0L0 5L5 10L0 15L5 20L10 15L15 20L20 15L15 10L20 5L15 0L10 5Z" fill="#ffff72"/></g><g transform="translate(261,609) scale(0.3845) rotate(0)"><path d="M10 5L5 0L0 5L5 10L0 15L5 20L10 15L15 20L20 15L15 10L20 5L15 0L10 5Z" fill="#ff71be"/></g><rect x="287.50924799999996" y="600.7092479999999" width="16.581504" height="16.581504" fill="#ffffff"/><rect x="322.1088" y="600.5088" width="16.9824" height="16.9824" fill="#ffffff"/><rect x="185.91552000000001" y="638.31552" width="10.968959999999996" height="10.968959999999996" fill="#ffffff"/><g transform="translate(191.4,638.32) scale(0.274) rotate(0)"><path d="M10 5L5 0L0 5L5 10L0 15L5 20L10 15L15 20L20 15L15 10L20 5L15 0L10 5Z" fill="#a1ffff"/></g><g transform="translate(185.92,643.8) scale(0.274) rotate(0)"><path d="M10 5L5 0L0 5L5 10L0 15L5 20L10 15L15 20L20 15L15 10L20 5L15 0L10 5Z" fill="#ff34a1"/></g><g transform="translate(191.4,643.8) scale(0.274) rotate(0)"><path d="M10 5L5 0L0 5L5 10L0 15L5 20L10 15L15 20L20 15L15 10L20 5L15 0L10 5Z" fill="#ffffe6"/></g><rect x="254.71372799999997" y="637.513728" width="12.572543999999994" height="12.572543999999994" fill="#ffffff"/><rect x="323.7792" y="636.9792" width="13.641599999999997" height="13.641599999999997" fill="#ffffff"/><rect x="428.31283199999996" y="637.112832" width="13.374335999999996" height="13.374335999999996" fill="#ffffff"/><g transform="translate(435,637.11) scale(0.3345) rotate(0)"><path d="M10 5L5 0L0 5L5 10L0 15L5 20L10 15L15 20L20 15L15 10L20 5L15 0L10 5Z" fill="#ffc1e2"/></g><g transform="translate(428.31,643.8) scale(0.3345) rotate(0)"><path d="M10 5L5 0L0 5L5 10L0 15L5 20L10 15L15 20L20 15L15 10L20 5L15 0L10 5Z" fill="#e9ffff"/></g><g transform="translate(435,643.8) scale(0.3345) rotate(0)"><path d="M10 5L5 0L0 5L5 10L0 15L5 20L10 15L15 20L20 15L15 10L20 5L15 0L10 5Z" fill="#ff8cca"/></g><rect x="463.51372799999996" y="637.513728" width="12.572543999999994" height="12.572543999999994" fill="#ffffff"/><g transform="translate(463.51,637.51) scale(0.3145) rotate(0)"><path d="M10 5L5 0L0 5L5 10L0 15L5 20L10 15L15 20L20 15L15 10L20 5L15 0L10 5Z" fill="#fdffff"/></g><g transform="translate(469.8,643.8) scale(0.3145) rotate(0)"><path d="M10 5L5 0L0 5L5 10L0 15L5 20L10 15L15 20L20 15L15 10L20 5L15 0L10 5Z" fill="#ff4cad"/></g><rect x="83.119104" y="674.7191039999999" width="7.761792" height="7.761792" fill="#ffffff"/><rect x="117.718656" y="674.518656" width="8.162688" height="8.162688" fill="#ffffff"/><g transform="translate(121.8,678.6) scale(0.20400000000000001) rotate(0)"><path d="M10 5L5 0L0 5L5 10L0 15L5 20L10 15L15 20L20 15L15 10L20 5L15 0L10 5Z" fill="#ff8ac9"/></g><rect x="152.318208" y="674.3182079999999" width="8.563583999999999" height="8.563583999999999" fill="#ffffff"/><g transform="translate(156.6,678.6) scale(0.21400000000000002) rotate(0)"><path d="M10 5L5 0L0 5L5 10L0 15L5 20L10 15L15 20L20 15L15 10L20 5L15 0L10 5Z" fill="#ffc0e2"/></g><rect x="186.91776" y="674.11776" width="8.964479999999998" height="8.964479999999998" fill="#ffffff"/><g transform="translate(186.92,678.6) scale(0.22400000000000003) rotate(0)"><path d="M10 5L5 0L0 5L5 10L0 15L5 20L10 15L15 20L20 15L15 10L20 5L15 0L10 5Z" fill="#ffa3d4"/></g><g transform="translate(191.4,678.6) scale(0.22400000000000003) rotate(0)"><path d="M10 5L5 0L0 5L5 10L0 15L5 20L10 15L15 20L20 15L15 10L20 5L15 0L10 5Z" fill="#ff66b9"/></g><rect x="256.11686399999996" y="673.716864" width="9.766271999999997" height="9.766271999999997" fill="#ffffff"/><g transform="translate(256.12,678.6) scale(0.244) rotate(0)"><path d="M10 5L5 0L0 5L5 10L0 15L5 20L10 15L15 20L20 15L15 10L20 5L15 0L10 5Z" fill="#fffff3"/></g><g transform="translate(261,678.6) scale(0.244) rotate(0)"><path d="M10 5L5 0L0 5L5 10L0 15L5 20L10 15L15 20L20 15L15 10L20 5L15 0L10 5Z" fill="#ffffb4"/></g><rect x="429.91641599999997" y="673.5164159999999" width="10.167167999999997" height="10.167167999999997" fill="#ffffff"/><g transform="translate(429.92,673.52) scale(0.254) rotate(0)"><path d="M10 5L5 0L0 5L5 10L0 15L5 20L10 15L15 20L20 15L15 10L20 5L15 0L10 5Z" fill="#02ffff"/></g><g transform="translate(435,678.6) scale(0.254) rotate(0)"><path d="M10 5L5 0L0 5L5 10L0 15L5 20L10 15L15 20L20 15L15 10L20 5L15 0L10 5Z" fill="#ffd7ed"/></g><rect x="464.916864" y="673.716864" width="9.766271999999997" height="9.766271999999997" fill="#ffffff"/><g transform="translate(469.8,673.72) scale(0.244) rotate(0)"><path d="M10 5L5 0L0 5L5 10L0 15L5 20L10 15L15 20L20 15L15 10L20 5L15 0L10 5Z" fill="#ffffb2"/></g><g transform="translate(469.8,678.6) scale(0.244) rotate(0)"><path d="M10 5L5 0L0 5L5 10L0 15L5 20L10 15L15 20L20 15L15 10L20 5L15 0L10 5Z" fill="#ffffe1"/></g><rect x="499.9173119999999" y="673.9173119999999" width="9.365375999999998" height="9.365375999999998" fill="#ffffff"/><g transform="translate(504.6,678.6) scale(0.23399999999999999) rotate(0)"><path d="M10 5L5 0L0 5L5 10L0 15L5 20L10 15L15 20L20 15L15 10L20 5L15 0L10 5Z" fill="#ffffc6"/></g><rect x="534.91776" y="674.11776" width="8.964479999999998" height="8.964479999999998" fill="#ffffff"/><rect x="569.9182079999999" y="674.3182079999999" width="8.563583999999999" height="8.563583999999999" fill="#ffffff"/><g transform="translate(574.2,674.32) scale(0.21400000000000002) rotate(0)"><path d="M10 5L5 0L0 5L5 10L0 15L5 20L10 15L15 20L20 15L15 10L20 5L15 0L10 5Z" fill="#ffffb3"/></g><g transform="translate(574.2,678.6) scale(0.21400000000000002) rotate(0)"><path d="M10 5L5 0L0 5L5 10L0 15L5 20L10 15L15 20L20 15L15 10L20 5L15 0L10 5Z" fill="#ffdaee"/></g><rect x="674.919552" y="674.919552" width="7.360895999999997" height="7.360895999999997" fill="#ffffff"/><g transform="translate(678.6,674.92) scale(0.184) rotate(0)"><path d="M10 5L5 0L0 5L5 10L0 15L5 20L10 15L15 20L20 15L15 10L20 5L15 0L10 5Z" fill="#c4ffff"/></g><g transform="translate(674.92,678.6) scale(0.184) rotate(0)"><path d="M10 5L5 0L0 5L5 10L0 15L5 20L10 15L15 20L20 15L15 10L20 5L15 0L10 5Z" fill="#f2ffff"/></g></g></svg>