<?xml version="1.0" standalone="no"?><svg xmlns:xlink="http://www.w3.org/1999/xlink" xmlns="http://www.w3.org/2000/svg" viewBox="0 0 1900 1187.5106637092647" preserveAspectRatio="xMaxYMax slice"><g transform="scale(1.7061934823408975)"><rect x="0" y="0" width="1113.6" height="696" fill="#ffffff"/><g transform="translate(27.84,27.84) scale(0.696) rotate(0)"><rect width="20" height="2" fill="#fff7fb"/><rect y="4" width="20" height="2" fill="#fff7fb"/><rect y="8" width="20" height="2" fill="#fff7fb"/><rect y="12" width="20" height="2" fill="#fff7fb"/><rect y="16" width="20" height="2" fill="#fff7fb"/></g><g transform="translate(167.04,27.84) scale(0.696) rotate(0)"><rect width="20" height="2" fill="#ffffaf"/><rect y="4" width="20" height="2" fill="#ffffaf"/><rect y="8" width="20" height="2" fill="#ffffaf"/><rect y="12" width="20" height="2" fill="#ffffaf"/><rect y="16" width="20" height="2" fill="#ffffaf"/></g><g transform="translate(236.64,27.84) scale(0.696) rotate(0)"><rect width="2" height="20" fill="#05ffff"/><rect x="4" width="2" height="20" fill="#05ffff"/><rect x="8" width="2" height="20" fill="#05ffff"/><rect x="12" width="2" height="20" fill="#05ffff"/><rect x="16" width="2" height="20" fill="#05ffff"/></g><g transform="translate(375.84,27.84) scale(0.696) rotate(0)"><rect width="20" height="2" fill="#ff2f9f"/><rect y="4" width="20" height="2" fill="#ff2f9f"/><rect y="8" width="20" height="2" fill="#ff2f9f"/><rect y="12" width="20" height="2" fill="#ff2f9f"/><rect y="16" width="20" height="2" fill="#ff2f9f"/></g><g transform="translate(515.04,27.84) scale(0.696) rotate(0)"><rect width="2" height="20" fill="#ff34a2"/><rect x="4" width="2" height="20" fill="#ff34a2"/><rect x="8" width="2" height="20" fill="#ff34a2"/><rect x="12" width="2" height="20" fill="#ff34a2"/><rect x="16" width="2" height="20" fill="#ff34a2"/></g><g transform="translate(723.84,27.84) scale(0.696) rotate(0)"><rect width="20" height="2" fill="#ff54b0"/><rect y="4" width="20" height="2" fill="#ff54b0"/><rect y="8" width="20" height="2" fill="#ff54b0"/><rect y="12" width="20" height="2" fill="#ff54b0"/><rect y="16" width="20" height="2" fill="#ff54b0"/></g><g transform="translate(793.44,27.84) scale(0.696) rotate(0)"><rect width="20" height="2" fill="#ffff48"/><rect y="4" width="20" height="2" fill="#ffff48"/><rect y="8" width="20" height="2" fill="#ffff48"/><rect y="12" width="20" height="2" fill="#ffff48"/><rect y="16" width="20" height="2" fill="#ffff48"/></g><g transform="translate(932.64,27.84) scale(0.696) rotate(0)"><rect width="2" height="20" fill="#ffffde"/><rect x="4" width="2" height="20" fill="#ffffde"/><rect x="8" width="2" height="20" fill="#ffffde"/><rect x="12" width="2" height="20" fill="#ffffde"/><rect x="16" width="2" height="20" fill="#ffffde"/></g><g transform="translate(1071.84,27.84) scale(0.696) rotate(0)"><rect width="20" height="2" fill="#ff2099"/><rect y="4" width="20" height="2" fill="#ff2099"/><rect y="8" width="20" height="2" fill="#ff2099"/><rect y="12" width="20" height="2" fill="#ff2099"/><rect y="16" width="20" height="2" fill="#ff2099"/></g><g transform="translate(27.84,97.44) scale(0.696) rotate(0)"><rect width="2" height="20" fill="#a0ffff"/><rect x="4" width="2" height="20" fill="#a0ffff"/><rect x="8" width="2" height="20" fill="#a0ffff"/><rect x="12" width="2" height="20" fill="#a0ffff"/><rect x="16" width="2" height="20" fill="#a0ffff"/></g><g transform="translate(97.44,97.44) scale(0.696) rotate(0)"><rect width="2" height="20" fill="#ff6fbd"/><rect x="4" width="2" height="20" fill="#ff6fbd"/><rect x="8" width="2" height="20" fill="#ff6fbd"/><rect x="12" width="2" height="20" fill="#ff6fbd"/><rect x="16" width="2" height="20" fill="#ff6fbd"/></g><g transform="translate(236.64,97.44) scale(0.696) rotate(0)"><rect width="20" height="2" fill="#7effff"/><rect y="4" width="20" height="2" fill="#7effff"/><rect y="8" width="20" height="2" fill="#7effff"/><rect y="12" width="20" height="2" fill="#7effff"/><rect y="16" width="20" height="2" fill="#7effff"/></g><g transform="translate(306.24,97.44) scale(0.696) rotate(0)"><rect width="2" height="20" fill="#1effff"/><rect x="4" width="2" height="20" fill="#1effff"/><rect x="8" width="2" height="20" fill="#1effff"/><rect x="12" width="2" height="20" fill="#1effff"/><rect x="16" width="2" height="20" fill="#1effff"/></g><g transform="translate(375.84,97.44) scale(0.696) rotate(0)"><rect width="20" height="2" fill="#9dffff"/><rect y="4" width="20" height="2" fill="#9dffff"/><rect y="8" width="20" height="2" fill="#9dffff"/><rect y="12" width="20" height="2" fill="#9dffff"/><rect y="16" width="20" height="2" fill="#9dffff"/></g><g transform="translate(515.04,97.44) scale(0.696) rotate(0)"><rect width="20" height="2" fill="#2cffff"/><rect y="4" width="20" height="2" fill="#2cffff"/><rect y="8" width="20" height="2" fill="#2cffff"/><rect y="12" width="20" height="2" fill="#2cffff"/><rect y="16" width="20" height="2" fill="#2cffff"/></g><g transform="translate(584.64,97.44) scale(0.696) rotate(0)"><rect width="20" height="2" fill="#9affff"/><rect y="4" width="20" height="2" fill="#9affff"/><rect y="8" width="20" height="2" fill="#9affff"/><rect y="12" width="20" height="2" fill="#9affff"/><rect y="16" width="20" height="2" fill="#9affff"/></g><g transform="translate(654.24,97.44) scale(0.696) rotate(0)"><rect width="2" height="20" fill="#ffffe3"/><rect x="4" width="2" height="20" fill="#ffffe3"/><rect x="8" width="2" height="20" fill="#ffffe3"/><rect x="12" width="2" height="20" fill="#ffffe3"/><rect x="16" width="2" height="20" fill="#ffffe3"/></g><g transform="translate(723.84,97.44) scale(0.696) rotate(0)"><rect width="2" height="20" fill="#72ffff"/><rect x="4" width="2" height="20" fill="#72ffff"/><rect x="8" width="2" height="20" fill="#72ffff"/><rect x="12" width="2" height="20" fill="#72ffff"/><rect x="16" width="2" height="20" fill="#72ffff"/></g><g transform="translate(793.44,97.44) scale(0.696) rotate(0)"><rect width="20" height="2" fill="#ff52b0"/><rect y="4" width="20" height="2" fill="#ff52b0"/><rect y="8" width="20" height="2" fill="#ff52b0"/><rect y="12" width="20" height="2" fill="#ff52b0"/><rect y="16" width="20" height="2" fill="#ff52b0"/></g><g transform="translate(863.04,97.44) scale(0.696) rotate(0)"><rect width="2" height="20" fill="#d7ffff"/><rect x="4" width="2" height="20" fill="#d7ffff"/><rect x="8" width="2" height="20" fill="#d7ffff"/><rect x="12" width="2" height="20" fill="#d7ffff"/><rect x="16" width="2" height="20" fill="#d7ffff"/></g><g transform="translate(1071.84,97.44) scale(0.696) rotate(0)"><rect width="20" height="2" fill="#fff8fc"/><rect y="4" width="20" height="2" fill="#fff8fc"/><rect y="8" width="20" height="2" fill="#fff8fc"/><rect y="12" width="20" height="2" fill="#fff8fc"/><rect y="16" width="20" height="2" fill="#fff8fc"/></g><g transform="translate(27.84,167.04) scale(0.696) rotate(0)"><rect width="2" height="20" fill="#ffff79"/><rect x="4" width="2" height="20" fill="#ffff79"/><rect x="8" width="2" height="20" fill="#ffff79"/><rect x="12" width="2" height="20" fill="#ffff79"/><rect x="16" width="2" height="20" fill="#ffff79"/></g><g transform="translate(167.04,167.04) scale(0.696) rotate(0)"><rect width="20" height="2" fill="#ffff76"/><rect y="4" width="20" height="2" fill="#ffff76"/><rect y="8" width="20" height="2" fill="#ffff76"/><rect y="12" width="20" height="2" fill="#ffff76"/><rect y="16" width="20" height="2" fill="#ffff76"/></g><g transform="translate(306.24,167.04) scale(0.696) rotate(0)"><rect width="20" height="2" fill="#bdffff"/><rect y="4" width="20" height="2" fill="#bdffff"/><rect y="8" width="20" height="2" fill="#bdffff"/><rect y="12" width="20" height="2" fill="#bdffff"/><rect y="16" width="20" height="2" fill="#bdffff"/></g><g transform="translate(375.84,167.04) scale(0.696) rotate(0)"><rect width="2" height="20" fill="#ffffd9"/><rect x="4" width="2" height="20" fill="#ffffd9"/><rect x="8" width="2" height="20" fill="#ffffd9"/><rect x="12" width="2" height="20" fill="#ffffd9"/><rect x="16" width="2" height="20" fill="#ffffd9"/></g><g transform="translate(584.64,167.04) scale(0.696) rotate(0)"><rect width="20" height="2" fill="#ffff7c"/><rect y="4" width="20" height="2" fill="#ffff7c"/><rect y="8" width="20" height="2" fill="#ffff7c"/><rect y="12" width="20" height="2" fill="#ffff7c"/><rect y="16" width="20" height="2" fill="#ffff7c"/></g><g transform="translate(723.84,167.04) scale(0.696) rotate(0)"><rect width="2" height="20" fill="#ff5bb4"/><rect x="4" width="2" height="20" fill="#ff5bb4"/><rect x="8" width="2" height="20" fill="#ff5bb4"/><rect x="12" width="2" height="20" fill="#ff5bb4"/><rect x="16" width="2" height="20" fill="#ff5bb4"/></g><g transform="translate(793.44,167.04) scale(0.696) rotate(0)"><rect width="2" height="20" fill="#ff30a0"/><rect x="4" width="2" height="20" fill="#ff30a0"/><rect x="8" width="2" height="20" fill="#ff30a0"/><rect x="12" width="2" height="20" fill="#ff30a0"/><rect x="16" width="2" height="20" fill="#ff30a0"/></g><g transform="translate(863.04,167.04) scale(0.696) rotate(0)"><rect width="20" height="2" fill="#ffc9e6"/><rect y="4" width="20" height="2" fill="#ffc9e6"/><rect y="8" width="20" height="2" fill="#ffc9e6"/><rect y="12" width="20" height="2" fill="#ffc9e6"/><rect y="16" width="20" height="2" fill="#ffc9e6"/></g><g transform="translate(1071.84,167.04) scale(0.696) rotate(0)"><rect width="2" height="20" fill="#ffffec"/><rect x="4" width="2" height="20" fill="#ffffec"/><rect x="8" width="2" height="20" fill="#ffffec"/><rect x="12" width="2" height="20" fill="#ffffec"/><rect x="16" width="2" height="20" fill="#ffffec"/></g><g transform="translate(97.44,236.64) scale(0.696) rotate(0)"><rect width="20" height="2" fill="#6effff"/><rect y="4" width="20" height="2" fill="#6effff"/><rect y="8" width="20" height="2" fill="#6effff"/><rect y="12" width="20" height="2" fill="#6effff"/><rect y="16" width="20" height="2" fill="#6effff"/></g><g transform="translate(167.04,236.64) scale(0.696) rotate(0)"><rect width="20" height="2" fill="#ffffbc"/><rect y="4" width="20" height="2" fill="#ffffbc"/><rect y="8" width="20" height="2" fill="#ffffbc"/><rect y="12" width="20" height="2" fill="#ffffbc"/><rect y="16" width="20" height="2" fill="#ffffbc"/></g><g transform="translate(306.24,236.64) scale(0.696) rotate(0)"><rect width="20" height="2" fill="#fcffff"/><rect y="4" width="20" height="2" fill="#fcffff"/><rect y="8" width="20" height="2" fill="#fcffff"/><rect y="12" width="20" height="2" fill="#fcffff"/><rect y="16" width="20" height="2" fill="#fcffff"/></g><g transform="translate(375.84,236.64) scale(0.696) rotate(0)"><rect width="20" height="2" fill="#90ffff"/><rect y="4" width="20" height="2" fill="#90ffff"/><rect y="8" width="20" height="2" fill="#90ffff"/><rect y="12" width="20" height="2" fill="#90ffff"/><rect y="16" width="20" height="2" fill="#90ffff"/></g><g transform="translate(445.44,236.64) scale(0.696) rotate(0)"><rect width="2" height="20" fill="#cbffff"/><rect x="4" width="2" height="20" fill="#cbffff"/><rect x="8" width="2" height="20" fill="#cbffff"/><rect x="12" width="2" height="20" fill="#cbffff"/><rect x="16" width="2" height="20" fill="#cbffff"/></g><g transform="translate(515.04,236.64) scale(0.696) rotate(0)"><rect width="20" height="2" fill="#04ffff"/><rect y="4" width="20" height="2" fill="#04ffff"/><rect y="8" width="20" height="2" fill="#04ffff"/><rect y="12" width="20" height="2" fill="#04ffff"/><rect y="16" width="20" height="2" fill="#04ffff"/></g><g transform="translate(654.24,236.64) scale(0.696) rotate(0)"><rect width="20" height="2" fill="#61ffff"/><rect y="4" width="20" height="2" fill="#61ffff"/><rect y="8" width="20" height="2" fill="#61ffff"/><rect y="12" width="20" height="2" fill="#61ffff"/><rect y="16" width="20" height="2" fill="#61ffff"/></g><g transform="translate(793.44,236.64) scale(0.696) rotate(0)"><rect width="2" height="20" fill="#ffff4a"/><rect x="4" width="2" height="20" fill="#ffff4a"/><rect x="8" width="2" height="20" fill="#ffff4a"/><rect x="12" width="2" height="20" fill="#ffff4a"/><rect x="16" width="2" height="20" fill="#ffff4a"/></g><g transform="translate(863.04,236.64) scale(0.696) rotate(0)"><rect width="20" height="2" fill="#ffb2dc"/><rect y="4" width="20" height="2" fill="#ffb2dc"/><rect y="8" width="20" height="2" fill="#ffb2dc"/><rect y="12" width="20" height="2" fill="#ffb2dc"/><rect y="16" width="20" height="2" fill="#ffb2dc"/></g><g transform="translate(932.64,236.64) scale(0.696) rotate(0)"><rect width="2" height="20" fill="#ff7cc3"/><rect x="4" width="2" height="20" fill="#ff7cc3"/><rect x="8" width="2" height="20" fill="#ff7cc3"/><rect x="12" width="2" height="20" fill="#ff7cc3"/><rect x="16" width="2" height="20" fill="#ff7cc3"/></g><g transform="translate(27.84,306.24) scale(0.696) rotate(0)"><rect width="20" height="2" fill="#ff4eae"/><rect y="4" width="20" height="2" fill="#ff4eae"/><rect y="8" width="20" height="2" fill="#ff4eae"/><rect y="12" width="20" height="2" fill="#ff4eae"/><rect y="16" width="20" height="2" fill="#ff4eae"/></g><g transform="translate(97.44,306.24) scale(0.696) rotate(0)"><rect width="20" height="2" fill="#ffafda"/><rect y="4" width="20" height="2" fill="#ffafda"/><rect y="8" width="20" height="2" fill="#ffafda"/><rect y="12" width="20" height="2" fill="#ffafda"/><rect y="16" width="20" height="2" fill="#ffafda"/></g><g transform="translate(167.04,306.24) scale(0.696) rotate(0)"><rect width="2" height="20" fill="#ff76c0"/><rect x="4" width="2" height="20" fill="#ff76c0"/><rect x="8" width="2" height="20" fill="#ff76c0"/><rect x="12" width="2" height="20" fill="#ff76c0"/><rect x="16" width="2" height="20" fill="#ff76c0"/></g><g transform="translate(306.24,306.24) scale(0.696) rotate(0)"><rect width="20" height="2" fill="#3effff"/><rect y="4" width="20" height="2" fill="#3effff"/><rect y="8" width="20" height="2" fill="#3effff"/><rect y="12" width="20" height="2" fill="#3effff"/><rect y="16" width="20" height="2" fill="#3effff"/></g><g transform="translate(375.84,306.24) scale(0.696) rotate(0)"><rect width="2" height="20" fill="#fffdfe"/><rect x="4" width="2" height="20" fill="#fffdfe"/><rect x="8" width="2" height="20" fill="#fffdfe"/><rect x="12" width="2" height="20" fill="#fffdfe"/><rect x="16" width="2" height="20" fill="#fffdfe"/></g><g transform="translate(515.04,306.24) scale(0.696) rotate(0)"><rect width="20" height="2" fill="#ffffcf"/><rect y="4" width="20" height="2" fill="#ffffcf"/><rect y="8" width="20" height="2" fill="#ffffcf"/><rect y="12" width="20" height="2" fill="#ffffcf"/><rect y="16" width="20" height="2" fill="#ffffcf"/></g><g transform="translate(584.64,306.24) scale(0.696) rotate(0)"><rect width="20" height="2" fill="#ffffb5"/><rect y="4" width="20" height="2" fill="#ffffb5"/><rect y="8" width="20" height="2" fill="#ffffb5"/><rect y="12" width="20" height="2" fill="#ffffb5"/><rect y="16" width="20" height="2" fill="#ffffb5"/></g><g transform="translate(654.24,306.24) scale(0.696) rotate(0)"><rect width="20" height="2" fill="#40ffff"/><rect y="4" width="20" height="2" fill="#40ffff"/><rect y="8" width="20" height="2" fill="#40ffff"/><rect y="12" width="20" height="2" fill="#40ffff"/><rect y="16" width="20" height="2" fill="#40ffff"/></g><g transform="translate(723.84,306.24) scale(0.696) rotate(0)"><rect width="20" height="2" fill="#c0ffff"/><rect y="4" width="20" height="2" fill="#c0ffff"/><rect y="8" width="20" height="2" fill="#c0ffff"/><rect y="12" width="20" height="2" fill="#c0ffff"/><rect y="16" width="20" height="2" fill="#c0ffff"/></g><g transform="translate(793.44,306.24) scale(0.696) rotate(0)"><rect width="2" height="20" fill="#03ffff"/><rect x="4" width="2" height="20" fill="#03ffff"/><rect x="8" width="2" height="20" fill="#03ffff"/><rect x="12" width="2" height="20" fill="#03ffff"/><rect x="16" width="2" height="20" fill="#03ffff"/></g><g transform="translate(863.04,306.24) scale(0.696) rotate(0)"><rect width="2" height="20" fill="#ff40a7"/><rect x="4" width="2" height="20" fill="#ff40a7"/><rect x="8" width="2" height="20" fill="#ff40a7"/><rect x="12" width="2" height="20" fill="#ff40a7"/><rect x="16" width="2" height="20" fill="#ff40a7"/></g><g transform="translate(932.64,306.24) scale(0.696) rotate(0)"><rect width="2" height="20" fill="#ff52b0"/><rect x="4" width="2" height="20" fill="#ff52b0"/><rect x="8" width="2" height="20" fill="#ff52b0"/><rect x="12" width="2" height="20" fill="#ff52b0"/><rect x="16" width="2" height="20" fill="#ff52b0"/></g><g transform="translate(1002.24,306.24) scale(0.696) rotate(0)"><rect width="20" height="2" fill="#32ffff"/><rect y="4" width="20" height="2" fill="#32ffff"/><rect y="8" width="20" height="2" fill="#32ffff"/><rect y="12" width="20" height="2" fill="#32ffff"/><rect y="16" width="20" height="2" fill="#32ffff"/></g><g transform="translate(27.84,375.84) scale(0.696) rotate(0)"><rect width="20" height="2" fill="#bcffff"/><rect y="4" width="20" height="2" fill="#bcffff"/><rect y="8" width="20" height="2" fill="#bcffff"/><rect y="12" width="20" height="2" fill="#bcffff"/><rect y="16" width="20" height="2" fill="#bcffff"/></g><g transform="translate(445.44,375.84) scale(0.696) rotate(0)"><rect width="2" height="20" fill="#89ffff"/><rect x="4" width="2" height="20" fill="#89ffff"/><rect x="8" width="2" height="20" fill="#89ffff"/><rect x="12" width="2" height="20" fill="#89ffff"/><rect x="16" width="2" height="20" fill="#89ffff"/></g><g transform="translate(515.04,375.84) scale(0.696) rotate(0)"><rect width="2" height="20" fill="#ffaad8"/><rect x="4" width="2" height="20" fill="#ffaad8"/><rect x="8" width="2" height="20" fill="#ffaad8"/><rect x="12" width="2" height="20" fill="#ffaad8"/><rect x="16" width="2" height="20" fill="#ffaad8"/></g><g transform="translate(584.64,375.84) scale(0.696) rotate(0)"><rect width="20" height="2" fill="#35ffff"/><rect y="4" width="20" height="2" fill="#35ffff"/><rect y="8" width="20" height="2" fill="#35ffff"/><rect y="12" width="20" height="2" fill="#35ffff"/><rect y="16" width="20" height="2" fill="#35ffff"/></g><g transform="translate(863.04,375.84) scale(0.696) rotate(0)"><rect width="2" height="20" fill="#23ffff"/><rect x="4" width="2" height="20" fill="#23ffff"/><rect x="8" width="2" height="20" fill="#23ffff"/><rect x="12" width="2" height="20" fill="#23ffff"/><rect x="16" width="2" height="20" fill="#23ffff"/></g><g transform="translate(932.64,375.84) scale(0.696) rotate(0)"><rect width="20" height="2" fill="#17ffff"/><rect y="4" width="20" height="2" fill="#17ffff"/><rect y="8" width="20" height="2" fill="#17ffff"/><rect y="12" width="20" height="2" fill="#17ffff"/><rect y="16" width="20" height="2" fill="#17ffff"/></g><g transform="translate(1002.24,375.84) scale(0.696) rotate(0)"><rect width="20" height="2" fill="#ffff4d"/><rect y="4" width="20" height="2" fill="#ffff4d"/><rect y="8" width="20" height="2" fill="#ffff4d"/><rect y="12" width="20" height="2" fill="#ffff4d"/><rect y="16" width="20" height="2" fill="#ffff4d"/></g><g transform="translate(167.04,445.44) scale(0.696) rotate(0)"><rect width="20" height="2" fill="#ffbee1"/><rect y="4" width="20" height="2" fill="#ffbee1"/><rect y="8" width="20" height="2" fill="#ffbee1"/><rect y="12" width="20" height="2" fill="#ffbee1"/><rect y="16" width="20" height="2" fill="#ffbee1"/></g><g transform="translate(236.64,445.44) scale(0.696) rotate(0)"><rect width="20" height="2" fill="#ff2299"/><rect y="4" width="20" height="2" fill="#ff2299"/><rect y="8" width="20" height="2" fill="#ff2299"/><rect y="12" width="20" height="2" fill="#ff2299"/><rect y="16" width="20" height="2" fill="#ff2299"/></g><g transform="translate(306.24,445.44) scale(0.696) rotate(0)"><rect width="20" height="2" fill="#ccffff"/><rect y="4" width="20" height="2" fill="#ccffff"/><rect y="8" width="20" height="2" fill="#ccffff"/><rect y="12" width="20" height="2" fill="#ccffff"/><rect y="16" width="20" height="2" fill="#ccffff"/></g><g transform="translate(445.44,445.44) scale(0.696) rotate(0)"><rect width="2" height="20" fill="#5cffff"/><rect x="4" width="2" height="20" fill="#5cffff"/><rect x="8" width="2" height="20" fill="#5cffff"/><rect x="12" width="2" height="20" fill="#5cffff"/><rect x="16" width="2" height="20" fill="#5cffff"/></g><g transform="translate(515.04,445.44) scale(0.696) rotate(0)"><rect width="2" height="20" fill="#ffff98"/><rect x="4" width="2" height="20" fill="#ffff98"/><rect x="8" width="2" height="20" fill="#ffff98"/><rect x="12" width="2" height="20" fill="#ffff98"/><rect x="16" width="2" height="20" fill="#ffff98"/></g><g transform="translate(584.64,445.44) scale(0.696) rotate(0)"><rect width="20" height="2" fill="#ffffea"/><rect y="4" width="20" height="2" fill="#ffffea"/><rect y="8" width="20" height="2" fill="#ffffea"/><rect y="12" width="20" height="2" fill="#ffffea"/><rect y="16" width="20" height="2" fill="#ffffea"/></g><g transform="translate(654.24,445.44) scale(0.696) rotate(0)"><rect width="20" height="2" fill="#afffff"/><rect y="4" width="20" height="2" fill="#afffff"/><rect y="8" width="20" height="2" fill="#afffff"/><rect y="12" width="20" height="2" fill="#afffff"/><rect y="16" width="20" height="2" fill="#afffff"/></g><g transform="translate(793.44,445.44) scale(0.696) rotate(0)"><rect width="20" height="2" fill="#ffa9d8"/><rect y="4" width="20" height="2" fill="#ffa9d8"/><rect y="8" width="20" height="2" fill="#ffa9d8"/><rect y="12" width="20" height="2" fill="#ffa9d8"/><rect y="16" width="20" height="2" fill="#ffa9d8"/></g><g transform="translate(863.04,445.44) scale(0.696) rotate(0)"><rect width="20" height="2" fill="#57ffff"/><rect y="4" width="20" height="2" fill="#57ffff"/><rect y="8" width="20" height="2" fill="#57ffff"/><rect y="12" width="20" height="2" fill="#57ffff"/><rect y="16" width="20" height="2" fill="#57ffff"/></g><g transform="translate(932.64,445.44) scale(0.696) rotate(0)"><rect width="2" height="20" fill="#2dffff"/><rect x="4" width="2" height="20" fill="#2dffff"/><rect x="8" width="2" height="20" fill="#2dffff"/><rect x="12" width="2" height="20" fill="#2dffff"/><rect x="16" width="2" height="20" fill="#2dffff"/></g><g transform="translate(1002.24,445.44) scale(0.696) rotate(0)"><rect width="2" height="20" fill="#ff5cb4"/><rect x="4" width="2" height="20" fill="#ff5cb4"/><rect x="8" width="2" height="20" fill="#ff5cb4"/><rect x="12" width="2" height="20" fill="#ff5cb4"/><rect x="16" width="2" height="20" fill="#ff5cb4"/></g><g transform="translate(1071.84,445.44) scale(0.696) rotate(0)"><rect width="2" height="20" fill="#ffff5a"/><rect x="4" width="2" height="20" fill="#ffff5a"/><rect x="8" width="2" height="20" fill="#ffff5a"/><rect x="12" width="2" height="20" fill="#ffff5a"/><rect x="16" width="2" height="20" fill="#ffff5a"/></g><g transform="translate(27.84,515.04) scale(0.696) rotate(0)"><rect width="2" height="20" fill="#fffff6"/><rect x="4" width="2" height="20" fill="#fffff6"/><rect x="8" width="2" height="20" fill="#fffff6"/><rect x="12" width="2" height="20" fill="#fffff6"/><rect x="16" width="2" height="20" fill="#fffff6"/></g><g transform="translate(306.24,515.04) scale(0.696) rotate(0)"><rect width="2" height="20" fill="#b2ffff"/><rect x="4" width="2" height="20" fill="#b2ffff"/><rect x="8" width="2" height="20" fill="#b2ffff"/><rect x="12" width="2" height="20" fill="#b2ffff"/><rect x="16" width="2" height="20" fill="#b2ffff"/></g><g transform="translate(375.84,515.04) scale(0.696) rotate(0)"><rect width="20" height="2" fill="#ffcfe9"/><rect y="4" width="20" height="2" fill="#ffcfe9"/><rect y="8" width="20" height="2" fill="#ffcfe9"/><rect y="12" width="20" height="2" fill="#ffcfe9"/><rect y="16" width="20" height="2" fill="#ffcfe9"/></g><g transform="translate(515.04,515.04) scale(0.696) rotate(0)"><rect width="20" height="2" fill="#ffffda"/><rect y="4" width="20" height="2" fill="#ffffda"/><rect y="8" width="20" height="2" fill="#ffffda"/><rect y="12" width="20" height="2" fill="#ffffda"/><rect y="16" width="20" height="2" fill="#ffffda"/></g><g transform="translate(584.64,515.04) scale(0.696) rotate(0)"><rect width="2" height="20" fill="#ffff8c"/><rect x="4" width="2" height="20" fill="#ffff8c"/><rect x="8" width="2" height="20" fill="#ffff8c"/><rect x="12" width="2" height="20" fill="#ffff8c"/><rect x="16" width="2" height="20" fill="#ffff8c"/></g><g transform="translate(654.24,515.04) scale(0.696) rotate(0)"><rect width="2" height="20" fill="#13ffff"/><rect x="4" width="2" height="20" fill="#13ffff"/><rect x="8" width="2" height="20" fill="#13ffff"/><rect x="12" width="2" height="20" fill="#13ffff"/><rect x="16" width="2" height="20" fill="#13ffff"/></g><g transform="translate(793.44,515.04) scale(0.696) rotate(0)"><rect width="20" height="2" fill="#afffff"/><rect y="4" width="20" height="2" fill="#afffff"/><rect y="8" width="20" height="2" fill="#afffff"/><rect y="12" width="20" height="2" fill="#afffff"/><rect y="16" width="20" height="2" fill="#afffff"/></g><g transform="translate(863.04,515.04) scale(0.696) rotate(0)"><rect width="20" height="2" fill="#3effff"/><rect y="4" width="20" height="2" fill="#3effff"/><rect y="8" width="20" height="2" fill="#3effff"/><rect y="12" width="20" height="2" fill="#3effff"/><rect y="16" width="20" height="2" fill="#3effff"/></g><g transform="translate(1002.24,515.04) scale(0.696) rotate(0)"><rect width="2" height="20" fill="#efffff"/><rect x="4" width="2" height="20" fill="#efffff"/><rect x="8" width="2" height="20" fill="#efffff"/><rect x="12" width="2" height="20" fill="#efffff"/><rect x="16" width="2" height="20" fill="#efffff"/></g><g transform="translate(1071.84,515.04) scale(0.696) rotate(0)"><rect width="20" height="2" fill="#ffff5e"/><rect y="4" width="20" height="2" fill="#ffff5e"/><rect y="8" width="20" height="2" fill="#ffff5e"/><rect y="12" width="20" height="2" fill="#ffff5e"/><rect y="16" width="20" height="2" fill="#ffff5e"/></g><g transform="translate(27.84,584.64) scale(0.696) rotate(0)"><rect width="2" height="20" fill="#ffff49"/><rect x="4" width="2" height="20" fill="#ffff49"/><rect x="8" width="2" height="20" fill="#ffff49"/><rect x="12" width="2" height="20" fill="#ffff49"/><rect x="16" width="2" height="20" fill="#ffff49"/></g><g transform="translate(97.44,584.64) scale(0.696) rotate(0)"><rect width="20" height="2" fill="#ff7ac2"/><rect y="4" width="20" height="2" fill="#ff7ac2"/><rect y="8" width="20" height="2" fill="#ff7ac2"/><rect y="12" width="20" height="2" fill="#ff7ac2"/><rect y="16" width="20" height="2" fill="#ff7ac2"/></g><g transform="translate(167.04,584.64) scale(0.696) rotate(0)"><rect width="20" height="2" fill="#ffdaee"/><rect y="4" width="20" height="2" fill="#ffdaee"/><rect y="8" width="20" height="2" fill="#ffdaee"/><rect y="12" width="20" height="2" fill="#ffdaee"/><rect y="16" width="20" height="2" fill="#ffdaee"/></g><g transform="translate(236.64,584.64) scale(0.696) rotate(0)"><rect width="20" height="2" fill="#e5ffff"/><rect y="4" width="20" height="2" fill="#e5ffff"/><rect y="8" width="20" height="2" fill="#e5ffff"/><rect y="12" width="20" height="2" fill="#e5ffff"/><rect y="16" width="20" height="2" fill="#e5ffff"/></g><g transform="translate(306.24,584.64) scale(0.696) rotate(0)"><rect width="2" height="20" fill="#ff6bbb"/><rect x="4" width="2" height="20" fill="#ff6bbb"/><rect x="8" width="2" height="20" fill="#ff6bbb"/><rect x="12" width="2" height="20" fill="#ff6bbb"/><rect x="16" width="2" height="20" fill="#ff6bbb"/></g><g transform="translate(375.84,584.64) scale(0.696) rotate(0)"><rect width="20" height="2" fill="#ffb1db"/><rect y="4" width="20" height="2" fill="#ffb1db"/><rect y="8" width="20" height="2" fill="#ffb1db"/><rect y="12" width="20" height="2" fill="#ffb1db"/><rect y="16" width="20" height="2" fill="#ffb1db"/></g><g transform="translate(445.44,584.64) scale(0.696) rotate(0)"><rect width="2" height="20" fill="#ffffaa"/><rect x="4" width="2" height="20" fill="#ffffaa"/><rect x="8" width="2" height="20" fill="#ffffaa"/><rect x="12" width="2" height="20" fill="#ffffaa"/><rect x="16" width="2" height="20" fill="#ffffaa"/></g><g transform="translate(515.04,584.64) scale(0.696) rotate(0)"><rect width="2" height="20" fill="#ffff81"/><rect x="4" width="2" height="20" fill="#ffff81"/><rect x="8" width="2" height="20" fill="#ffff81"/><rect x="12" width="2" height="20" fill="#ffff81"/><rect x="16" width="2" height="20" fill="#ffff81"/></g><g transform="translate(654.24,584.64) scale(0.696) rotate(0)"><rect width="2" height="20" fill="#ffff6f"/><rect x="4" width="2" height="20" fill="#ffff6f"/><rect x="8" width="2" height="20" fill="#ffff6f"/><rect x="12" width="2" height="20" fill="#ffff6f"/><rect x="16" width="2" height="20" fill="#ffff6f"/></g><g transform="translate(723.84,584.64) scale(0.696) rotate(0)"><rect width="20" height="2" fill="#8bffff"/><rect y="4" width="20" height="2" fill="#8bffff"/><rect y="8" width="20" height="2" fill="#8bffff"/><rect y="12" width="20" height="2" fill="#8bffff"/><rect y="16" width="20" height="2" fill="#8bffff"/></g><g transform="translate(793.44,584.64) scale(0.696) rotate(0)"><rect width="2" height="20" fill="#17ffff"/><rect x="4" width="2" height="20" fill="#17ffff"/><rect x="8" width="2" height="20" fill="#17ffff"/><rect x="12" width="2" height="20" fill="#17ffff"/><rect x="16" width="2" height="20" fill="#17ffff"/></g><g transform="translate(863.04,584.64) scale(0.696) rotate(0)"><rect width="20" height="2" fill="#17ffff"/><rect y="4" width="20" height="2" fill="#17ffff"/><rect y="8" width="20" height="2" fill="#17ffff"/><rect y="12" width="20" height="2" fill="#17ffff"/><rect y="16" width="20" height="2" fill="#17ffff"/></g><g transform="translate(932.64,584.64) scale(0.696) rotate(0)"><rect width="20" height="2" fill="#84ffff"/><rect y="4" width="20" height="2" fill="#84ffff"/><rect y="8" width="20" height="2" fill="#84ffff"/><rect y="12" width="20" height="2" fill="#84ffff"/><rect y="16" width="20" height="2" fill="#84ffff"/></g><g transform="translate(1071.84,584.64) scale(0.696) rotate(0)"><rect width="20" height="2" fill="#fffff2"/><rect y="4" width="20" height="2" fill="#fffff2"/><rect y="8" width="20" height="2" fill="#fffff2"/><rect y="12" width="20" height="2" fill="#fffff2"/><rect y="16" width="20" height="2" fill="#fffff2"/></g><g transform="translate(27.84,654.24) scale(0.696) rotate(0)"><rect width="20" height="2" fill="#ffff66"/><rect y="4" width="20" height="2" fill="#ffff66"/><rect y="8" width="20" height="2" fill="#ffff66"/><rect y="12" width="20" height="2" fill="#ffff66"/><rect y="16" width="20" height="2" fill="#ffff66"/></g><g transform="translate(97.44,654.24) scale(0.696) rotate(0)"><rect width="2" height="20" fill="#ffff6f"/><rect x="4" width="2" height="20" fill="#ffff6f"/><rect x="8" width="2" height="20" fill="#ffff6f"/><rect x="12" width="2" height="20" fill="#ffff6f"/><rect x="16" width="2" height="20" fill="#ffff6f"/></g><g transform="translate(306.24,654.24) scale(0.696) rotate(0)"><rect width="20" height="2" fill="#ff66b9"/><rect y="4" width="20" height="2" fill="#ff66b9"/><rect y="8" width="20" height="2" fill="#ff66b9"/><rect y="12" width="20" height="2" fill="#ff66b9"/><rect y="16" width="20" height="2" fill="#ff66b9"/></g><g transform="translate(375.84,654.24) scale(0.696) rotate(0)"><rect width="20" height="2" fill="#fff3f9"/><rect y="4" width="20" height="2" fill="#fff3f9"/><rect y="8" width="20" height="2" fill="#fff3f9"/><rect y="12" width="20" height="2" fill="#fff3f9"/><rect y="16" width="20" height="2" fill="#fff3f9"/></g><g transform="translate(515.04,654.24) scale(0.696) rotate(0)"><rect width="2" height="20" fill="#ffd3eb"/><rect x="4" width="2" height="20" fill="#ffd3eb"/><rect x="8" width="2" height="20" fill="#ffd3eb"/><rect x="12" width="2" height="20" fill="#ffd3eb"/><rect x="16" width="2" height="20" fill="#ffd3eb"/></g><g transform="translate(584.64,654.24) scale(0.696) rotate(0)"><rect width="20" height="2" fill="#ff1c97"/><rect y="4" width="20" height="2" fill="#ff1c97"/><rect y="8" width="20" height="2" fill="#ff1c97"/><rect y="12" width="20" height="2" fill="#ff1c97"/><rect y="16" width="20" height="2" fill="#ff1c97"/></g><g transform="translate(654.24,654.24) scale(0.696) rotate(0)"><rect width="2" height="20" fill="#ff1b96"/><rect x="4" width="2" height="20" fill="#ff1b96"/><rect x="8" width="2" height="20" fill="#ff1b96"/><rect x="12" width="2" height="20" fill="#ff1b96"/><rect x="16" width="2" height="20" fill="#ff1b96"/></g><g transform="translate(723.84,654.24) scale(0.696) rotate(0)"><rect width="2" height="20" fill="#ffdff0"/><rect x="4" width="2" height="20" fill="#ffdff0"/><rect x="8" width="2" height="20" fill="#ffdff0"/><rect x="12" width="2" height="20" fill="#ffdff0"/><rect x="16" width="2" height="20" fill="#ffdff0"/></g><g transform="translate(793.44,654.24) scale(0.696) rotate(0)"><rect width="20" height="2" fill="#ffff64"/><rect y="4" width="20" height="2" fill="#ffff64"/><rect y="8" width="20" height="2" fill="#ffff64"/><rect y="12" width="20" height="2" fill="#ffff64"/><rect y="16" width="20" height="2" fill="#ffff64"/></g><g transform="translate(1002.24,654.24) scale(0.696) rotate(0)"><rect width="20" height="2" fill="#ff32a1"/><rect y="4" width="20" height="2" fill="#ff32a1"/><rect y="8" width="20" height="2" fill="#ff32a1"/><rect y="12" width="20" height="2" fill="#ff32a1"/><rect y="16" width="20" height="2" fill="#ff32a1"/></g><g transform="translate(1071.84,654.24) scale(0.696) rotate(0)"><rect width="20" height="2" fill="#ffff40"/><rect y="4" width="20" height="2" fill="#ffff40"/><rect y="8" width="20" height="2" fill="#ffff40"/><rect y="12" width="20" height="2" fill="#ffff40"/><rect y="16" width="20" height="2" fill="#ffff40"/></g></g></svg>