<?xml version="1.0" encoding="UTF-8" standalone="no"?>
<svg
   width="762.65747"
   height="261.65399"
   viewBox="0 0 201.78645 69.229284"
   version="1.1"
   id="svg1"
   xmlns:xlink="http://www.w3.org/1999/xlink"
   xmlns="http://www.w3.org/2000/svg"
   xmlns:svg="http://www.w3.org/2000/svg">
  <defs
     id="defs1">
    <linearGradient
       id="swatch4">
      <stop
         style="stop-color:#ff1493;stop-opacity:1;"
         offset="0"
         id="stop4" />
    </linearGradient>
    <linearGradient
       xlink:href="#swatch4"
       id="linearGradient4"
       x1="44.663189"
       y1="105.74857"
       x2="245.69489"
       y2="105.74857"
       gradientUnits="userSpaceOnUse" />
  </defs>
  <g
     id="layer1"
     transform="translate(-44.338353,-71.13382)">
    <g
       id="g4">
      <path
         style="fill:#00ffff;fill-opacity:1;stroke:url(#linearGradient4);stroke-width:0.79375;stroke-dasharray:none;stroke-opacity:1"
         d="m 44.735229,71.512781 c 3.559064,1.107272 12.495563,2.582101 17.283858,3.516072 2.905583,0.566743 7.701108,1.472485 10.475602,1.805816 7.868204,1.42723 15.831162,2.215749 23.809156,2.772443 2.601496,-0.266084 5.125995,0.350079 7.692185,0.616097 5.03268,-0.106572 10.00652,0.891203 15.01809,1.232196 1.70558,0.09562 3.43196,-0.178307 5.12812,0 0.84845,0.08919 15.49854,0.52873 16.48327,0.616098 4.58394,0.406698 13.52689,0.258676 29.66986,1.848295 3.50064,0.344713 7.10955,-0.22726 10.62255,0 2.68143,0.173465 5.37634,0.719088 8.0585,0.924146 1.45915,0.111559 2.93636,-0.111558 4.39552,0 1.92411,0.147105 3.94668,0.414887 5.86072,0.6161 2.32623,0.244539 4.63106,0.98741 6.9596,1.232195 0.84809,0.08915 1.71797,-0.101653 2.56406,0 2.91882,0.350669 5.81958,0.308049 8.79107,0.308049 1.08552,0.167773 2.95424,0.0027 4.65268,0.256095 -0.73328,0.586902 -1.96242,1.253533 -3.1875,2.208297 -2.44623,2.136706 -4.59941,4.559643 -6.9596,6.777079 -0.90626,1.481545 -2.34647,2.080234 -5.3543,5.151861 -2.21532,2.03336 -2.88826,2.58069 -7.46601,5.9379 -1.06924,0.78415 -7.3259,4.62073 -7.3259,4.62073 0,0 1.02743,0.5799 2.12509,0.84623 0.41765,0.11707 1.5104,0.52845 1.90416,0.69402 1.37269,0.57721 3.00828,0.7322 4.39553,1.23221 1.92229,0.69282 3.46666,1.89594 5.49443,2.46438 1.80903,0.50712 3.80137,0.74923 5.49441,1.54024 0.53367,0.24934 0.91914,0.69455 1.46519,0.92415 0.45027,0.18934 0.9938,0.1594 1.46517,0.30805 1.71204,0.53993 3.42475,1.27529 5.12813,1.8483 1.58815,0.53424 2.74475,1.38552 4.39554,1.84829 1.50628,0.42225 2.86683,0.4554 4.39553,0.61609 1.7689,0.18596 2.74429,0.4649 4.46688,0.75463 0.47891,0.0806 1.75316,0.27262 2.23664,0.33062 0.85245,0.21744 2.46827,0.31019 3.92329,0.43242 1.04503,0.0878 4.01857,0.11822 6.22275,0.94673 -1.82298,0.71747 -3.35486,0.689 -5.45556,0.96089 -0.60675,0.0567 -2.29104,0.30366 -2.89682,0.36736 -1.3452,0.14141 -2.36337,0.40466 -3.73534,0.52004 -0.72896,0.0613 -1.46819,-0.0558 -2.19778,0 -0.62002,0.0474 -2.13038,0.14574 -2.74988,0.19784 -3.26397,0.2745 -5.69893,0.22168 -8.97155,0.41826 -2.57273,0.15455 -5.1166,0.81585 -7.69219,0.92415 -1.58529,0.0667 -3.17618,-0.0607 -4.76183,0 -3.74616,0.1432 -7.28122,1.20617 -10.98884,1.54024 -3.52905,0.31799 -7.07664,0.48645 -10.62255,0.6161 -1.34181,0.0491 -2.69121,-0.0978 -4.02924,0 -1.47981,0.10822 -2.91752,0.4918 -4.39554,0.6161 -3.65286,0.3072 -7.33155,0.34865 -10.98884,0.6161 -5.25306,0.38415 -10.50502,0.78204 -15.75067,1.23219 -3.05848,0.26247 -6.08774,0.78074 -9.15736,0.92415 -5.37191,0.25098 -10.71442,0.30805 -16.11698,0.30805 -2.92902,0 -4.23364,0.76828 -7.69218,0.41929 -3.66968,-0.3703 -6.86551,-0.20973 -10.57323,-0.0856 -7.351848,0.24621 -13.913258,-0.28525 -17.745867,-0.11125 -6.947926,-0.0346 -13.953747,0.76013 -17.751125,1.21753 -1.608426,0.19374 -6.182215,0.48844 -7.775103,0.71634 -1.660848,0.23763 -3.553935,0.42465 -5.202664,0.46914 -2.758984,0.0745 -5.042579,0.15045 -7.762458,0.66126 -1.52035,0.28553 -3.189844,0.15114 -4.983317,0.71789"
         id="path3" />
      <path
         style="fill:none;stroke:#ff1493;stroke-width:0.79375;stroke-dasharray:none;stroke-opacity:1"
         d="M 44.822203,139.995 44.735229,71.512781"
         id="path4" />
    </g>
  </g>
</svg>
