<svg xmlns="http://www.w3.org/2000/svg" xmlns:xlink="http://www.w3.org/1999/xlink" width="301" height="201" viewBox="0 0 79.64 53.181"><defs><linearGradient id="n"><stop offset="0" style="stop-color:#ff3;stop-opacity:1"/><stop offset="1" style="stop-color:#ff3;stop-opacity:0"/></linearGradient><linearGradient id="m"><stop offset="0" style="stop-color:#ff3;stop-opacity:1"/><stop offset="1" style="stop-color:#ff3;stop-opacity:0"/></linearGradient><linearGradient id="l"><stop offset="0" style="stop-color:#ff3;stop-opacity:1"/><stop offset="1" style="stop-color:#ff3;stop-opacity:0"/></linearGradient><linearGradient id="k"><stop offset="0" style="stop-color:#ff3;stop-opacity:1"/><stop offset="1" style="stop-color:#ff3;stop-opacity:0"/></linearGradient><linearGradient id="j"><stop offset="0" style="stop-color:#ff66b7;stop-opacity:1"/><stop offset="1" style="stop-color:#ff66b7;stop-opacity:0"/></linearGradient><linearGradient id="i"><stop offset="0" style="stop-color:#ff59b3;stop-opacity:1"/><stop offset="1" style="stop-color:#ff59b3;stop-opacity:0"/></linearGradient><linearGradient id="h"><stop offset="0" style="stop-color:#ff5ab3;stop-opacity:1"/><stop offset="1" style="stop-color:#ff1493;stop-opacity:0"/></linearGradient><linearGradient id="g"><stop offset="0" style="stop-color:#ff1493;stop-opacity:1"/><stop offset="1" style="stop-color:#ff1493;stop-opacity:0"/></linearGradient><linearGradient id="f"><stop offset="0" style="stop-color:#ff1493;stop-opacity:1"/><stop offset="1" style="stop-color:#ff1493;stop-opacity:0"/></linearGradient><linearGradient id="e"><stop offset="0" style="stop-color:#b81a1a;stop-opacity:1"/><stop offset="1" style="stop-color:#d12e2e;stop-opacity:0"/></linearGradient><linearGradient id="d"><stop offset="0" style="stop-color:#0ff;stop-opacity:1"/><stop offset="1" style="stop-color:#caffff;stop-opacity:.90070921"/></linearGradient><linearGradient id="c"><stop offset="0" style="stop-color:#0ff;stop-opacity:1"/><stop offset="1" style="stop-color:#e0ffff;stop-opacity:1"/></linearGradient><linearGradient id="b"><stop offset="0" style="stop-color:#0ff;stop-opacity:1"/><stop offset="1" style="stop-color:#d6ffff;stop-opacity:1"/></linearGradient><linearGradient id="a"><stop offset="0" style="stop-color:#0ff;stop-opacity:1"/><stop offset="1" style="stop-color:#0ff;stop-opacity:.99889272"/></linearGradient><linearGradient xlink:href="#a" id="w" x1="205.73" x2="206.102" y1="42.117" y2="19.083" gradientUnits="userSpaceOnUse"/><linearGradient xlink:href="#b" id="v" x1="349.67" x2="360.359" y1="131.038" y2="131.038" gradientUnits="userSpaceOnUse"/><linearGradient xlink:href="#c" id="u" x1="60.507" x2="81.409" y1="129.942" y2="129.942" gradientUnits="userSpaceOnUse"/><linearGradient xlink:href="#d" id="t" x1="198.191" x2="198.266" y1="217.02" y2="232.476" gradientTransform="translate(.032 -.024)scale(.26458)" gradientUnits="userSpaceOnUse"/><linearGradient xlink:href="#e" id="x" x1="205.73" x2="205.677" y1="42.117" y2="74.411" gradientUnits="userSpaceOnUse"/><linearGradient xlink:href="#f" id="D" x1="876.589" x2="907.336" y1="209.347" y2="208.503" gradientUnits="userSpaceOnUse"/><linearGradient xlink:href="#g" id="B" x1="669.275" x2="937.032" y1="291.962" y2="327.612" gradientUnits="userSpaceOnUse"/><linearGradient xlink:href="#h" id="E" x1="585.221" x2="639.193" y1="210.36" y2="210.36" gradientUnits="userSpaceOnUse"/><linearGradient xlink:href="#i" id="y" x1="240.968" x2="290.612" y1="17.12" y2="17.629" gradientUnits="userSpaceOnUse"/><linearGradient xlink:href="#g" id="F" x1="746.226" x2="745.957" y1="306.831" y2="284.49" gradientUnits="userSpaceOnUse"/><linearGradient xlink:href="#i" id="C" x1="260.639" x2="282.055" y1="17.12" y2="16.744" gradientUnits="userSpaceOnUse"/><linearGradient xlink:href="#j" id="s" x1="36.352" x2="25.754" y1="32.025" y2="32.13" gradientUnits="userSpaceOnUse"/><linearGradient xlink:href="#k" id="r" x1="318.481" x2="341.483" y1="542.572" y2="542.572" gradientUnits="userSpaceOnUse"/><linearGradient xlink:href="#l" id="o" x1="464.948" x2="468.268" y1="436.362" y2="479.822" gradientUnits="userSpaceOnUse"/><linearGradient xlink:href="#m" id="p" x1="601.877" x2="620.729" y1="542.767" y2="542.477" gradientUnits="userSpaceOnUse"/><linearGradient xlink:href="#n" id="q" x1="463.212" x2="464.645" y1="616.148" y2="659.276" gradientUnits="userSpaceOnUse"/><linearGradient xlink:href="#f" id="z" x1="876.589" x2="907.336" y1="209.347" y2="208.503" gradientUnits="userSpaceOnUse"/><linearGradient xlink:href="#h" id="A" x1="585.221" x2="639.193" y1="210.36" y2="210.36" gradientUnits="userSpaceOnUse"/></defs><text xml:space="preserve" x="-.477" y="-11.372" style="font-size:4.23333px;line-height:normal;font-family:FreeMono;-inkscape-font-specification:FreeMono;text-align:start;text-decoration-color:#000;writing-mode:lr-tb;direction:ltr;text-anchor:start;fill:#000;fill-rule:evenodd;stroke:#000;stroke-width:.00264583;stroke-linecap:square;paint-order:markers stroke fill" transform="translate(-15.743 -7.805)"><tspan x="-.477" y="-11.372" style="font-size:4.23333px;stroke-width:.00264583">#<tspan style="fill:#0ff;fill-opacity:1">00FFFF</tspan>; // Cyan</tspan><tspan x="-.477" y="-6.08" style="font-size:4.23333px;stroke-width:.00264583">#ff1493; //  Deep pink</tspan><tspan x="-.477" y="-.789" style="font-size:4.23333px;stroke-width:.00264583">#FFFF33; // Yellow</tspan></text><path d="M84.075 117.001h79.375v52.917H84.075z" style="fill:none;fill-rule:evenodd;stroke:#000;stroke-width:.264583" transform="translate(-15.743 -7.805)"/><path d="M84.23 116.975c.44 1.285 2.187 1.833 3.373 2.7 1.078.787.974.595 1.726 1.345" style="fill:none;stroke:#000;stroke-width:.264583px;stroke-linecap:butt;stroke-linejoin:miter;stroke-opacity:1" transform="translate(-15.743 -7.805)"/><path d="M89.304 121.01c3.974.451 9.308.542 12.95.415 3.137-.11 12.707-.27 18.562.12 8.064.538 16.343.647 24.414.432 3.523-.094 11.349-.28 13.427-.211.306-.703 3.56-2.476 4.71-4.776m-4.797 4.819c1.059 6.216-.224 17.909-.131 20.174.107 2.604.295 6.687.141 9.308-.188 3.215-.364 6.83-.36 10.623 0 .71-.02 1.913.173 2.685.826.597 1.59 2.708 2.609 3.474 1.124.845 1.351.723 2.312 1.748" style="fill:none;stroke:#000;stroke-width:.264583px;stroke-linecap:butt;stroke-linejoin:miter;stroke-opacity:1" transform="translate(-15.743 -7.805)"/><path d="M158.379 164.48c-3.685.914-8.892.094-12.598.359-3.609.257-7.04-.188-10.65.052-3.218.215-10.88.328-13.998.202-2.578-.105-5.87.046-8.335-.178-4.654-.423-8.384.362-12.976.144-1.304-.062-2.087.39-3.343.11-1.909-.424-4.654-.326-6.507-.326-1.612 1.453-3.914 4.518-5.812 4.992" style="fill:none;stroke:#000;stroke-width:.264583px;stroke-linecap:butt;stroke-linejoin:miter;stroke-opacity:1" transform="translate(-15.743 -7.805)"/><path d="M89.925 164.91c-.543-5.338-.959-11.92-.83-18.387.148-7.54.349-14.682.287-17.233-.057-2.348.006-6.455-.084-8.34" style="fill:none;stroke:#000;stroke-width:.264583px;stroke-linecap:butt;stroke-linejoin:miter;stroke-opacity:1" transform="translate(-15.743 -7.805)"/><path d="M494.948 460.438c-9.747-.263-24.044-.887-33.949-1.483-14.9-.896-38.712-1.283-58.822-.956-32.927.535-46.912.34-59.592-.834-4.438-.411-4.681-.473-5.714-1.45-1.407-1.333-6.63-4.879-10.659-7.238-3.324-1.947-5.813-3.885-6.402-4.986-.339-.632 2.043-.642 148.084-.642h148.429l-1.085 1.596c-1.587 2.337-5.924 6.545-10.712 10.395-2.31 1.858-4.49 3.701-4.842 4.096-.63.707-.827.719-11.932.727-6.211.004-20.066.227-30.788.495-16.568.415-51.196.571-62.016.28" style="fill:url(#o);fill-opacity:1;fill-rule:evenodd;stroke:none;stroke-width:.268902;stroke-linecap:square;stroke-dasharray:none;paint-order:markers stroke fill" transform="translate(-15.743 -7.805)scale(.26458)"/><path d="M616.09 639.776c-.352-.394-2.166-1.742-4.032-2.997-3.953-2.659-5.286-4.083-8.036-8.586-1.11-1.817-2.698-4.141-3.53-5.166l-1.512-1.863.028-15.966c.016-8.781.213-18.84.438-22.352.681-10.625.832-24.76.398-37.276-.395-11.394-.378-12.312.48-26.757 1.451-24.441 1.5-45.465.13-55.403-.286-2.066-.256-2.592.183-3.262.288-.44 2.422-2.33 4.742-4.2 5.443-4.39 8.198-6.98 10.073-9.475l1.51-2.01v98.014c0 53.908-.051 98.015-.115 98.015s-.404-.322-.756-.716" style="fill:url(#p);fill-opacity:1;fill-rule:evenodd;stroke:none;stroke-width:.268902;stroke-linecap:square;stroke-dasharray:none;paint-order:markers stroke fill" transform="translate(-15.743 -7.805)scale(.26458)"/><path d="M323.219 640.124c1.339-.856 4.998-4.224 9.68-8.908l7.526-7.53h6.927c7.387 0 12.58.368 17.145 1.215 2.36.439 3.367.461 6.15.137 1.83-.212 8.123-.439 13.984-.502 5.86-.064 13.151-.297 16.202-.518 6.981-.505 20.372-.534 25.881-.056 7.117.617 60.351.884 72.1.362 5.945-.264 19.257-.453 32.436-.46 12.294-.006 22.549-.137 22.788-.292s6.901-.09 14.803.143c14.88.44 21.486.236 27.046-.835l2.285-.44 1.143 1.335c.629.735 2.14 2.972 3.36 4.972 2.908 4.773 4.599 6.594 8.52 9.179 1.786 1.177 3.535 2.462 3.887 2.857l.64.717H321.066Z" style="fill:url(#q);fill-opacity:1;fill-rule:evenodd;stroke:none;stroke-width:.268902;stroke-linecap:square;stroke-dasharray:none;paint-order:markers stroke fill" transform="translate(-15.743 -7.805)scale(.26458)"/><path d="M318.481 542.572v-98.255l1.644 1.584c.905.872 3.363 2.604 5.463 3.849 4.444 2.635 9.541 6.133 10.621 7.288l.754.806.055 26.367c.035 17.203-.153 35.012-.541 51.24-.85 35.55-.34 55.199 2.116 81.4l.572 6.107-7.737 7.677c-5.639 5.596-8.327 8.02-9.914 8.935-1.197.692-2.37 1.258-2.605 1.258-.345 0-.428-18.939-.428-98.256" style="fill:url(#r);fill-opacity:1;fill-rule:evenodd;stroke:none;stroke-width:.268902;stroke-linecap:square;stroke-dasharray:none;paint-order:markers stroke fill" transform="translate(-15.743 -7.805)scale(.26458)"/><g transform="translate(-15.743 -7.805)"><ellipse cx="94.066" cy="118.983" rx=".594" ry=".571" style="fill:none;fill-rule:evenodd;stroke:#000;stroke-width:.165477"/><ellipse cx="150.98" cy="119.466" rx=".594" ry=".571" style="fill:none;fill-rule:evenodd;stroke:#000;stroke-width:.165477"/><ellipse cx="129.284" cy="119.5" rx=".594" ry=".571" style="fill:none;fill-rule:evenodd;stroke:#000;stroke-width:.165477"/><ellipse cx="118.975" cy="119.25" rx=".594" ry=".571" style="fill:none;fill-rule:evenodd;stroke:#000;stroke-width:.165477"/><ellipse cx="140.3" cy="119.836" rx=".594" ry=".571" style="fill:none;fill-rule:evenodd;stroke:#000;stroke-width:.165477"/><ellipse cx="110.465" cy="119.466" rx=".594" ry=".571" style="fill:none;fill-rule:evenodd;stroke:#000;stroke-width:.165477"/><ellipse cx="100.75" cy="119.466" rx=".594" ry=".571" style="fill:none;fill-rule:evenodd;stroke:#000;stroke-width:.165477"/><ellipse cx="86.694" cy="159.016" rx=".594" ry=".571" style="fill:none;fill-rule:evenodd;stroke:#000;stroke-width:.165477"/><ellipse cx="86.762" cy="150.748" rx=".594" ry=".571" style="fill:none;fill-rule:evenodd;stroke:#000;stroke-width:.165477"/><ellipse cx="86.487" cy="131.386" rx=".594" ry=".571" style="fill:none;fill-rule:evenodd;stroke:#000;stroke-width:.165477"/><ellipse cx="86.487" cy="124.358" rx=".594" ry=".571" style="fill:none;fill-rule:evenodd;stroke:#000;stroke-width:.165477"/><ellipse cx="86.487" cy="140.757" rx=".594" ry=".571" style="fill:none;fill-rule:evenodd;stroke:#000;stroke-width:.165477"/><ellipse cx="161.349" cy="125.988" rx=".594" ry=".571" style="fill:none;fill-rule:evenodd;stroke:#000;stroke-width:.165477"/><ellipse cx="161.269" cy="161.599" rx=".594" ry=".571" style="fill:none;fill-rule:evenodd;stroke:#000;stroke-width:.165477"/><ellipse cx="161.189" cy="151.698" rx=".594" ry=".571" style="fill:none;fill-rule:evenodd;stroke:#000;stroke-width:.165477"/><ellipse cx="160.79" cy="143.154" rx=".594" ry=".571" style="fill:none;fill-rule:evenodd;stroke:#000;stroke-width:.165477"/><ellipse cx="161.269" cy="133.972" rx=".594" ry=".571" style="fill:none;fill-rule:evenodd;stroke:#000;stroke-width:.165477"/><ellipse cx="93.081" cy="167.747" rx=".594" ry=".571" style="fill:none;fill-rule:evenodd;stroke:#000;stroke-width:.165477"/><ellipse cx="93.081" cy="167.747" rx=".594" ry=".571" style="fill:none;fill-rule:evenodd;stroke:#000;stroke-width:.165477"/><ellipse cx="114.56" cy="167.507" rx=".594" ry=".571" style="fill:none;fill-rule:evenodd;stroke:#000;stroke-width:.165477"/><ellipse cx="129.331" cy="167.667" rx=".594" ry=".571" style="fill:none;fill-rule:evenodd;stroke:#000;stroke-width:.165477"/><ellipse cx="139.471" cy="167.587" rx=".594" ry=".571" style="fill:none;fill-rule:evenodd;stroke:#000;stroke-width:.165477"/><ellipse cx="150.49" cy="167.587" rx=".594" ry=".571" style="fill:none;fill-rule:evenodd;stroke:#000;stroke-width:.165477"/><ellipse cx="101.385" cy="167.507" rx=".594" ry=".571" style="fill:none;fill-rule:evenodd;stroke:#000;stroke-width:.165477"/><ellipse cx="94.066" cy="118.983" rx=".594" ry=".571" style="fill:none;fill-rule:evenodd;stroke:#000;stroke-width:.165477"/></g><path d="m95.25 7.937-5.292 5.292c.533 4.075-.68 8.818-.2 12.906.612 5.194.53 10.087.023 14.997-.287 2.785-1.254 3.169-1.184 5.862.086 3.339.665 7.568 1.303 8.554 1.575 1.738 3.91 3.928 5.35 5.306" style="fill:none;stroke:#000;stroke-width:.264583px;stroke-linecap:butt;stroke-linejoin:miter;stroke-opacity:1" transform="translate(-15.743 -7.805)"/><path d="M89.958 55.562a87.4 87.4 0 0 1-13.578 1.045c-6.967-.009-13.923-.85-20.885-.61-3.983.137-7.957.629-11.942.542-3.62-.078-7.224-.633-10.845-.568-1.772.031-3.54.212-5.312.227a28.5 28.5 0 0 1-6.23-.636l-5.291 5.292" style="fill:none;stroke:#000;stroke-width:.264583px;stroke-linecap:butt;stroke-linejoin:miter;stroke-opacity:1" transform="translate(-15.743 -7.805)"/><path d="m15.875 7.937 5.292 5.292a142 142 0 0 0-.093 6.34c.047 5.991.473 11.973.602 17.963a181 181 0 0 1-.51 18.03" style="fill:url(#s);stroke:#000;stroke-width:.264583px;stroke-linecap:butt;stroke-linejoin:miter;stroke-opacity:1" transform="translate(-15.743 -7.805)"/><path d="M15.875 7.937H95.25v52.917H15.875z" style="fill:none;fill-rule:evenodd;stroke:#000;stroke-width:.264583" transform="translate(-15.743 -7.805)"/><path d="M21.167 13.23a112 112 0 0 1 19.003-.637c3.83.197 7.651.591 11.486.636 5.402.063 10.795-.567 16.197-.503 5.69.068 11.356.905 17.046.822 1.69-.025 3.38-.132 5.06-.319" style="fill:none;stroke:#000;stroke-width:.264583px;stroke-linecap:butt;stroke-linejoin:miter;stroke-opacity:1" transform="translate(-15.743 -7.805)"/><path d="M349.94 219.286c-5.886-5.828-9.58-9.704-9.931-10.415-1.875-3.812-3.61-14.799-4.328-27.415-.404-7.092-.149-9.32 1.73-15.096 1.795-5.523 2.14-7.085 2.665-12.108.884-8.438 1.301-17.129 1.306-27.144.004-10.846-.251-16.145-1.214-25.223-.824-7.772-.798-15.943.082-26.074.49-5.652.663-9.777.695-16.675l.044-9.165 9.256-9.256 9.256-9.256v98.554c0 54.205-.042 98.554-.094 98.554s-4.312-4.176-9.467-9.281" style="fill:#0ff;fill-opacity:1;stroke:none;stroke-width:.283406" transform="translate(-15.743 -7.805)scale(.26458)"/><path d="m18.779 58.203 2.474-2.473.825.15c2.443.446 4.456.525 8.427.333 3.106-.15 4.565-.118 8.37.19 4.53.365 6.808.365 12.072.001 3.929-.271 5.582-.324 8.623-.276 2.721.042 3.775.085 9.486.386 1.175.061 3.318.147 4.761.191 4.922.148 10.377-.153 15.031-.829l1.01-.146 1.427 1.45c.786.798 1.91 1.91 2.498 2.473l1.07 1.023h-78.55Z" style="fill:url(#t);fill-opacity:1;stroke:none;stroke-width:.0749845" transform="translate(-15.743 -7.805)"/><path d="M60.507 129.942v-98.48l9.374 9.35 9.375 9.351-.188 11.053c-.212 12.438.098 26.25 1.14 50.871 1.755 41.467 1.617 62.798-.612 94.841l-.18 2.592-9.454 9.451-9.455 9.451z" style="fill:url(#u);stroke:none;stroke-width:.283406" transform="translate(-15.743 -7.805)scale(.26458)"/><path d="M350.087 219.158c-4.903-4.879-9.249-9.38-9.657-10.004-2.005-3.056-4.229-17.168-4.646-29.474-.205-6.051-.033-7.29 1.894-13.66 1.758-5.81 2.13-7.663 2.665-13.264.803-8.405 1.053-14.684 1.05-26.357-.005-11.608-.182-15.556-1.083-24.09-.646-6.113-.627-19.041.037-26.073.293-3.096.547-9.238.648-15.629l.165-10.528 9.2-9.169 9.2-9.168-.194 98.058c-.107 53.932-.233 98.096-.28 98.143s-4.096-3.906-8.999-8.785z" style="fill:url(#v);fill-rule:evenodd;stroke:#000;stroke-width:.00283406;stroke-linecap:square;paint-order:markers stroke fill" transform="translate(-15.743 -7.805)scale(.26458)"/><path d="M305.977 50.319c-4.685-.241-11.158-.671-28.566-1.9-17.444-1.23-29.215-1.233-51.729-.012-24.286 1.317-33.222 1.25-57.997-.439-18.175-1.238-24.156-1.47-37.796-1.466-16.252.004-29.128.644-43.61 2.168l-6.12.644-9.377-9.38-9.376-9.38h296.968l-9.446 9.437-9.445 9.437-5.167.458c-6.336.562-21.36.791-28.339.433z" style="fill:url(#w);fill-opacity:1;fill-rule:evenodd;stroke:url(#x);stroke-width:.003;stroke-linecap:square;stroke-dasharray:none;paint-order:markers stroke fill" transform="translate(-15.743 -7.805)scale(.26458)"/><path d="M93.073 15.032c-.821.862-1.872 1.653-3.08 1.37-1.19-.278-1.892-1.947-1.39-3.032.605-1.31 3.203-2.788 3.203-2.788l3.326-2.52-.384 3.792s-.131 1.557-1.675 3.178zM88.65 57.351c-.69-.97-1.265-2.153-.756-3.285.5-1.114 2.274-1.484 3.242-.785 1.17.845 2.124 3.677 2.124 3.677l1.839 3.747-3.65-1.102s-1.503-.426-2.799-2.252zm-69.567-3.377c.937-.736 2.09-1.368 3.245-.915 1.137.446 1.593 2.2.941 3.2-.787 1.21-3.57 2.3-3.57 2.3l-3.652 2.019.923-3.7s.353-1.521 2.113-2.904zm3.791-43.088c.786.895 1.481 2.011 1.093 3.19-.383 1.16-2.108 1.712-3.144 1.116-1.25-.719-2.493-3.437-2.493-3.437l-2.217-3.536 3.744.717s1.54.269 3.017 1.95z" style="opacity:1;fill:#0ff;fill-rule:evenodd;stroke:#000;stroke-width:.211667;stop-color:#000;stop-opacity:1" transform="translate(-15.743 -7.805)"/><path d="M237.214 18.741c-.251-.026-4.443-.398-13.958-.316a27 27 0 0 1-2.153-.066c-.362-.025-.794-.013-1.176-.013l-13.661.025-.401-.378c-.172-.162-.704-.325-1.172-.761-.44-.412-.807-1.082-1.311-1.744-.538-.707-1.018-1.32-1.149-1.436-.131-.117-.756-.659-.756-.71 0-.114 26.565-.117 56.34-.014l22.045.04-1.056.727c-.929.64-1.738 1.54-2.827 3.01-.441.595-.859 1.276-.906 1.34-.224.313-.513.216-1.299.326-1.1.155-2.881.001-4.712-.12-2.776-.186-6.368-.107-10.215-.1-.872.001-1.8.042-2.723.117-1.394.112-2.773.06-3.611.074-2.098.034-4.08-.143-5.776-.084-3.214.11-5.527.133-6.146.15-1.26.032-2.429.03-2.92-.02z" style="fill:url(#y);fill-rule:evenodd;stroke:#ff1493;stroke-width:.000334925;stroke-linecap:square;stroke-dasharray:none;stroke-opacity:1;paint-order:markers stroke fill" transform="translate(-58.92 7.961)"/><path d="M886.225 298.662c-5.103-5.242-9.759-9.605-9.794-9.71-.489-1.44-.709-22.136.059-40.39.562-13.362.624-27.988.48-33.674-.071-2.866-.468-7.213-.507-12.223-.191-24.41-.262-68.2.058-70.61.306-2.307 1.059-3.448 3.322-6.753 3.44-5.023 8.573-10.293 12.557-13.047 1.761-1.217 3.507-3.142 4.07-2.175.559.956.013 45.196-.018 99.315l-.057 99.714z" style="fill:url(#z);fill-opacity:1;fill-rule:evenodd;stroke:none;stroke-width:.001;stroke-linecap:square;stroke-dasharray:none;stroke-opacity:1;paint-order:markers stroke fill" transform="translate(-15.743 -7.805)scale(.26458)"/><path d="M597.113 208.705v-98.557l2.365 1.37c1.52.882 3.862 4.933 7.528 10.078 1.781 2.5 3.373 3.403 5.349 5.18l3.751 2.554-.336 23.954c-.097 6.888.217 13.53.156 20.006-.136 14.654.187 28.17.163 40.454-.016 8.01.365 15.477.359 22.35-.018 20.454.47 35.98.328 44.505-.08 4.839-.258 7.873-.606 8.8-.808 2.156-4.346 6.45-12.234 12.932l-6.775 6.443-.23-48.084.015-37.282z" style="fill:url(#A);fill-opacity:1;fill-rule:evenodd;stroke:none;stroke-width:.000421954;stroke-linecap:square;stroke-dasharray:none;stroke-opacity:1;paint-order:markers stroke fill" transform="translate(-15.743 -7.805)scale(.26458)"/><path d="M601.608 305.23c5.269-4.814 12.11-11.782 13.921-14.028 1.426-1.768 1.96-1.69 3.413-1.186 1.008.35 5.318.827 13.665.873 3.337.018 7.27-.345 10.867-.2 3.66.145 6.876.311 9.064.403 6.282.265 9.733.175 16.942-.44 7.902-.676 10.47-.573 20.544-.2 7.68.285 13.873.435 18.226.157 3.753-.24 13.428-.955 24.14-.92 14.59.047 31.285.553 38.23.916 7.604.399 11.35.204 17.09-.193 3.237-.224 15.325-.943 29.395-1.062 22.95-.194 51.507-.373 55.156.23l4.302.175 9.396 9.539 9.64 10.076-148.95-.312-149.391.372z" style="fill:url(#B);fill-opacity:1;fill-rule:evenodd;stroke:none;stroke-width:.000421954;stroke-linecap:square;stroke-dasharray:none;stroke-opacity:1;paint-order:markers stroke fill" transform="translate(-15.743 -7.805)scale(.26458)"/><path d="M201.083 13.229h79.375v52.917h-79.375z" style="fill:none;fill-rule:evenodd;stroke:#000;stroke-width:.264583" transform="translate(-58.92 7.961)"/><path d="M201.143 13.278c1.494.786 2.574 3.16 3.433 3.933.596.536 1.127.72 1.664 1.256-.422 2.168-.056 4.667-.045 6.852.022 4.112.045 7.92.045 12.003 0 4.273.171 8.56.069 12.813-.086 3.565.388 7.782-.019 10.738-1.27 1.9-3.844 3.837-5.169 5.162m5.196-5.28c2.443.765 5.544.11 8.136.396 1.529.169 3.098.133 4.635.026.59-.04 1.154-.07 1.741-.136 3.003-.333 5.857.144 8.552.05 2.486-.087 4.946-.37 7.691-.262 3.51.14 7.444-.05 10.951.269 1.466.133 2.99-.013 4.42-.132 2.06-.172 3.64.149 5.706-.134 1.12-.153 6.135.043 9.927-.073 2.425-.075 6.8-.13 7.148.198 2.323 2.32 3.193 3.219 5.08 5.106m-.041-52.873c-1.597 1.149-2.037 1.18-3.796 3.376-.21.26-1.161 1.622-1.326 1.951" style="fill:none;stroke:#000;stroke-width:.264583px;stroke-linecap:butt;stroke-linejoin:miter;stroke-opacity:1" transform="translate(-58.92 7.961)"/><path d="M275.15 18.485c-.34 1.931-.242 3.759-.148 5.7.105 2.171-.083 4.44.05 6.639.169 2.783-.21 5.614-.03 8.417.236 3.675.04 7.427-.039 11.04-.037 1.7-.204 4.781-.075 7.575.048 1.033-.15 2.482.276 3.05M206.2 18.45c5.425-.37 10.963-.166 16.299.057 4.293.178 8.722-.431 12.982.15 3.881.529 7.68.095 11.61.095 3.46 0 6.756.192 10.22-.038 1.837-.123 5.29-.014 8.628-.096 3.636-.09 7.528.754 9.178-.07" style="fill:none;stroke:#000;stroke-width:.264583px;stroke-linecap:butt;stroke-linejoin:miter;stroke-opacity:1" transform="translate(-58.92 7.961)"/><path d="M157.946 29.323c-.374-2.993 4.128-5.72 6.46-3.43 1.096 1.077 1.594 2.29 2.137 3.353.297-1.088.68-2.42 1.488-3.216 2.578-2.54 5.241-.71 6.067-.307 1.13.552 1.944 2.727 2.306 3.435.518-3.25 1.213-3.813 3.247-4.497 2.1-.705 3.585-.002 4.304.468 1.173.767 1.43 3.46 1.721 4.03 2.182-5.994 6.733-5.957 8.26-.073 3.175-4.673 6.67-5.723 9.02.004 1.416-5.88 8.184-5.737 9.607-.255.163-1.946 1.563-2.85 2.832-3.818 2.7-2.063 4.213 2.071 5.427 3.66 1.152-5.887 6.63-4.391 7.588.185.681-3.297 4.82-5.373 7.392-2.847.628.616 1.076 2.518 1.29 2.938" style="fill:#ff66b9;fill-opacity:1;stroke:#000;stroke-width:.264583px;stroke-linecap:butt;stroke-linejoin:miter;stroke-opacity:1" transform="translate(-15.743 -7.805)"/><path d="M237.214 18.741c-.251-.026-4.443-.398-13.958-.316a27 27 0 0 1-2.153-.066c-.362-.025-.794-.013-1.176-.013l-13.661.025-.401-.378c-.172-.162-.704-.325-1.172-.761-.44-.412-.807-1.082-1.311-1.744-.538-.707-1.018-1.32-1.149-1.436-.131-.117-.756-.659-.756-.71 0-.114 26.565-.117 56.34-.014l22.045.04-1.056.727c-.929.64-1.738 1.54-2.827 3.01-.441.595-.859 1.276-.906 1.34-.224.313-.513.216-1.299.326-1.1.155-2.881.001-4.712-.12-2.776-.186-6.368-.107-10.215-.1-.872.001-1.8.042-2.723.117-1.394.112-2.773.06-3.611.074-2.098.034-4.08-.143-5.776-.084-3.214.11-5.527.133-6.146.15-1.26.032-2.429.03-2.92-.02z" style="fill:url(#C);fill-rule:evenodd;stroke:#ff1493;stroke-width:.000334925;stroke-linecap:square;stroke-dasharray:none;stroke-opacity:1;paint-order:markers stroke fill" transform="translate(-58.92 7.961)"/><path d="M886.225 298.662c-5.103-5.242-9.759-9.605-9.794-9.71-.489-1.44-.709-22.136.059-40.39.562-13.362.624-27.988.48-33.674-.071-2.866-.468-7.213-.507-12.223-.191-24.41-.262-68.2.058-70.61.306-2.307 1.059-3.448 3.322-6.753 3.44-5.023 8.573-10.293 12.557-13.047 1.761-1.217 3.507-3.142 4.07-2.175.559.956.013 45.196-.018 99.315l-.057 99.714z" style="fill:url(#D);fill-opacity:1;fill-rule:evenodd;stroke:none;stroke-width:.001;stroke-linecap:square;stroke-dasharray:none;stroke-opacity:1;paint-order:markers stroke fill" transform="translate(-15.743 -7.805)scale(.26458)"/><path d="M597.113 208.705v-98.557l2.365 1.37c1.52.882 3.862 4.933 7.528 10.078 1.781 2.5 3.373 3.403 5.349 5.18l3.751 2.554-.336 23.954c-.097 6.888.217 13.53.156 20.006-.136 14.654.187 28.17.163 40.454-.016 8.01.365 15.477.359 22.35-.018 20.454.47 35.98.328 44.505-.08 4.839-.258 7.873-.606 8.8-.808 2.156-4.346 6.45-12.234 12.932l-6.775 6.443-.23-48.084.015-37.282z" style="fill:url(#E);fill-opacity:1;fill-rule:evenodd;stroke:none;stroke-width:.000421954;stroke-linecap:square;stroke-dasharray:none;stroke-opacity:1;paint-order:markers stroke fill" transform="translate(-15.743 -7.805)scale(.26458)"/><path d="M601.608 305.23c5.269-4.814 12.11-11.782 13.921-14.028 1.426-1.768 1.96-1.69 3.413-1.186 1.008.35 5.318.827 13.665.873 3.337.018 7.27-.345 10.867-.2 3.66.145 6.876.311 9.064.403 6.282.265 9.733.175 16.942-.44 7.902-.676 10.47-.573 20.544-.2 7.68.285 13.873.435 18.226.157 3.753-.24 13.428-.955 24.14-.92 14.59.047 31.285.553 38.23.916 7.604.399 11.35.204 17.09-.193 3.237-.224 15.325-.943 29.395-1.062 22.95-.194 51.507-.373 55.156.23l4.302.175 9.396 9.539 9.64 10.076-148.95-.312-149.391.372z" style="fill:url(#F);fill-opacity:1;fill-rule:evenodd;stroke:none;stroke-width:.000421954;stroke-linecap:square;stroke-dasharray:none;stroke-opacity:1;paint-order:markers stroke fill" transform="translate(-15.743 -7.805)scale(.26458)"/><path d="M201.083 13.229h79.375v52.917h-79.375z" style="fill:none;fill-rule:evenodd;stroke:#000;stroke-width:.264583" transform="translate(-58.92 7.961)"/><path d="M201.143 13.278c1.494.786 2.574 3.16 3.433 3.933.596.536 1.127.72 1.664 1.256-.422 2.168-.056 4.667-.045 6.852.022 4.112.045 7.92.045 12.003 0 4.273.171 8.56.069 12.813-.086 3.565.388 7.782-.019 10.738-1.27 1.9-3.844 3.837-5.169 5.162m5.196-5.28c2.443.765 5.544.11 8.136.396 1.529.169 3.098.133 4.635.026.59-.04 1.154-.07 1.741-.136 3.003-.333 5.857.144 8.552.05 2.486-.087 4.946-.37 7.691-.262 3.51.14 7.444-.05 10.951.269 1.466.133 2.99-.013 4.42-.132 2.06-.172 3.64.149 5.706-.134 1.12-.153 6.135.043 9.927-.073 2.425-.075 6.8-.13 7.148.198 2.323 2.32 3.193 3.219 5.08 5.106m-.041-52.873c-1.597 1.149-2.037 1.18-3.796 3.376-.21.26-1.161 1.622-1.326 1.951" style="fill:none;stroke:#000;stroke-width:.264583px;stroke-linecap:butt;stroke-linejoin:miter;stroke-opacity:1" transform="translate(-58.92 7.961)"/><path d="M275.15 18.485c-.34 1.931-.242 3.759-.148 5.7.105 2.171-.083 4.44.05 6.639.169 2.783-.21 5.614-.03 8.417.236 3.675.04 7.427-.039 11.04-.037 1.7-.204 4.781-.075 7.575.048 1.033-.15 2.482.276 3.05M206.2 18.45c5.425-.37 10.963-.166 16.299.057 4.293.178 8.722-.431 12.982.15 3.881.529 7.68.095 11.61.095 3.46 0 6.756.192 10.22-.038 1.837-.123 5.29-.014 8.628-.096 3.636-.09 7.528.754 9.178-.07" style="fill:none;stroke:#000;stroke-width:.264583px;stroke-linecap:butt;stroke-linejoin:miter;stroke-opacity:1" transform="translate(-58.92 7.961)"/><path d="M157.946 29.323c-.374-2.993 4.128-5.72 6.46-3.43 1.096 1.077 1.594 2.29 2.137 3.353.297-1.088.68-2.42 1.488-3.216 2.578-2.54 5.241-.71 6.067-.307 1.13.552 1.944 2.727 2.306 3.435.518-3.25 1.213-3.813 3.247-4.497 2.1-.705 3.585-.002 4.304.468 1.173.767 1.43 3.46 1.721 4.03 2.182-5.994 6.733-5.957 8.26-.073 3.175-4.673 6.67-5.723 9.02.004 1.416-5.88 8.184-5.737 9.607-.255.163-1.946 1.563-2.85 2.832-3.818 2.7-2.063 4.213 2.071 5.427 3.66 1.152-5.887 6.63-4.391 7.588.185.681-3.297 4.82-5.373 7.392-2.847.628.616 1.076 2.518 1.29 2.938m-79.355 53.195c-7.819-1.026-7.763-8.098-.638-11.736-2.381-.646-5.791-6.124-4.058-8.476.97-1.317 2.699-1.757 3.965-2.404-4.163-.503-7.015-6.229-3.744-9.556.644-.655 3.033-.746 3.654-1-7.48-1.973-6.397-8.788.02-10.45-5.938-.027-6.257-6.11-1.581-8.497.823-.42 1.443-.903 2.15-.557m79.711-.414c7.819 1.025 7.764 8.098.64 11.737 2.38.646 5.791 6.123 4.059 8.475-.97 1.317-2.7 1.758-3.966 2.405 4.163.502 7.016 6.227 3.746 9.555-.644.655-3.033.746-3.655 1.001 7.48 1.971 6.399 8.787-.017 10.45 5.938.026 6.257 6.108 1.581 8.497-.823.42-1.443.902-2.15.557" style="fill:#ff66b7;fill-opacity:1;stroke:#000;stroke-width:.264583px;stroke-linecap:butt;stroke-linejoin:miter;stroke-opacity:1" transform="rotate(-179.76 189.657 51.661)"/></svg>