<svg xmlns="http://www.w3.org/2000/svg" xmlns:xlink="http://www.w3.org/1999/xlink" width="346.86" height="236.974" viewBox="0 0 91.773 62.699">
	<defs>
		<linearGradient id="d">
			<stop offset="0" style={{ stopColor: "#ff59b3", stopOpacity: 1 }}/>
			<stop offset="1" style="stop-color:#ff59b3;stop-opacity:0"/>
		</linearGradient>
		<linearGradient id="c">
			<stop offset="0" style="stop-color:#ff5ab3;stop-opacity:1"/>
			<stop offset="1" style="stop-color:#ff1493;stop-opacity:0"/>
		</linearGradient><linearGradient id="b">
			<stop offset="0" style="stop-color:#ff1493;stop-opacity:1"/>
			<stop offset="1" style="stop-color:#ff1493;stop-opacity:0"/>
		</linearGradient>
		<linearGradient id="a">
			<stop offset="0" style="stop-color:#ff1493;stop-opacity:1"/>
			<stop offset="1" style="stop-color:#ff1493;stop-opacity:0"/>
		</linearGradient>
		<linearGradient xlink:href="#a" id="j" x1="876.589" x2="907.336" y1="209.347" y2="208.503" gradientUnits="userSpaceOnUse"/>
		<linearGradient xlink:href="#b" id="h" x1="669.275" x2="937.032" y1="291.962" y2="327.612" gradientUnits="userSpaceOnUse"/>
		<linearGradient xlink:href="#c" id="k" x1="585.221" x2="639.193" y1="210.36" y2="210.36" gradientUnits="userSpaceOnUse"/>
		<linearGradient xlink:href="#d" id="e" x1="240.968" x2="290.612" y1="17.12" y2="17.629" gradientUnits="userSpaceOnUse"/>
		<linearGradient xlink:href="#b" id="l" x1="746.226" x2="745.957" y1="306.831" y2="284.49" gradientUnits="userSpaceOnUse"/>
		<linearGradient xlink:href="#d" id="i" x1="260.639" x2="282.055" y1="17.12" y2="16.744" gradientUnits="userSpaceOnUse"/>
		<linearGradient xlink:href="#a" id="f" x1="876.589" x2="907.336" y1="209.347" y2="208.503" gradientUnits="userSpaceOnUse"/>
		<linearGradient xlink:href="#c" id="g" x1="585.221" x2="639.193" y1="210.36" y2="210.36" gradientUnits="userSpaceOnUse"/>
	</defs>
	<path d="M237.214 18.741c-.251-.026-4.443-.398-13.958-.316a27 27 0 0 1-2.153-.066c-.362-.025-.794-.013-1.176-.013l-13.661.025-.401-.378c-.172-.162-.704-.325-1.172-.761-.44-.412-.807-1.082-1.311-1.744-.538-.707-1.018-1.32-1.149-1.436-.131-.117-.756-.659-.756-.71 0-.114 26.565-.117 56.34-.014l22.045.04-1.056.727c-.929.64-1.738 1.54-2.827 3.01-.441.595-.859 1.276-.906 1.34-.224.313-.513.216-1.299.326-1.1.155-2.881.001-4.712-.12-2.776-.186-6.368-.107-10.215-.1-.872.001-1.8.042-2.723.117-1.394.112-2.773.06-3.611.074-2.098.034-4.08-.143-5.776-.084-3.214.11-5.527.133-6.146.15-1.26.032-2.429.03-2.92-.02z" style="fill:url(#e);fill-rule:evenodd;stroke:#ff1493;stroke-width:.000334925;stroke-linecap:square;stroke-dasharray:none;stroke-opacity:1;paint-order:markers stroke fill" transform="translate(-194.887 -8.465)"/>
	<path d="M886.225 298.662c-5.103-5.242-9.759-9.605-9.794-9.71-.489-1.44-.709-22.136.059-40.39.562-13.362.624-27.988.48-33.674-.071-2.866-.468-7.213-.507-12.223-.191-24.41-.262-68.2.058-70.61.306-2.307 1.059-3.448 3.322-6.753 3.44-5.023 8.573-10.293 12.557-13.047 1.761-1.217 3.507-3.142 4.07-2.175.559.956.013 45.196-.018 99.315l-.057 99.714z" style="fill:url(#f);fill-opacity:1;fill-rule:evenodd;stroke:none;stroke-width:.001;stroke-linecap:square;stroke-dasharray:none;stroke-opacity:1;paint-order:markers stroke fill" transform="translate(-151.71 -24.232)scale(.26458)"/>
	<path d="M597.113 208.705v-98.557l2.365 1.37c1.52.882 3.862 4.933 7.528 10.078 1.781 2.5 3.373 3.403 5.349 5.18l3.751 2.554-.336 23.954c-.097 6.888.217 13.53.156 20.006-.136 14.654.187 28.17.163 40.454-.016 8.01.365 15.477.359 22.35-.018 20.454.47 35.98.328 44.505-.08 4.839-.258 7.873-.606 8.8-.808 2.156-4.346 6.45-12.234 12.932l-6.775 6.443-.23-48.084.015-37.282z" style="fill:url(#g);fill-opacity:1;fill-rule:evenodd;stroke:none;stroke-width:.000421954;stroke-linecap:square;stroke-dasharray:none;stroke-opacity:1;paint-order:markers stroke fill" transform="translate(-151.71 -24.232)scale(.26458)"/>
	<path d="M601.608 305.23c5.269-4.814 12.11-11.782 13.921-14.028 1.426-1.768 1.96-1.69 3.413-1.186 1.008.35 5.318.827 13.665.873 3.337.018 7.27-.345 10.867-.2 3.66.145 6.876.311 9.064.403 6.282.265 9.733.175 16.942-.44 7.902-.676 10.47-.573 20.544-.2 7.68.285 13.873.435 18.226.157 3.753-.24 13.428-.955 24.14-.92 14.59.047 31.285.553 38.23.916 7.604.399 11.35.204 17.09-.193 3.237-.224 15.325-.943 29.395-1.062 22.95-.194 51.507-.373 55.156.23l4.302.175 9.396 9.539 9.64 10.076-148.95-.312-149.391.372z" style="fill:url(#h);fill-opacity:1;fill-rule:evenodd;stroke:none;stroke-width:.000421954;stroke-linecap:square;stroke-dasharray:none;stroke-opacity:1;paint-order:markers stroke fill" transform="translate(-151.71 -24.232)scale(.26458)"/>
	<path d="M201.083 13.229h79.375v52.917h-79.375z" style="fill:none;fill-rule:evenodd;stroke:#000;stroke-width:.264583" transform="translate(-194.887 -8.465)"/>
	<path d="M201.143 13.278c1.494.786 2.574 3.16 3.433 3.933.596.536 1.127.72 1.664 1.256-.422 2.168-.056 4.667-.045 6.852.022 4.112.045 7.92.045 12.003 0 4.273.171 8.56.069 12.813-.086 3.565.388 7.782-.019 10.738-1.27 1.9-3.844 3.837-5.169 5.162m5.196-5.28c2.443.765 5.544.11 8.136.396 1.529.169 3.098.133 4.635.026.59-.04 1.154-.07 1.741-.136 3.003-.333 5.857.144 8.552.05 2.486-.087 4.946-.37 7.691-.262 3.51.14 7.444-.05 10.951.269 1.466.133 2.99-.013 4.42-.132 2.06-.172 3.64.149 5.706-.134 1.12-.153 6.135.043 9.927-.073 2.425-.075 6.8-.13 7.148.198 2.323 2.32 3.193 3.219 5.08 5.106m-.041-52.873c-1.597 1.149-2.037 1.18-3.796 3.376-.21.26-1.161 1.622-1.326 1.951" style="fill:none;stroke:#000;stroke-width:.264583px;stroke-linecap:butt;stroke-linejoin:miter;stroke-opacity:1" transform="translate(-194.887 -8.465)"/>
	<path d="M275.15 18.485c-.34 1.931-.242 3.759-.148 5.7.105 2.171-.083 4.44.05 6.639.169 2.783-.21 5.614-.03 8.417.236 3.675.04 7.427-.039 11.04-.037 1.7-.204 4.781-.075 7.575.048 1.033-.15 2.482.276 3.05M206.2 18.45c5.425-.37 10.963-.166 16.299.057 4.293.178 8.722-.431 12.982.15 3.881.529 7.68.095 11.61.095 3.46 0 6.756.192 10.22-.038 1.837-.123 5.29-.014 8.628-.096 3.636-.09 7.528.754 9.178-.07" style="fill:none;stroke:#000;stroke-width:.264583px;stroke-linecap:butt;stroke-linejoin:miter;stroke-opacity:1" transform="translate(-194.887 -8.465)"/>
	<path d="M157.946 29.323c-.374-2.993 4.128-5.72 6.46-3.43 1.096 1.077 1.594 2.29 2.137 3.353.297-1.088.68-2.42 1.488-3.216 2.578-2.54 5.241-.71 6.067-.307 1.13.552 1.944 2.727 2.306 3.435.518-3.25 1.213-3.813 3.247-4.497 2.1-.705 3.585-.002 4.304.468 1.173.767 1.43 3.46 1.721 4.03 2.182-5.994 6.733-5.957 8.26-.073 3.175-4.673 6.67-5.723 9.02.004 1.416-5.88 8.184-5.737 9.607-.255.163-1.946 1.563-2.85 2.832-3.818 2.7-2.063 4.213 2.071 5.427 3.66 1.152-5.887 6.63-4.391 7.588.185.681-3.297 4.82-5.373 7.392-2.847.628.616 1.076 2.518 1.29 2.938" style="fill:#ff66b9;fill-opacity:1;stroke:#000;stroke-width:.264583px;stroke-linecap:butt;stroke-linejoin:miter;stroke-opacity:1" transform="translate(-151.71 -24.232)"/>
	<path d="M237.214 18.741c-.251-.026-4.443-.398-13.958-.316a27 27 0 0 1-2.153-.066c-.362-.025-.794-.013-1.176-.013l-13.661.025-.401-.378c-.172-.162-.704-.325-1.172-.761-.44-.412-.807-1.082-1.311-1.744-.538-.707-1.018-1.32-1.149-1.436-.131-.117-.756-.659-.756-.71 0-.114 26.565-.117 56.34-.014l22.045.04-1.056.727c-.929.64-1.738 1.54-2.827 3.01-.441.595-.859 1.276-.906 1.34-.224.313-.513.216-1.299.326-1.1.155-2.881.001-4.712-.12-2.776-.186-6.368-.107-10.215-.1-.872.001-1.8.042-2.723.117-1.394.112-2.773.06-3.611.074-2.098.034-4.08-.143-5.776-.084-3.214.11-5.527.133-6.146.15-1.26.032-2.429.03-2.92-.02z" style="fill:url(#i);fill-rule:evenodd;stroke:#ff1493;stroke-width:.000334925;stroke-linecap:square;stroke-dasharray:none;stroke-opacity:1;paint-order:markers stroke fill" transform="translate(-194.887 -8.465)"/>
	<path d="M886.225 298.662c-5.103-5.242-9.759-9.605-9.794-9.71-.489-1.44-.709-22.136.059-40.39.562-13.362.624-27.988.48-33.674-.071-2.866-.468-7.213-.507-12.223-.191-24.41-.262-68.2.058-70.61.306-2.307 1.059-3.448 3.322-6.753 3.44-5.023 8.573-10.293 12.557-13.047 1.761-1.217 3.507-3.142 4.07-2.175.559.956.013 45.196-.018 99.315l-.057 99.714z" style="fill:url(#j);fill-opacity:1;fill-rule:evenodd;stroke:none;stroke-width:.001;stroke-linecap:square;stroke-dasharray:none;stroke-opacity:1;paint-order:markers stroke fill" transform="translate(-151.71 -24.232)scale(.26458)"/>
	<path d="M597.113 208.705v-98.557l2.365 1.37c1.52.882 3.862 4.933 7.528 10.078 1.781 2.5 3.373 3.403 5.349 5.18l3.751 2.554-.336 23.954c-.097 6.888.217 13.53.156 20.006-.136 14.654.187 28.17.163 40.454-.016 8.01.365 15.477.359 22.35-.018 20.454.47 35.98.328 44.505-.08 4.839-.258 7.873-.606 8.8-.808 2.156-4.346 6.45-12.234 12.932l-6.775 6.443-.23-48.084.015-37.282z" style="fill:url(#k);fill-opacity:1;fill-rule:evenodd;stroke:none;stroke-width:.000421954;stroke-linecap:square;stroke-dasharray:none;stroke-opacity:1;paint-order:markers stroke fill" transform="translate(-151.71 -24.232)scale(.26458)"/>
	<path d="M601.608 305.23c5.269-4.814 12.11-11.782 13.921-14.028 1.426-1.768 1.96-1.69 3.413-1.186 1.008.35 5.318.827 13.665.873 3.337.018 7.27-.345 10.867-.2 3.66.145 6.876.311 9.064.403 6.282.265 9.733.175 16.942-.44 7.902-.676 10.47-.573 20.544-.2 7.68.285 13.873.435 18.226.157 3.753-.24 13.428-.955 24.14-.92 14.59.047 31.285.553 38.23.916 7.604.399 11.35.204 17.09-.193 3.237-.224 15.325-.943 29.395-1.062 22.95-.194 51.507-.373 55.156.23l4.302.175 9.396 9.539 9.64 10.076-148.95-.312-149.391.372z" style="fill:url(#l);fill-opacity:1;fill-rule:evenodd;stroke:none;stroke-width:.000421954;stroke-linecap:square;stroke-dasharray:none;stroke-opacity:1;paint-order:markers stroke fill" transform="translate(-151.71 -24.232)scale(.26458)"/>
	<path d="M201.083 13.229h79.375v52.917h-79.375z" style="fill:none;fill-rule:evenodd;stroke:#000;stroke-width:.264583" transform="translate(-194.887 -8.465)"/>
	<path d="M201.143 13.278c1.494.786 2.574 3.16 3.433 3.933.596.536 1.127.72 1.664 1.256-.422 2.168-.056 4.667-.045 6.852.022 4.112.045 7.92.045 12.003 0 4.273.171 8.56.069 12.813-.086 3.565.388 7.782-.019 10.738-1.27 1.9-3.844 3.837-5.169 5.162m5.196-5.28c2.443.765 5.544.11 8.136.396 1.529.169 3.098.133 4.635.026.59-.04 1.154-.07 1.741-.136 3.003-.333 5.857.144 8.552.05 2.486-.087 4.946-.37 7.691-.262 3.51.14 7.444-.05 10.951.269 1.466.133 2.99-.013 4.42-.132 2.06-.172 3.64.149 5.706-.134 1.12-.153 6.135.043 9.927-.073 2.425-.075 6.8-.13 7.148.198 2.323 2.32 3.193 3.219 5.08 5.106m-.041-52.873c-1.597 1.149-2.037 1.18-3.796 3.376-.21.26-1.161 1.622-1.326 1.951" style="fill:none;stroke:#000;stroke-width:.264583px;stroke-linecap:butt;stroke-linejoin:miter;stroke-opacity:1" transform="translate(-194.887 -8.465)"/>
	<path d="M275.15 18.485c-.34 1.931-.242 3.759-.148 5.7.105 2.171-.083 4.44.05 6.639.169 2.783-.21 5.614-.03 8.417.236 3.675.04 7.427-.039 11.04-.037 1.7-.204 4.781-.075 7.575.048 1.033-.15 2.482.276 3.05M206.2 18.45c5.425-.37 10.963-.166 16.299.057 4.293.178 8.722-.431 12.982.15 3.881.529 7.68.095 11.61.095 3.46 0 6.756.192 10.22-.038 1.837-.123 5.29-.014 8.628-.096 3.636-.09 7.528.754 9.178-.07" style="fill:none;stroke:#000;stroke-width:.264583px;stroke-linecap:butt;stroke-linejoin:miter;stroke-opacity:1" transform="translate(-194.887 -8.465)"/>
	<path d="M157.946 29.323c-.374-2.993 4.128-5.72 6.46-3.43 1.096 1.077 1.594 2.29 2.137 3.353.297-1.088.68-2.42 1.488-3.216 2.578-2.54 5.241-.71 6.067-.307 1.13.552 1.944 2.727 2.306 3.435.518-3.25 1.213-3.813 3.247-4.497 2.1-.705 3.585-.002 4.304.468 1.173.767 1.43 3.46 1.721 4.03 2.182-5.994 6.733-5.957 8.26-.073 3.175-4.673 6.67-5.723 9.02.004 1.416-5.88 8.184-5.737 9.607-.255.163-1.946 1.563-2.85 2.832-3.818 2.7-2.063 4.213 2.071 5.427 3.66 1.152-5.887 6.63-4.391 7.588.185.681-3.297 4.82-5.373 7.392-2.847.628.616 1.076 2.518 1.29 2.938m-79.355 53.195c-7.819-1.026-7.763-8.098-.638-11.736-2.381-.646-5.791-6.124-4.058-8.476.97-1.317 2.699-1.757 3.965-2.404-4.163-.503-7.015-6.229-3.744-9.556.644-.655 3.033-.746 3.654-1-7.48-1.973-6.397-8.788.02-10.45-5.938-.027-6.257-6.11-1.581-8.497.823-.42 1.443-.903 2.15-.557m79.711-.414c7.819 1.025 7.764 8.098.64 11.737 2.38.646 5.791 6.123 4.059 8.475-.97 1.317-2.7 1.758-3.966 2.405 4.163.502 7.016 6.227 3.746 9.555-.644.655-3.033.746-3.655 1.001 7.48 1.971 6.399 8.787-.017 10.45 5.938.026 6.257 6.108 1.581 8.497-.823.42-1.443.902-2.15.557" style="fill:#ff66b7;fill-opacity:1;stroke:#000;stroke-width:.264583px;stroke-linecap:butt;stroke-linejoin:miter;stroke-opacity:1" transform="rotate(-179.76 121.656 43.59)"/>
</svg>